<svg id="a691c226-a854-4a55-b7ce-b6d2f5f1f6f1" data-name="Layer 1" xmlns="http://www.w3.org/2000/svg" xmlns:xlink="http://www.w3.org/1999/xlink" width="865.76" height="682.89" viewBox="0 0 865.76 682.89"><defs><clipPath id="a02178ba-70a0-4dd5-83ba-79b4cfe5d019"><path d="M379.88,299s-46.2-5.47-76.6,18.24-56.53,122.8-55.92,170.21,18.23,71.13,62.61,90.58,127,12.16,173.25-2.43,61.4-65.66,60.79-93-31-59-41.34-65.65-39.51-20.67-54.1-42.56S412.7,305.12,379.88,299Z" fill="#ccc"/></clipPath><clipPath id="fa3bd781-ccb2-4afe-ba0f-763887f183d6"><path d="M494.7,570.1c-.56,1-1.21,2-1.88,2.91,6.84.76,16.7,3.19,24.94,10.39a80.84,80.84,0,0,1,6.06,5.86c8.5-11.4,18.06-47.44,28.84-62.26,27.87-38.29,26.28-109.43,27.17-126.72s-7.09-19.06-45.67-7.54-77.59,45.67-77.59,45.67l4.88,22.17c14.19-8.87,63-17.73,63-17.73a134.37,134.37,0,0,0-8.87,41.67C514.65,507.14,502.24,556.8,494.7,570.1Z" fill="#2f2e41"/></clipPath></defs><g opacity="0.78"><path d="M734.83,477.93c13.26-108.28-51-252.19-117.58-311.62C497,59,397.12,79.77,319.43,118.2S230.65,284.92,177,343s-84.15,136.12-2.77,213.84,147,38.23,232.14,33.3,197.93,33.89,259,.14C708,566.69,729,525.79,734.83,477.93Z" fill="#e1e1e1"/><path d="M734.83,477.93c13.26-108.28-51-252.19-117.58-311.62C497,59,397.12,79.77,319.43,118.2S230.65,284.92,177,343s-84.15,136.12-2.77,213.84,147,38.23,232.14,33.3,197.93,33.89,259,.14C708,566.69,729,525.79,734.83,477.93Z" fill="#e1e1e1" opacity="0.7"/></g><g opacity="0.7"><ellipse cx="405.24" cy="579.09" rx="203.86" ry="63.52" fill="#e1e1e1"/><ellipse cx="405.24" cy="579.09" rx="203.86" ry="63.52" fill="#e1e1e1" opacity="0.5"/></g><line x1="398.11" y1="474.12" x2="398.11" y2="75.18" fill="none" stroke="#2f2e41" stroke-miterlimit="10"/><polyline points="138.79 478.06 390.45 478.06 772.76 601.47" fill="none" stroke="#2f2e41" stroke-miterlimit="10"/><path d="M253.43,468.71H236V181.28h35.88L256.39,125.4H209.94l-15.49,55.88h35.88V468.71H212.89a17,17,0,0,0-17,16.7s0,.09,0,.13v.2h0c.52,4,17,7.22,37.24,7.22s36.72-3.22,37.24-7.22h.09A17,17,0,0,0,253.43,468.71Z" fill="#2f2e41"/><path d="M485,55.4V393.83l254.8,41.92V13.48Zm248.2,96.9-129.56,7.34V42.07L733.18,21.45ZM603.62,172l129.56-5.94V284.3l-129.56-6.06ZM593.11,277.75,489.27,272.9V177.26l103.84-4.76Zm0-234V160.23l-103.84,5.89V60.26ZM489.27,284l103.84,6V405.49L489.27,389ZM603.62,407.16V290.62l129.56,7.45V427.78Z" fill="#ccc"/><path d="M379.88,299s-46.2-5.47-76.6,18.24-56.53,122.8-55.92,170.21,18.23,71.13,62.61,90.58,127,12.16,173.25-2.43,61.4-65.66,60.79-93-31-59-41.34-65.65-39.51-20.67-54.1-42.56S412.7,305.12,379.88,299Z" fill="#ccc"/><g clip-path="url(#a02178ba-70a0-4dd5-83ba-79b4cfe5d019)"><path d="M491.69,572.41c-17.47-2.36-38.18-7.1-53.86-16.62-33.11-20.1-41.39-57.94-53.21-72.13s-33.11-13-42.56-28.37,5.91-128.88-21.29-136a62.62,62.62,0,0,0-17-2.42l-.53.39c-30.39,23.71-56.53,122.8-55.92,170.21s18.23,71.13,62.61,90.58,127,12.16,173.25-2.43A78.16,78.16,0,0,0,491.69,572.41Z" opacity="0.13"/></g><path d="M361.69,320.47s-30.15,5.77-35.48,11.09-27.49,88.67-27.49,88.67,9.76-2.66,18.63.89S327.1,434,328,438.41s1.33,16,1.33,16,89.62-8,108.69-12.44,48.08-6.47,48.08-6.47-49-110.55-56.57-114.54-39-4.44-43.45-3.55S361.69,320.47,361.69,320.47Z" fill="#0071f2"/><g opacity="0.13"><path d="M332,423.2h0a.3.3,0,0,1-.27-.34l7.54-61.63a.3.3,0,0,1,.34-.27.3.3,0,0,1,.27.34l-7.54,61.63A.3.3,0,0,1,332,423.2Z"/></g><g opacity="0.13"><path d="M337.74,378a.31.31,0,0,1-.18-.07.3.3,0,0,1-.06-.43l10.2-13.3a.31.31,0,0,1,.43-.06.3.3,0,0,1,.05.43L338,377.86A.35.35,0,0,1,337.74,378Z"/></g><g opacity="0.13"><path d="M368.34,386a.33.33,0,0,1-.3-.22.3.3,0,0,1,.2-.38c.29-.1,29.09-9.33,48-9.33a.31.31,0,1,1,0,.62c-18.8,0-47.5,9.2-47.79,9.29Z"/></g><g opacity="0.13"><path d="M412.67,398.37a.31.31,0,0,1-.3-.25C410.65,389.5,397.15,382,397,381.93a.31.31,0,0,1-.07-.49s2.09-2.13,1.69-4.15c-.32-1.62-3.73-2-5-2a.29.29,0,0,1-.23-.1.27.27,0,0,1-.07-.24l1.92-14.78a.32.32,0,0,1,.35-.27.31.31,0,0,1,.26.35L394,374.71c1.17.05,4.85.37,5.27,2.46.38,1.88-1,3.71-1.59,4.41,2.19,1.25,13.69,8.2,15.34,16.42a.31.31,0,0,1-.25.36Z"/></g><path d="M378.24,303.92s-16.55,5.32-18.92,9.46-.59,33.1-.59,36.65,2.07-2.07,3.84-6.21,8-10.34,10.05-9.75,3.25,3,3.25,6.8S380.6,350,384.74,353s8,5.91,8,5.91,8.57-12.42,10.64-15.67,1.78-10.05,2.07-12.41,5.62,6.5,6.8,4.14-2.66-4.44-6.8-10.94-2.95-13.3-9.16-18S383,302.74,378.24,303.92Z" fill="#0071f2"/><g opacity="0.2"><path d="M378.24,303.92s-16.55,5.32-18.92,9.46-.59,33.1-.59,36.65,2.07-2.07,3.84-6.21,8-10.34,10.05-9.75,3.25,3,3.25,6.8S380.6,350,384.74,353s8,5.91,8,5.91,8.57-12.42,10.64-15.67,1.78-10.05,2.07-12.41,5.62,6.5,6.8,4.14-2.66-4.44-6.8-10.94-2.95-13.3-9.16-18S383,302.74,378.24,303.92Z"/></g><path d="M339.07,423.78s-10.2-14.63-22.61-16-27.49,8.87-27.93,12.41-3.55,22.62-1.33,25.28,10.64,4.87,27-.45S337.3,433.09,339.07,423.78Z" fill="#0071f2"/><g opacity="0.2"><path d="M339.07,423.78s-10.2-14.63-22.61-16-27.49,8.87-27.93,12.41-3.55,22.62-1.33,25.28,10.64,4.87,27-.45S337.3,433.09,339.07,423.78Z"/></g><path d="M304.49,427.77s-16.64,6.61-17.29,19.51c-.36,7.14,11.52,10.2,23.94,10.2s30.15-15.52,41.68-22.17,38.13-22.17,41.23-23.5,13.75,2.22,18.18,3.55,12.86,1.33,12.86,1.33,6.21,9.75,9.31,9.75-6.65-14.63-8-17.73-23.06-10.2-25.72-10.2S336,414,326.66,417.57,304.49,427.77,304.49,427.77Z" fill="#f9b499"/><path d="M434.17,329.16l-13.51,76,97.54.44,14.51-72.07a4.48,4.48,0,0,0-4.25-5.36l-89.75-2.7A4.47,4.47,0,0,0,434.17,329.16Z" fill="#2f2e41"/><path d="M434.17,329.16l-13.51,76,97.54.44,14.51-72.07a4.48,4.48,0,0,0-4.25-5.36l-89.75-2.7A4.47,4.47,0,0,0,434.17,329.16Z" fill="#fff" opacity="0.2"/><polygon points="420.66 405.16 373.16 438.75 481.79 435.65 518.2 405.6 420.66 405.16" fill="#2f2e41"/><g opacity="0.2"><polygon points="420.66 405.16 373.16 438.75 481.79 435.65 518.2 405.6 420.66 405.16"/></g><path d="M456.57,438.41s39-34.14,77.59-45.67,46.56-9.75,45.67,7.54S560.32,508,547.91,531.08,520,596.26,520.42,604.24s15.52,31.48,28.82,39.9,12,18.63,3.54,20.4-18.17,4.88-47-13.75-40.8-45.22-39-51.87,20.39-15.52,27.93-28.82,19.95-63,20.84-85.58a134.37,134.37,0,0,1,8.87-41.67s-48.77,8.86-63,17.73Z" fill="#f9b499"/><path d="M494.7,570.1c-.56,1-1.21,2-1.88,2.91,6.84.76,16.7,3.19,24.94,10.39a80.84,80.84,0,0,1,6.06,5.86c8.5-11.4,18.06-47.44,28.84-62.26,27.87-38.29,26.28-109.43,27.17-126.72s-7.09-19.06-45.67-7.54-77.59,45.67-77.59,45.67l4.88,22.17c14.19-8.87,63-17.73,63-17.73a134.37,134.37,0,0,0-8.87,41.67C514.65,507.14,502.24,556.8,494.7,570.1Z" fill="#2f2e41"/><g clip-path="url(#fa3bd781-ccb2-4afe-ba0f-763887f183d6)"><path d="M494.7,570.1c-.56,1-1.21,2-1.88,2.91,6.84.76,16.7,3.19,24.94,10.39a80.84,80.84,0,0,1,6.06,5.86c8.5-11.4,18.06-47.44,28.84-62.26,27.87-38.29,26.28-109.43,27.17-126.72s-7.09-19.06-45.67-7.54-77.59,45.67-77.59,45.67l4.88,22.17c14.19-8.87,63-17.73,63-17.73a134.37,134.37,0,0,0-8.87,41.67C514.65,507.14,502.24,556.8,494.7,570.1Z" fill="#2f2e41"/></g><path d="M398.11,474.12s21.89-.61,41.95-7.9-16.41-20.67-30.4-13.38A20.79,20.79,0,0,0,398.11,474.12Z" fill="#3f3d56"/><path d="M398.11,474.12s21.89-.61,41.95-7.9-16.41-20.67-30.4-13.38A20.79,20.79,0,0,0,398.11,474.12Z" opacity="0.2"/><path d="M340.4,445.51s-14.19,8-19.06,16.85,16.11,23.64,38.28,22.76,62.81-25,62.81-25,.44,39,8,53.2,42.12,48.78,55.87,57.64,59.85,42.13,67,47.45,20.39,15.07,23.5,15.52,35.47-39,43-52.32,14.18-41.24,11.52-47.45-8-.88-13.3,3.55-54.09,36.8-58.52,39a48.22,48.22,0,0,1-7.54,3.1S512,541.72,490.71,512.46s-23.06-67-31-81.14-19.51-20.4-36.8-18.62S369.67,423.78,340.4,445.51Z" fill="#f9b499"/><path d="M547.42,577.19C538,568,502.87,520.85,489,493.71c-20.34-39.76-22.54-53.31-30.52-67.49s-20-15.3-37.32-13.52-48.23,5-86.19,26.51c0,0-15.94,8.66-20.82,17.53s14.36,33.42,45.23,30.6c22.1-2,60.86-24.91,60.86-24.91s.92,36.73,8.46,50.91,42.12,48.78,55.86,57.64c8.72,5.63,30.44,21,47,32.95C535.69,589.08,543,581,547.42,577.19Z" fill="#2f2e41"/><path d="M553.23,618.43c7.09,5.32,20.39,15.07,23.5,15.52s35.47-39,43-52.32,14.18-41.24,11.52-47.45-8-.88-13.3,3.55-54.09,36.8-58.52,39c-1.17.58-2.23,1.06-3.18,1.47-1.28,2.43-2.83,6.2-1.7,8.73,1.77,4,9.31,9.31,9.31,9.31l-13.41,20.12C551.65,617.25,552.6,618,553.23,618.43Z" fill="#0071f2"/><path d="M619.74,581.63c7.53-13.31,14.18-41.24,11.52-47.45-1.54-3.59-4-3.31-6.78-1.58,1.86,8.29,0,24.28-9.18,41.49-8.17,15.36-33.42,42.5-46.15,55.73,3.45,2.27,6.34,3.95,7.58,4.13C579.83,634.39,612.2,594.93,619.74,581.63Z" fill="#fff"/><path d="M549.24,644.14c-13.3-8.42-28.38-31.92-28.82-39.9a13,13,0,0,1,.21-2.62,12.86,12.86,0,0,0-7.31,2.62s-9.75-8.87-17.29-13.75c-5.4-3.49-12.37-4.48-15.9-4.76-6.44,5.29-12.4,9.57-13.36,13.19-1.78,6.65,10.2,33.25,39,51.87s38.57,15.52,47,13.75S562.54,652.57,549.24,644.14Z" fill="#0071f2"/><path d="M551.45,647.25c-11.52-6.65-35-11.09-50.1-21.29s-11.08-19.06-22.17-26.16c-5.09-3.25-9.34-2.49-12.44-.71-1.54,6.92,10.46,33.23,39.05,51.7,28.82,18.63,38.57,15.52,47,13.75,5.6-1.18,8-6.08,5.15-11.71A24.15,24.15,0,0,0,551.45,647.25Z" fill="#fff"/><path d="M330.51,562.44S339,552.1,340.24,560s-.61,22.5-6.69,28-9.12-3-9.12-3l3.65-4.87s3,6.08,5.47-3.64-4.86-8.51-4.86-8.51Z" fill="#2f2e41"/><path d="M324,601.34c-5,3.73-21.45,3.73-26.49,0-10.66-7.89-8.82-46-8.82-46h44.09S334.65,593.45,324,601.34Z" fill="#2f2e41"/><path d="M293.48,548.15a.3.3,0,0,1-.31-.3,6.67,6.67,0,0,1,2.31-5,6,6,0,0,0,0-9.18,6.59,6.59,0,0,1,0-10,6,6,0,0,0,0-9.19,6.6,6.6,0,0,1,0-10,6.13,6.13,0,0,0,2.14-4.6.29.29,0,0,1,.3-.3.3.3,0,0,1,.31.3,6.74,6.74,0,0,1-2.3,5,6,6,0,0,0,0,9.19,6.61,6.61,0,0,1,0,10,6,6,0,0,0,0,9.19,6.6,6.6,0,0,1,0,10,6.13,6.13,0,0,0-2.14,4.6A.3.3,0,0,1,293.48,548.15Z" fill="#3f3d56"/><path d="M308.71,548.15a.29.29,0,0,1-.3-.3c0-2,1.18-2.94,2.33-3.88s2.11-1.74,2.11-3.41-1-2.52-2.11-3.41-2.33-1.91-2.33-3.88,1.18-2.94,2.33-3.89,2.11-1.73,2.11-3.41-1-2.52-2.11-3.41-2.33-1.92-2.33-3.89,1.18-2.94,2.33-3.88,2.11-1.74,2.11-3.42a.3.3,0,0,1,.31-.3.29.29,0,0,1,.3.3c0,2-1.18,3-2.33,3.89S309,517,309,518.67s1,2.52,2.11,3.42,2.33,1.91,2.33,3.88-1.18,2.95-2.33,3.89-2.11,1.73-2.11,3.41,1,2.52,2.11,3.41,2.33,1.91,2.33,3.88-1.18,2.94-2.33,3.88-2.11,1.73-2.11,3.41A.3.3,0,0,1,308.71,548.15Z" fill="#3f3d56"/><path d="M325.47,548.15a.3.3,0,0,1-.31-.3,6.67,6.67,0,0,1,2.31-5,6,6,0,0,0,0-9.18,6.59,6.59,0,0,1,0-10,6,6,0,0,0,0-9.19,6.6,6.6,0,0,1,0-10,6.13,6.13,0,0,0,2.14-4.6.29.29,0,0,1,.3-.3.3.3,0,0,1,.31.3,6.74,6.74,0,0,1-2.3,5,6,6,0,0,0,0,9.19,6.61,6.61,0,0,1,0,10,6,6,0,0,0,0,9.19,6.6,6.6,0,0,1,0,10,6.1,6.1,0,0,0-2.14,4.6A.3.3,0,0,1,325.47,548.15Z" fill="#3f3d56"/><path d="M332.78,555.33c0,1.1-9.87,2-22,2s-22-.9-22-2,9.87-2,22-2S332.78,554.22,332.78,555.33Z" fill="#2f2e41"/><path d="M332.78,555.33c0,1.1-9.87,2-22,2s-22-.9-22-2,9.87-2,22-2S332.78,554.22,332.78,555.33Z" opacity="0.13"/><path d="M373.49,280.93s2.06,22.4,2.93,29.47,2.85,27.4,4.89,34.12,13.15,18.41,14.23,15.71,6.57-21,4.37-31.83-2.87-20.29-1.5-23,6.28-5.87,6.28-5.87a174.39,174.39,0,0,1-16.66-9.7C380.13,284.51,374.57,278.52,373.49,280.93Z" fill="#f9b499"/><path d="M372.66,284.13s12.77,10.69,22.57,14.55,24.85,3.65,27-1.45-3.71-45.4-8.76-56S403,230.44,394.06,229.63s-26.77,6.46-29.9,15.08.43,20.82,3,28A53.44,53.44,0,0,0,372.66,284.13Z" fill="#f9b499"/><path d="M407,267.64a7.17,7.17,0,0,1-5.4-2.61,11.11,11.11,0,0,1-.53-13.47,6.87,6.87,0,0,1,11.1-.43,11.14,11.14,0,0,1,.53,13.46,7.14,7.14,0,0,1-5.44,3Zm-.24-18.51h-.23a6.51,6.51,0,0,0-5,2.79,10.5,10.5,0,0,0,.5,12.7,6.27,6.27,0,0,0,10.15-.4,10.54,10.54,0,0,0-.5-12.7A6.61,6.61,0,0,0,406.75,249.13Z" fill="#3f3d56"/><path d="M420.67,265.56c-1.18,0-2.3-1-3.17-2.77a17,17,0,0,1-1.47-6.62,17.14,17.14,0,0,1,.94-6.71c.75-1.89,1.82-3,3-3s2.37.93,3.26,2.77a18.95,18.95,0,0,1,.52,13.32c-.74,1.9-1.82,3-3,3Zm-.59-18.5H420c-.94,0-1.85,1-2.49,2.63a18.41,18.41,0,0,0,.51,12.83c.77,1.58,1.74,2.46,2.68,2.43s1.84-1,2.48-2.63a16.61,16.61,0,0,0,.91-6.46h0a16.73,16.73,0,0,0-1.41-6.38C422,247.94,421,247.06,420.08,247.06Z" fill="#3f3d56"/><path d="M414,254.62h0a.3.3,0,0,1-.26-.34,1.54,1.54,0,0,1,.75-1.14,2.32,2.32,0,0,1,2.16.25.3.3,0,0,1,.13.41.31.31,0,0,1-.41.14,1.85,1.85,0,0,0-1.59-.27,1,1,0,0,0-.44.68A.3.3,0,0,1,414,254.62Z" fill="#3f3d56"/><path d="M372.31,270a.31.31,0,0,1-.29-.2.32.32,0,0,1,.17-.4l26.64-10.48a.31.31,0,0,1,.4.18.31.31,0,0,1-.17.39L372.42,270Z" fill="#3f3d56"/><path d="M374.8,269.76S373,273.31,378,273.5s8.4-2.27,6-5.26-6-5.94-2.32-9.94,10.9-7.38,6.87-11.85-18.93-.41-15.22-4S394.27,235,402,235.5s22.17-5.51,25.33-13.35-1.26-22.34-11.65-21.54-18.14,10-22.74,10.54-14.08-4.46-22,.1-8.2,17.3-8.91,18.87-11.42,3.93-13.31,14.81,3.09,19.56,7.52,24.4,6.44,6.7,6.44,6.7Z" fill="#3f3d56"/><g opacity="0.13"><path d="M353.37,255.06a.23.23,0,0,1-.19-.1A8.63,8.63,0,0,1,352,250.1a.23.23,0,0,1,.46,0,8.18,8.18,0,0,0,1.11,4.58.23.23,0,0,1-.07.32A.28.28,0,0,1,353.37,255.06Z"/><path d="M354,246a.24.24,0,0,1-.14-.05.23.23,0,0,1,0-.32,16,16,0,0,1,6.19-4.39c6.22-2.75,15.13-4.35,23.75-5.9,8.1-1.45,15.76-2.83,20.68-5,5.71-2.57,7.49-7.32,6.73-10.9s-3.69-5.59-7.7-5.59c-2.93,0-4.89.75-5.85,2.24-1.52,2.37.05,5.86.07,5.9a.23.23,0,0,1-.12.3.22.22,0,0,1-.3-.11c-.07-.15-1.69-3.76,0-6.34,1-1.62,3.14-2.45,6.23-2.45,4.24,0,7.36,2.28,8.15,6s-1.08,8.75-7,11.41c-5,2.22-12.65,3.6-20.78,5.06-8.59,1.55-17.48,3.15-23.64,5.87a15.53,15.53,0,0,0-6,4.25A.23.23,0,0,1,354,246Z"/><path d="M359,266.7a.23.23,0,0,1-.21-.13c-.09-.2-2.1-4.85,7.87-9.48,3.92-1.82,8.24-3.58,12.84-5.22a.23.23,0,0,1,.29.14.23.23,0,0,1-.14.29c-4.58,1.64-8.88,3.39-12.8,5.21-9.52,4.42-7.67,8.82-7.65,8.86a.22.22,0,0,1-.11.31Z"/><path d="M383.83,250.87a.24.24,0,0,1-.22-.16.23.23,0,0,1,.15-.29c1.48-.49,2.34-.74,2.34-.74a.23.23,0,0,1,.29.15.25.25,0,0,1-.16.29s-.86.25-2.33.73Z"/></g><path d="M376.49,273.56s-5.73-8.27-11.78-4.94-1.33,15.1,2.3,19.2,10.67-3.5,11.37-5.46" fill="#f9b499"/><path d="M392.58,368.11l-82.37-40.33V271.14a5.12,5.12,0,0,0-5.12-5.12h-135a5.12,5.12,0,0,0-5.12,5.12V372a5.12,5.12,0,0,0,5.12,5.12h135a5.12,5.12,0,0,0,5.12-5.12V346.66Z" fill="#ccc"/><rect x="176.68" y="276.7" width="34.18" height="89.73" opacity="0.2"/><rect x="298.4" y="276.7" width="4.27" height="89.73" opacity="0.2"/><g opacity="0.2"><path d="M288.85,279.14h-67.3a.3.3,0,0,1-.31-.3.31.31,0,0,1,.31-.31h67.3a.3.3,0,0,1,.3.31A.29.29,0,0,1,288.85,279.14Z"/></g><g opacity="0.2"><path d="M288.85,288.76h-67.3a.31.31,0,0,1,0-.62h67.3a.31.31,0,0,1,0,.62Z"/></g><g opacity="0.2"><path d="M288.85,298.37h-67.3a.31.31,0,1,1,0-.61h67.3a.31.31,0,0,1,0,.61Z"/></g><g opacity="0.2"><path d="M288.85,308h-67.3a.31.31,0,0,1,0-.62h67.3a.31.31,0,0,1,0,.62Z"/></g><g opacity="0.2"><path d="M288.85,331.49h-67.3a.31.31,0,0,1,0-.62h67.3a.31.31,0,0,1,0,.62Z"/></g><g opacity="0.2"><path d="M288.85,340h-67.3a.3.3,0,0,1-.31-.3.31.31,0,0,1,.31-.31h67.3a.3.3,0,0,1,.3.31A.29.29,0,0,1,288.85,340Z"/></g><g opacity="0.2"><path d="M288.85,348.58h-67.3a.31.31,0,0,1-.31-.31.3.3,0,0,1,.31-.3h67.3a.29.29,0,0,1,.3.3A.3.3,0,0,1,288.85,348.58Z"/></g><g opacity="0.2"><path d="M288.85,366.32h-67.3a.31.31,0,1,1,0-.62h67.3a.31.31,0,0,1,0,.62Z"/></g><g opacity="0.2"><path d="M176.68,366.74l-.11,0a.3.3,0,0,1-.18-.39l34.19-89.74a.3.3,0,0,1,.39-.18.31.31,0,0,1,.18.4L177,366.54A.29.29,0,0,1,176.68,366.74Z"/></g><g opacity="0.5"><ellipse cx="694.75" cy="601.47" rx="29.66" ry="13.31" fill="#e1e1e1"/><ellipse cx="694.75" cy="601.47" rx="29.66" ry="13.31" fill="#e1e1e1" opacity="0.5"/></g><path d="M660.05,404.64c3.17,1.39,10.94,1.21,10.94,1.21s-1.67-5.08-1.81-5.39c-1.71-3.56-7.1-9.45-11.48-8.86a5.23,5.23,0,0,0-4.2,6.56C654.23,401.2,657.34,403.46,660.05,404.64Z" fill="#2f2e41"/><path d="M761.78,378.21c-4.4-.48-9.63,5.55-11.24,9.16-.14.31-1.75,5.44-1.67,5.44h.1c-.84.94-1.72,2-2.66,3.1-1.72,2.12-3.64,4.52-5.56,7.28a91.18,91.18,0,0,0-5.77,9.19,68.61,68.61,0,0,0-4.93,11.1s0,.09,0,.14c0-1.3,0-4.93-.07-5.2-.51-3.92-3.79-11.19-8.14-12a5.24,5.24,0,0,0-6,4.93c-.26,3.11,2,6.22,4.2,8.19,2.48,2.22,9.37,4.36,9.92,4.53a93.32,93.32,0,0,0-2.91,12c-.42,2.37-.77,4.77-1.1,7.17,0-1.12,0-2.12,0-2.26-.51-3.92-3.8-11.19-8.15-12a5.23,5.23,0,0,0-6,4.92c-.25,3.11,2,6.23,4.21,8.2s8.07,3.94,9.62,4.43c-.11.93-.24,1.85-.35,2.78-.53,4.44-1,8.87-1.67,13.2-.23,1.53-.5,3-.77,4.52,0-1,0-1.83-.06-2-.5-3.92-3.79-11.19-8.14-12a5.23,5.23,0,0,0-6,4.92c-.25,3.11,2,6.23,4.21,8.2s7.5,3.75,9.34,4.34c-.32,1.53-.64,3.06-1,4.52-.28,1-.48,2-.82,3s-.63,1.95-.94,2.91c-.67,1.83-1.34,3.72-2,5.48-.48,1.23-.95,2.4-1.42,3.57.24-1.51.64-4.49.65-4.75a20.3,20.3,0,0,0-2.73-9.89,6.51,6.51,0,0,0-.07-1.16,5.24,5.24,0,0,0-6.4-4.44c-4.28,1.14-7,8.65-7.19,12.59,0,.23.14,2.77.26,4.38-.21-.93-.41-1.84-.65-2.79-.44-1.9-1-3.77-1.48-5.79l-.89-2.92c-.27-1-.69-2-1-3-.85-2.32-1.81-4.62-2.84-6.92,1.65-.39,7.51-1.88,9.86-3.69s4.82-4.74,4.8-7.86a5.23,5.23,0,0,0-5.65-5.36c-4.4.48-8.22,7.49-9,11.36-.05.24-.31,3.08-.42,4.64-.63-1.38-1.25-2.75-1.93-4.12-2-4-4.08-7.91-6.17-11.86-.64-1.2-1.27-2.42-1.9-3.63.6-.13,7.6-1.76,10.23-3.78,2.34-1.79,4.82-4.73,4.8-7.85a5.24,5.24,0,0,0-5.65-5.37c-4.4.48-8.22,7.49-9,11.36-.06.29-.43,4.38-.47,5.42-1.39-2.66-2.74-5.33-4-8a93,93,0,0,1-4.32-11.15c.28-.07,7.59-1.73,10.29-3.8,2.34-1.79,4.82-4.73,4.8-7.86a5.24,5.24,0,0,0-5.66-5.36c-4.4.48-8.21,7.49-9,11.36-.06.3-.46,4.7-.47,5.5-.07-.22-.17-.44-.23-.66A67.85,67.85,0,0,1,672,412.81c-.25-2.2-.36-4.31-.42-6.37,1.39-.17,7.75-1,10.39-2.61s5.31-4.18,5.63-7.28a5.22,5.22,0,0,0-5-5.95c-4.42,0-9,6.53-10.21,10.29-.06.21-.51,2.36-.81,3.93,0-.93,0-1.89,0-2.78,0-3.34.22-6.41.43-9.12.13-1.54.28-2.93.43-4.23,1.28-.88,6.4-4.49,8-7.08s2.79-6.15,1.65-9.06a5.25,5.25,0,0,0-7.21-3c-3.93,2-5,10-4.31,13.84,0,.34,1.54,5.51,1.6,5.46l.08-.05c-.17,1.25-.34,2.59-.5,4.05-.27,2.71-.55,5.78-.63,9.14a96.11,96.11,0,0,0,.26,10.85,68.19,68.19,0,0,0,2,12l.05.14c-.7-1.09-2.75-4.09-2.93-4.3-2.59-3-9.34-7.24-13.41-5.51a5.24,5.24,0,0,0-2.32,7.44c1.51,2.74,5.11,4.09,8,4.52,3.29.48,10.22-1.53,10.77-1.7a93.39,93.39,0,0,0,4.2,11.63c1,2.21,2,4.41,3,6.59-.64-.93-1.21-1.75-1.3-1.85-2.59-3-9.34-7.25-13.41-5.52a5.24,5.24,0,0,0-2.32,7.44c1.5,2.74,5.11,4.09,8,4.52s8.9-1.16,10.47-1.61c.42.84.82,1.67,1.24,2.51,2,4,4,8,5.89,11.94.66,1.39,1.25,2.79,1.85,4.19-.56-.82-1-1.51-1.13-1.61-2.58-3-9.33-7.24-13.4-5.51a5.23,5.23,0,0,0-2.32,7.44c1.5,2.74,5.1,4.09,8,4.52s8.33-1,10.19-1.53c.57,1.45,1.15,2.9,1.64,4.33.31,1,.68,1.91.94,2.92s.55,2,.82,2.94c.45,1.89.93,3.84,1.33,5.69.28,1.29.53,2.53.79,3.77-.64-1.4-2-4.11-2.08-4.32-2.1-3.35-8.13-8.58-12.42-7.48a5.23,5.23,0,0,0-3.42,7c1.07,2.93,4.43,4.81,7.25,5.68,3.1.95,10,.08,10.84,0,.42,2.06.8,4.06,1.13,6,1.15,6.57,1.87,12.09,2.32,15.95.07.68.14,1.29.2,1.87H688.59l4.28,83.54a12,12,0,0,0,11.93,11.33h0a11.94,11.94,0,0,0,11.92-11.33L721,512.86H708.6l.27-.57c1.7-3.54,4.06-8.64,6.61-14.88.81-2,1.64-4.08,2.47-6.27.83.18,7.64,1.56,10.82.84,2.87-.65,6.36-2.28,7.65-5.12a5.24,5.24,0,0,0-2.89-7.24c-4.2-1.41-10.6,3.36-12.94,6.54-.14.18-1.42,2.39-2.2,3.79.34-.9.67-1.76,1-2.69.67-1.82,1.29-3.66,2-5.64.29-1,.59-1.94.88-2.93s.52-2,.79-3.06c.57-2.4,1-4.85,1.44-7.33,1.6.58,7.31,2.56,10.26,2.36s6.64-1.29,8.34-3.91a5.23,5.23,0,0,0-1.75-7.59c-3.94-2-11,1.71-13.79,4.5-.17.17-2,2.4-2.91,3.64.23-1.5.47-3,.66-4.51.55-4.38,1-8.84,1.39-13.29.14-1.36.28-2.71.43-4.07.56.21,7.3,2.72,10.61,2.49,2.94-.21,6.64-1.29,8.34-3.91a5.24,5.24,0,0,0-1.76-7.59c-3.93-2-11,1.71-13.78,4.5-.21.21-2.77,3.42-3.39,4.26.32-3,.66-6,1.12-8.88a91.68,91.68,0,0,1,2.55-11.69c.26.1,7.28,2.75,10.67,2.51,2.94-.2,6.64-1.28,8.34-3.9a5.24,5.24,0,0,0-1.76-7.59c-3.93-2-11,1.71-13.78,4.5-.22.21-3,3.67-3.43,4.33.06-.23.11-.46.18-.68a67.82,67.82,0,0,1,4.62-11.06c1-2,2.08-3.79,3.17-5.55,1.25.63,7,3.43,10.1,3.56s6.74-.56,8.72-3a5.24,5.24,0,0,0-.92-7.74c-3.68-2.45-11.1.5-14.19,3-.17.13-1.72,1.68-2.84,2.83.5-.78,1-1.6,1.5-2.34,1.85-2.79,3.71-5.23,5.38-7.38,1-1.21,1.86-2.29,2.7-3.29,1.56,0,7.82-.21,10.55-1.5s5.73-3.59,6.37-6.65A5.22,5.22,0,0,0,761.78,378.21ZM713.07,496.39c-2.66,6.12-5.11,11.12-6.86,14.59l-1,1.88h-.3c-.08-.67-.18-1.41-.29-2.25-.54-3.89-1.38-9.44-2.7-16.05-.41-2.09-.89-4.32-1.4-6.59a58.77,58.77,0,0,0,6.05-2.85c2.26,2.45,8.07,5.32,8.82,5.69C714.63,492.75,713.84,494.63,713.07,496.39Z" fill="#2f2e41"/><path d="M738.6,406.35c.07,0,1.41-5.16,1.46-5.5.54-3.91-.71-11.79-4.69-13.72a5.23,5.23,0,0,0-7.12,3.16c-1.07,2.93.28,6.53,1.88,9C732,402.21,738.59,406.35,738.6,406.35Z" fill="#2f2e41"/></svg>