<svg id="Layer_1" data-name="Layer 1" xmlns="http://www.w3.org/2000/svg" xmlns:xlink="http://www.w3.org/1999/xlink" viewBox="0 0 865.76 682.89"><defs><style>.cls-1,.cls-2,.cls-3,.cls-5{fill:#fff;}.cls-1,.cls-2,.cls-3,.cls-4,.cls-8{stroke:#337ad1;stroke-miterlimit:10;}.cls-1,.cls-2,.cls-3,.cls-8{stroke-width:3px;}.cls-2{opacity:0.7;}.cls-3{opacity:0.5;}.cls-4,.cls-8{fill:none;}.cls-4{stroke-width:2px;}.cls-6{clip-path:url(#clip-path);}.cls-7{fill:#c3dafb;}.cls-9{clip-path:url(#clip-path-2);}.cls-10{fill:#337ad1;}.cls-11{clip-path:url(#clip-path-3);}.cls-12{clip-path:url(#clip-path-4);}.cls-13{clip-path:url(#clip-path-5);}.cls-14{clip-path:url(#clip-path-6);}.cls-15{clip-path:url(#clip-path-7);}.cls-16{clip-path:url(#clip-path-8);}.cls-17{clip-path:url(#clip-path-9);}.cls-18{clip-path:url(#clip-path-10);}</style><clipPath id="clip-path"><path class="cls-1" d="M237.82,470.47H220.39V183h35.87l-15.48-55.89H194.32L178.83,183h35.88V470.47H197.28a17,17,0,0,0-17,16.7.51.51,0,0,0,0,.13s0,0,0,.05,0,.1,0,.14h0c.52,4,17,7.23,37.23,7.23s36.72-3.22,37.24-7.23h.09A17,17,0,0,0,237.82,470.47Z"/></clipPath><clipPath id="clip-path-2"><path class="cls-1" d="M364.26,300.8s-46.2-5.47-76.59,18.24-56.54,122.79-55.93,170.21,18.24,71.12,62.61,90.58,127,12.15,173.25-2.44,61.4-65.65,60.79-93-31-59-41.33-65.66S447.54,398.06,433,376.18,397.09,306.88,364.26,300.8Z"/></clipPath><clipPath id="clip-path-3"><path class="cls-1" d="M323.46,425.54s-10.2-14.63-22.62-16-27.49,8.86-27.93,12.41-3.55,22.61-1.33,25.27,10.64,4.88,27.05-.44S321.68,434.85,323.46,425.54Z"/></clipPath><clipPath id="clip-path-4"><path class="cls-1" d="M418.55,330.91l-13.51,76,97.54.44,14.51-72.07a4.48,4.48,0,0,0-4.25-5.36l-89.75-2.71A4.49,4.49,0,0,0,418.55,330.91Z"/></clipPath><clipPath id="clip-path-5"><path class="cls-1" d="M441,440.17s39-34.14,77.6-45.67,46.55-9.75,45.66,7.54-19.5,107.74-31.92,130.8S504.36,598,504.8,606s15.52,31.48,28.82,39.9,12,18.62,3.55,20.4-18.18,4.87-47-13.75-40.79-45.22-39-51.88,20.4-15.51,27.93-28.82,20-63,20.84-85.57a134.47,134.47,0,0,1,8.87-41.68s-48.77,8.87-63,17.74Z"/></clipPath><clipPath id="clip-path-6"><path class="cls-1" d="M531.8,578.94c-9.37-9.14-44.55-56.34-58.43-83.47C453,455.71,450.84,442.16,442.86,428s-20-15.29-37.33-13.52-48.23,5-86.19,26.52c0,0-15.94,8.66-20.81,17.53s14.36,33.42,45.23,30.6c22.09-2,60.85-24.92,60.85-24.92s.92,36.73,8.46,50.92,42.12,48.77,55.87,57.64c8.71,5.63,30.44,21,47,33C520.07,590.84,527.4,582.7,531.8,578.94Z"/></clipPath><clipPath id="clip-path-7"><path class="cls-1" d="M537.61,620.18c7.1,5.32,20.4,15.08,23.5,15.52s35.47-39,43-52.32,14.19-41.23,11.53-47.44-8-.89-13.3,3.55-54.1,36.8-58.53,39c-1.16.58-2.22,1.06-3.17,1.47-1.29,2.42-2.83,6.19-1.71,8.72,1.78,4,9.31,9.31,9.31,9.31l-13.41,20.13Z"/></clipPath><clipPath id="clip-path-8"><path class="cls-1" d="M308.38,603.1c-5,3.73-21.45,3.73-26.48,0-10.66-7.89-8.83-46-8.83-46h44.1S319,595.21,308.38,603.1Z"/></clipPath><clipPath id="clip-path-9"><path class="cls-1" d="M357.87,282.69s2.06,22.4,2.93,29.46,2.86,27.4,4.9,34.13,13.15,18.41,14.22,15.71,6.57-21,4.37-31.83-2.87-20.3-1.5-23,6.28-5.87,6.28-5.87a174.92,174.92,0,0,1-16.65-9.7C364.52,286.27,359,280.28,357.87,282.69Z"/></clipPath><clipPath id="clip-path-10"><path class="cls-1" d="M372.71,368.8,290.35,348v24.68a5.12,5.12,0,0,1-5.12,5.12h-135a5.11,5.11,0,0,1-5.11-5.12V271.83a5.11,5.11,0,0,1,5.11-5.12H285.23a5.12,5.12,0,0,1,5.12,5.12v57.88Z"/></clipPath></defs><path class="cls-1" d="M719.21,479.69c13.26-108.28-51-252.2-117.58-311.62C481.4,60.78,381.51,81.53,303.82,120S215,286.68,161.39,344.72s-84.16,136.13-2.77,213.85,147.05,38.23,232.14,33.3,197.92,33.88,259,.14C692.35,568.44,713.35,527.55,719.21,479.69Z"/><path class="cls-2" d="M719.21,479.69c13.26-108.28-51-252.2-117.58-311.62C481.4,60.78,381.51,81.53,303.82,120S215,286.68,161.39,344.72s-84.16,136.13-2.77,213.85,147.05,38.23,232.14,33.3,197.92,33.88,259,.14C692.35,568.44,713.35,527.55,719.21,479.69Z"/><polygon class="cls-1" points="469.37 57.15 465.43 402.94 723.43 436.37 724.17 15.23 469.37 57.15"/><polygon class="cls-1" points="577.49 161.4 577.49 45.49 473.65 62.02 473.65 167.83 577.49 161.4"/><polygon class="cls-1" points="585.12 43.54 584.26 161.12 714.68 153.78 714.68 22.93 585.12 43.54"/><polygon class="cls-1" points="473.65 177.51 473.14 274.37 577.49 280.29 578.57 174.25 473.65 177.51"/><polygon class="cls-1" points="588.01 172.37 588.01 280.29 717.56 286.06 717.56 167.83 588.01 172.37"/><polygon class="cls-1" points="588.86 293.23 587.14 409.46 718.4 429.54 717.56 299.83 588.86 293.23"/><polygon class="cls-1" points="473.65 286.06 473.65 398.25 577.49 407.62 577.49 291.51 473.65 286.06"/><ellipse class="cls-1" cx="381.48" cy="580.85" rx="203.86" ry="63.52"/><ellipse class="cls-3" cx="381.48" cy="580.85" rx="203.86" ry="63.52"/><line class="cls-4" x1="382.5" y1="475.88" x2="382.5" y2="76.94"/><polyline class="cls-4" points="123.18 479.82 374.83 479.82 757.15 603.23"/><path class="cls-5" d="M237.82,470.47H220.39V183h35.87l-15.48-55.89H194.32L178.83,183h35.88V470.47H197.28a17,17,0,0,0-17,16.7.51.51,0,0,0,0,.13s0,0,0,.05,0,.1,0,.14h0c.52,4,17,7.23,37.23,7.23s36.72-3.22,37.24-7.23h.09A17,17,0,0,0,237.82,470.47Z"/><g class="cls-6"><path class="cls-7" d="M178.83,183S207,136,247.5,151.4l-6.72-24.25H194.32Z"/></g><path class="cls-8" d="M237.82,470.47H220.39V183h35.87l-15.48-55.89H194.32L178.83,183h35.88V470.47H197.28a17,17,0,0,0-17,16.7.51.51,0,0,0,0,.13s0,0,0,.05,0,.1,0,.14h0c.52,4,17,7.23,37.23,7.23s36.72-3.22,37.24-7.23h.09A17,17,0,0,0,237.82,470.47Z"/><path class="cls-5" d="M364.26,300.8s-46.2-5.47-76.59,18.24-56.54,122.79-55.93,170.21,18.24,71.12,62.61,90.58,127,12.15,173.25-2.44,61.4-65.65,60.79-93-31-59-41.33-65.66S447.54,398.06,433,376.18,397.09,306.88,364.26,300.8Z"/><g class="cls-9"><path class="cls-7" d="M476.08,574.16c-17.47-2.35-38.19-7.1-53.87-16.62-33.11-20.1-41.38-57.93-53.21-72.12s-33.1-13-42.56-28.38,5.91-128.88-21.28-136a62.29,62.29,0,0,0-17-2.42c-.17.13-.35.25-.52.39-30.4,23.71-56.54,122.79-55.93,170.21s18.24,71.12,62.61,90.58,127,12.15,173.25-2.44A76.3,76.3,0,0,0,476.08,574.16Z"/></g><path class="cls-8" d="M364.26,300.8s-46.2-5.47-76.59,18.24-56.54,122.79-55.93,170.21,18.24,71.12,62.61,90.58,127,12.15,173.25-2.44,61.4-65.65,60.79-93-31-59-41.33-65.66S447.54,398.06,433,376.18,397.09,306.88,364.26,300.8Z"/><path class="cls-1" d="M346.07,322.23S315.92,328,310.6,333.31,283.11,422,283.11,422s9.75-2.66,18.62.89,9.75,12.86,10.64,17.29,1.33,16,1.33,16,89.63-8,108.69-12.44,48.08-6.47,48.08-6.47-49-110.56-56.56-114.55-39-4.43-43.45-3.55S346.07,322.23,346.07,322.23Z"/><path class="cls-10" d="M316.36,425h0a.3.3,0,0,1-.26-.34L323.6,363a.29.29,0,0,1,.34-.26.3.3,0,0,1,.26.34l-7.53,61.63A.32.32,0,0,1,316.36,425Z"/><path class="cls-10" d="M322.13,379.73a.33.33,0,0,1-.19-.06.31.31,0,0,1-.06-.43l10.2-13.3a.31.31,0,0,1,.43-.06.31.31,0,0,1,.06.43l-10.2,13.3A.3.3,0,0,1,322.13,379.73Z"/><path class="cls-10" d="M352.72,387.71a.3.3,0,0,1-.29-.21.31.31,0,0,1,.2-.39c.28-.09,29.08-9.32,48-9.32a.31.31,0,0,1,0,.61c-18.8,0-47.51,9.21-47.8,9.3Z"/><path class="cls-10" d="M397.06,400.13a.3.3,0,0,1-.3-.25c-1.73-8.63-15.23-16.12-15.37-16.2a.29.29,0,0,1-.15-.22.28.28,0,0,1,.08-.26s2.1-2.13,1.69-4.16c-.32-1.62-3.73-2-5-2a.33.33,0,0,1-.23-.1.31.31,0,0,1-.07-.24L379.62,362a.3.3,0,0,1,.34-.27.31.31,0,0,1,.27.34l-1.89,14.45c1.17,0,4.86.36,5.27,2.45.38,1.89-1,3.72-1.58,4.42,2.18,1.25,13.68,8.19,15.33,16.42a.31.31,0,0,1-.24.36Z"/><path class="cls-5" d="M362.62,305.68s-16.55,5.32-18.92,9.45-.59,33.11-.59,36.66,2.07-2.07,3.85-6.21,8-10.35,10.05-9.75,3.25,2.95,3.25,6.79,4.73,9.17,8.86,12.12,8,5.92,8,5.92,8.57-12.42,10.64-15.67,1.77-10.05,2.07-12.42,5.61,6.51,6.79,4.14-2.66-4.43-6.79-10.93-3-13.31-9.17-18S367.35,304.49,362.62,305.68Z"/><path class="cls-8" d="M362.62,305.68s-16.55,5.32-18.92,9.45-.59,33.11-.59,36.66,2.07-2.07,3.85-6.21,8-10.35,10.05-9.75,3.25,2.95,3.25,6.79,4.73,9.17,8.86,12.12,8,5.92,8,5.92,8.57-12.42,10.64-15.67,1.77-10.05,2.07-12.42,5.61,6.51,6.79,4.14-2.66-4.43-6.79-10.93-3-13.31-9.17-18S367.35,304.49,362.62,305.68Z"/><path class="cls-5" d="M323.46,425.54s-10.2-14.63-22.62-16-27.49,8.86-27.93,12.41-3.55,22.61-1.33,25.27,10.64,4.88,27.05-.44S321.68,434.85,323.46,425.54Z"/><g class="cls-11"><path class="cls-7" d="M271.58,447.26s3.79-42,44.48-29.89c0,0-11.83-13.06-30.36-5,0,0-15.16,5.47-14.13,17.38Z"/></g><path class="cls-8" d="M323.46,425.54s-10.2-14.63-22.62-16-27.49,8.86-27.93,12.41-3.55,22.61-1.33,25.27,10.64,4.88,27.05-.44S321.68,434.85,323.46,425.54Z"/><path class="cls-5" d="M288.87,429.53s-16.64,6.6-17.29,19.51c-.36,7.14,11.53,10.19,23.94,10.19s30.15-15.51,41.68-22.16,38.13-22.17,41.24-23.5,13.74,2.21,18.17,3.54,12.86,1.33,12.86,1.33,6.21,9.76,9.31,9.76-6.65-14.63-8-17.74-23.05-10.2-25.71-10.2-64.74,15.52-74,19.07S288.87,429.53,288.87,429.53Z"/><path class="cls-8" d="M288.87,429.53s-16.64,6.6-17.29,19.51c-.36,7.14,11.53,10.19,23.94,10.19s30.15-15.51,41.68-22.16,38.13-22.17,41.24-23.5,13.74,2.21,18.17,3.54,12.86,1.33,12.86,1.33,6.21,9.76,9.31,9.76-6.65-14.63-8-17.74-23.05-10.2-25.71-10.2-64.74,15.52-74,19.07S288.87,429.53,288.87,429.53Z"/><path class="cls-5" d="M418.55,330.91l-13.51,76,97.54.44,14.51-72.07a4.48,4.48,0,0,0-4.25-5.36l-89.75-2.71A4.49,4.49,0,0,0,418.55,330.91Z"/><g class="cls-12"><path class="cls-7" d="M405,406.92l4.09-23s61.26,13.61,104.93-33.56l-11.48,57Z"/></g><path class="cls-8" d="M418.55,330.91l-13.51,76,97.54.44,14.51-72.07a4.48,4.48,0,0,0-4.25-5.36l-89.75-2.71A4.49,4.49,0,0,0,418.55,330.91Z"/><polygon class="cls-5" points="405.04 406.92 357.54 440.51 466.17 437.4 502.58 407.36 405.04 406.92"/><polygon class="cls-8" points="405.04 406.92 357.54 440.51 466.17 437.4 502.58 407.36 405.04 406.92"/><path class="cls-5" d="M441,440.17s39-34.14,77.6-45.67,46.55-9.75,45.66,7.54-19.5,107.74-31.92,130.8S504.36,598,504.8,606s15.52,31.48,28.82,39.9,12,18.62,3.55,20.4-18.18,4.87-47-13.75-40.79-45.22-39-51.88,20.4-15.51,27.93-28.82,20-63,20.84-85.57a134.47,134.47,0,0,1,8.87-41.68s-48.77,8.87-63,17.74Z"/><g class="cls-13"><path class="cls-7" d="M499.68,490.14s8.43,44.3,28.73,54.73l-6.72,22.27L492.8,527.42S498.15,507.21,499.68,490.14Z"/><path class="cls-7" d="M535.84,649c-11.53-6.65-35-11.08-50.1-21.28s-11.09-19.06-22.17-26.16c-5.1-3.26-9.34-2.49-12.45-.71-1.54,6.91,10.46,33.23,39.05,51.7,28.82,18.62,38.57,15.52,47,13.75,5.6-1.18,8-6.09,5.15-11.72A24.48,24.48,0,0,0,535.84,649Z"/></g><path class="cls-8" d="M441,440.17s39-34.14,77.6-45.67,46.55-9.75,45.66,7.54-19.5,107.74-31.92,130.8S504.36,598,504.8,606s15.52,31.48,28.82,39.9,12,18.62,3.55,20.4-18.18,4.87-47-13.75-40.79-45.22-39-51.88,20.4-15.51,27.93-28.82,20-63,20.84-85.57a134.47,134.47,0,0,1,8.87-41.68s-48.77,8.87-63,17.74Z"/><path class="cls-1" d="M382.5,475.88s21.88-.61,41.94-7.91S408,447.3,394.05,454.6A20.78,20.78,0,0,0,382.5,475.88Z"/><path class="cls-5" d="M324.79,447.26s-14.19,8-19.07,16.85,16.11,23.65,38.28,22.76,62.81-25,62.81-25,.45,39,8,53.21,42.13,48.77,55.87,57.64,59.86,42.12,66.95,47.44,20.4,15.08,23.5,15.52,35.47-39,43-52.32,14.19-41.23,11.53-47.44-8-.89-13.3,3.55-54.1,36.8-58.53,39a49,49,0,0,1-7.54,3.1s-39.9-38.13-61.19-67.4-23-67-31-81.14-19.51-20.39-36.8-18.62S354.05,425.54,324.79,447.26Z"/><path class="cls-8" d="M324.79,447.26s-14.19,8-19.07,16.85,16.11,23.65,38.28,22.76,62.81-25,62.81-25,.45,39,8,53.21,42.13,48.77,55.87,57.64,59.86,42.12,66.95,47.44,20.4,15.08,23.5,15.52,35.47-39,43-52.32,14.19-41.23,11.53-47.44-8-.89-13.3,3.55-54.1,36.8-58.53,39a49,49,0,0,1-7.54,3.1s-39.9-38.13-61.19-67.4-23-67-31-81.14-19.51-20.39-36.8-18.62S354.05,425.54,324.79,447.26Z"/><path class="cls-5" d="M531.8,578.94c-9.37-9.14-44.55-56.34-58.43-83.47C453,455.71,450.84,442.16,442.86,428s-20-15.29-37.33-13.52-48.23,5-86.19,26.52c0,0-15.94,8.66-20.81,17.53s14.36,33.42,45.23,30.6c22.09-2,60.85-24.92,60.85-24.92s.92,36.73,8.46,50.92,42.12,48.77,55.87,57.64c8.71,5.63,30.44,21,47,33C520.07,590.84,527.4,582.7,531.8,578.94Z"/><g class="cls-14"><path class="cls-7" d="M486,584.41s25.05-.89,35.68-17.27l10.12,11.8s-16.27,17.67-15.88,26.75Z"/></g><path class="cls-8" d="M531.8,578.94c-9.37-9.14-44.55-56.34-58.43-83.47C453,455.71,450.84,442.16,442.86,428s-20-15.29-37.33-13.52-48.23,5-86.19,26.52c0,0-15.94,8.66-20.81,17.53s14.36,33.42,45.23,30.6c22.09-2,60.85-24.92,60.85-24.92s.92,36.73,8.46,50.92,42.12,48.77,55.87,57.64c8.71,5.63,30.44,21,47,33C520.07,590.84,527.4,582.7,531.8,578.94Z"/><path class="cls-5" d="M537.61,620.18c7.1,5.32,20.4,15.08,23.5,15.52s35.47-39,43-52.32,14.19-41.23,11.53-47.44-8-.89-13.3,3.55-54.1,36.8-58.53,39c-1.16.58-2.22,1.06-3.17,1.47-1.29,2.42-2.83,6.19-1.71,8.72,1.78,4,9.31,9.31,9.31,9.31l-13.41,20.13Z"/><g class="cls-15"><path class="cls-7" d="M604.12,583.38c7.54-13.3,14.19-41.23,11.53-47.44-1.54-3.6-4-3.31-6.79-1.58,1.87,8.29,0,24.27-9.17,41.49-8.17,15.35-33.43,42.5-46.16,55.72,3.46,2.28,6.34,3.95,7.58,4.13C564.21,636.15,596.58,596.68,604.12,583.38Z"/></g><path class="cls-8" d="M537.61,620.18c7.1,5.32,20.4,15.08,23.5,15.52s35.47-39,43-52.32,14.19-41.23,11.53-47.44-8-.89-13.3,3.55-54.1,36.8-58.53,39c-1.16.58-2.22,1.06-3.17,1.47-1.29,2.42-2.83,6.19-1.71,8.72,1.78,4,9.31,9.31,9.31,9.31l-13.41,20.13Z"/><path class="cls-1" d="M314.89,564.19s8.51-10.33,9.73-2.43-.61,22.49-6.69,28-9.11-3-9.11-3l3.64-4.86s3,6.08,5.47-3.65-4.86-8.51-4.86-8.51Z"/><path class="cls-5" d="M308.38,603.1c-5,3.73-21.45,3.73-26.48,0-10.66-7.89-8.83-46-8.83-46h44.1S319,595.21,308.38,603.1Z"/><g class="cls-16"><path class="cls-7" d="M273.85,580.85s16.41,21,38.22,17.51c0,0-1.62,7.63-12.62,7.33l-11-.32s-9.84.32-12.22-12.1Z"/></g><path class="cls-8" d="M308.38,603.1c-5,3.73-21.45,3.73-26.48,0-10.66-7.89-8.83-46-8.83-46h44.1S319,595.21,308.38,603.1Z"/><path class="cls-10" d="M277.86,549.91a.3.3,0,0,1-.3-.31,6.71,6.71,0,0,1,2.3-5,6,6,0,0,0,0-9.18,6.61,6.61,0,0,1,0-10,6,6,0,0,0,0-9.19,6.61,6.61,0,0,1,0-10,6.13,6.13,0,0,0,2.14-4.6.31.31,0,0,1,.31-.31.3.3,0,0,1,.3.31,6.69,6.69,0,0,1-2.3,5,6,6,0,0,0,0,9.2,6.61,6.61,0,0,1,0,10,6,6,0,0,0,0,9.19,6.6,6.6,0,0,1,0,10,6.11,6.11,0,0,0-2.14,4.59A.31.31,0,0,1,277.86,549.91Z"/><path class="cls-10" d="M293.1,549.91a.31.31,0,0,1-.31-.31c0-2,1.19-2.94,2.33-3.88s2.11-1.73,2.11-3.41-1-2.51-2.11-3.4-2.33-1.92-2.33-3.89,1.19-2.94,2.33-3.88,2.11-1.73,2.11-3.41-1-2.52-2.11-3.41-2.33-1.92-2.33-3.89,1.19-2.95,2.33-3.89,2.11-1.73,2.11-3.41a.31.31,0,1,1,.62,0c0,2-1.19,2.94-2.34,3.89s-2.11,1.73-2.11,3.41,1,2.52,2.11,3.41,2.34,1.92,2.34,3.89-1.19,2.94-2.34,3.88-2.11,1.74-2.11,3.41,1,2.52,2.11,3.41,2.34,1.92,2.34,3.88-1.19,2.94-2.34,3.89-2.11,1.73-2.11,3.4A.3.3,0,0,1,293.1,549.91Z"/><path class="cls-10" d="M309.85,549.91a.3.3,0,0,1-.3-.31,6.71,6.71,0,0,1,2.3-5,6,6,0,0,0,0-9.18,6.61,6.61,0,0,1,0-10,6,6,0,0,0,0-9.19,6.61,6.61,0,0,1,0-10,6.13,6.13,0,0,0,2.14-4.6.31.31,0,0,1,.31-.31.3.3,0,0,1,.3.31,6.69,6.69,0,0,1-2.3,5,6,6,0,0,0,0,9.2,6.61,6.61,0,0,1,0,10,6,6,0,0,0,0,9.19,6.6,6.6,0,0,1,0,10,6.11,6.11,0,0,0-2.14,4.59A.31.31,0,0,1,309.85,549.91Z"/><path class="cls-1" d="M317.17,557.08c0,1.11-9.87,2-22.05,2s-22.05-.9-22.05-2,9.87-2,22.05-2S317.17,556,317.17,557.08Z"/><path class="cls-5" d="M357.87,282.69s2.06,22.4,2.93,29.46,2.86,27.4,4.9,34.13,13.15,18.41,14.22,15.71,6.57-21,4.37-31.83-2.87-20.3-1.5-23,6.28-5.87,6.28-5.87a174.92,174.92,0,0,1-16.65-9.7C364.52,286.27,359,280.28,357.87,282.69Z"/><g class="cls-17"><path class="cls-7" d="M359.83,303.1l-1.48-15.25s18.75,13.93,29.18,14.51C387.53,302.36,372.91,311.08,359.83,303.1Z"/></g><path class="cls-8" d="M357.87,282.69s2.06,22.4,2.93,29.46,2.86,27.4,4.9,34.13,13.15,18.41,14.22,15.71,6.57-21,4.37-31.83-2.87-20.3-1.5-23,6.28-5.87,6.28-5.87a174.92,174.92,0,0,1-16.65-9.7C364.52,286.27,359,280.28,357.87,282.69Z"/><path class="cls-5" d="M357,285.88s12.77,10.7,22.58,14.56,24.84,3.65,27-1.45-3.72-45.4-8.77-56-10.46-10.78-19.37-11.59-26.76,6.46-29.9,15.07.44,20.83,3,28.06A53.48,53.48,0,0,0,357,285.88Z"/><path class="cls-8" d="M357,285.88s12.77,10.7,22.58,14.56,24.84,3.65,27-1.45-3.72-45.4-8.77-56-10.46-10.78-19.37-11.59-26.76,6.46-29.9,15.07.44,20.83,3,28.06A53.48,53.48,0,0,0,357,285.88Z"/><path class="cls-10" d="M391.37,269.4a7.2,7.2,0,0,1-5.4-2.61,11.12,11.12,0,0,1-.53-13.47,6.88,6.88,0,0,1,11.1-.44,11.12,11.12,0,0,1,.53,13.47,7.12,7.12,0,0,1-5.44,3Zm-.23-18.51h-.24a6.55,6.55,0,0,0-5,2.8,10.52,10.52,0,0,0,.5,12.69,6.26,6.26,0,0,0,10.15-.4,10.52,10.52,0,0,0-.5-12.69A6.56,6.56,0,0,0,391.14,250.89Z"/><path class="cls-10" d="M398.39,256.38h0a.3.3,0,0,1-.27-.33,1.59,1.59,0,0,1,.75-1.15,2.33,2.33,0,0,1,2.16.26.29.29,0,0,1,.14.41.3.3,0,0,1-.41.13,1.88,1.88,0,0,0-1.59-.26,1,1,0,0,0-.44.68A.31.31,0,0,1,398.39,256.38Z"/><path class="cls-10" d="M356.69,271.75a.31.31,0,0,1-.29-.19.31.31,0,0,1,.18-.4l26.63-10.48a.31.31,0,0,1,.4.17.31.31,0,0,1-.17.4L356.8,271.73A.22.22,0,0,1,356.69,271.75Z"/><path class="cls-1" d="M355.46,273.44a3.06,3.06,0,0,1,3.81.68c.46.59,1.38,1.07,3.14,1.13,5,.19,8.41-2.26,6-5.25s-6-5.94-2.32-9.95,10.9-7.37,6.87-11.84-18.93-.42-15.21-4,20.93-7.38,28.67-6.92,22.17-5.5,25.34-13.34-1.27-22.34-11.66-21.55-18.13,10-22.74,10.55-14.07-4.47-22,.09-8.19,17.31-8.9,18.88-11.43,3.92-13.32,14.8,3.09,19.57,7.53,24.41,6.43,6.7,6.43,6.7Z"/><path class="cls-10" d="M338.05,255a.21.21,0,0,1-.19-.1,8.5,8.5,0,0,1-1.19-4.86.23.23,0,0,1,.25-.21.23.23,0,0,1,.21.24,8.27,8.27,0,0,0,1.11,4.58.23.23,0,0,1-.07.32A.24.24,0,0,1,338.05,255Z"/><path class="cls-10" d="M338.64,245.89a.24.24,0,0,1-.14,0,.23.23,0,0,1,0-.32,16,16,0,0,1,6.2-4.39c6.21-2.75,15.13-4.35,23.75-5.9,8.1-1.45,15.75-2.83,20.67-5,5.71-2.57,7.5-7.32,6.73-10.9s-3.68-5.59-7.69-5.59c-2.93,0-4.9.75-5.85,2.24-1.52,2.37.05,5.86.06,5.9a.23.23,0,0,1-.11.3.23.23,0,0,1-.31-.11c-.07-.15-1.69-3.76,0-6.34,1-1.62,3.14-2.45,6.24-2.45,4.24,0,7.36,2.28,8.14,6s-1.08,8.75-7,11.41c-5,2.22-12.65,3.6-20.78,5.06-8.6,1.55-17.48,3.15-23.65,5.87a15.61,15.61,0,0,0-6,4.25A.21.21,0,0,1,338.64,245.89Z"/><path class="cls-10" d="M343.69,266.6a.23.23,0,0,1-.21-.13c-.09-.2-2.1-4.85,7.87-9.48,3.93-1.82,8.25-3.58,12.84-5.22a.23.23,0,0,1,.29.14.22.22,0,0,1-.14.29c-4.57,1.64-8.88,3.39-12.8,5.21-9.51,4.42-7.66,8.82-7.64,8.86a.24.24,0,0,1-.11.31Z"/><path class="cls-10" d="M368.5,250.77a.24.24,0,0,1-.21-.16.23.23,0,0,1,.14-.29c1.48-.49,2.34-.74,2.34-.74a.23.23,0,0,1,.29.15.23.23,0,0,1-.15.29s-.87.25-2.33.73Z"/><path class="cls-5" d="M362.76,284.12c-.16,2.07-7.73,9.56-11.36,5.46s-8.35-15.88-2.3-19.21,11.77,4.94,11.77,4.94S363.21,278.23,362.76,284.12Z"/><path class="cls-8" d="M362.76,284.12c-.16,2.07-7.73,9.56-11.36,5.46s-8.35-15.88-2.3-19.21,11.77,4.94,11.77,4.94S363.21,278.23,362.76,284.12Z"/><path class="cls-5" d="M372.71,368.8,290.35,348v24.68a5.12,5.12,0,0,1-5.12,5.12h-135a5.11,5.11,0,0,1-5.11-5.12V271.83a5.11,5.11,0,0,1,5.11-5.12H285.23a5.12,5.12,0,0,1,5.12,5.12v57.88Z"/><g class="cls-18"><rect class="cls-7" x="282.62" y="279.35" width="7.08" height="89.73"/></g><path class="cls-8" d="M372.71,368.8,290.35,348v24.68a5.12,5.12,0,0,1-5.12,5.12h-135a5.11,5.11,0,0,1-5.11-5.12V271.83a5.11,5.11,0,0,1,5.11-5.12H285.23a5.12,5.12,0,0,1,5.12,5.12v57.88Z"/><rect class="cls-7" x="164.06" y="278.46" width="34.18" height="89.73"/><path class="cls-10" d="M276.23,280.9h-67.3a.31.31,0,0,1-.31-.31.3.3,0,0,1,.31-.3h67.3a.3.3,0,0,1,.31.3A.31.31,0,0,1,276.23,280.9Z"/><path class="cls-10" d="M276.23,290.51h-67.3a.3.3,0,0,1-.31-.3.31.31,0,0,1,.31-.31h67.3a.31.31,0,0,1,.31.31A.3.3,0,0,1,276.23,290.51Z"/><path class="cls-10" d="M276.23,300.13h-67.3a.31.31,0,0,1,0-.62h67.3a.31.31,0,0,1,0,.62Z"/><path class="cls-10" d="M276.23,309.74h-67.3a.3.3,0,0,1-.31-.3.31.31,0,0,1,.31-.31h67.3a.31.31,0,0,1,.31.31A.3.3,0,0,1,276.23,309.74Z"/><path class="cls-10" d="M276.23,333.24h-67.3a.3.3,0,0,1-.31-.3.31.31,0,0,1,.31-.31h67.3a.31.31,0,0,1,.31.31A.3.3,0,0,1,276.23,333.24Z"/><path class="cls-10" d="M276.23,341.79h-67.3a.31.31,0,0,1-.31-.31.3.3,0,0,1,.31-.3h67.3a.3.3,0,0,1,.31.3A.31.31,0,0,1,276.23,341.79Z"/><path class="cls-10" d="M276.23,350.34h-67.3a.31.31,0,0,1,0-.62h67.3a.31.31,0,0,1,0,.62Z"/><path class="cls-10" d="M276.23,368.07h-67.3a.31.31,0,1,1,0-.61h67.3a.31.31,0,1,1,0,.61Z"/><path class="cls-10" d="M164.06,368.5l-.11,0a.31.31,0,0,1-.17-.4L198,278.35a.31.31,0,0,1,.4-.18.31.31,0,0,1,.17.4L164.35,368.3A.31.31,0,0,1,164.06,368.5Z"/><ellipse class="cls-1" cx="679.14" cy="603.23" rx="29.66" ry="13.31"/><ellipse class="cls-3" cx="679.14" cy="603.23" rx="29.66" ry="13.31"/><path class="cls-1" d="M644.43,406.4c3.17,1.38,10.94,1.21,11,1.21s-1.67-5.09-1.82-5.39c-1.7-3.57-7.09-9.45-11.48-8.86a5.24,5.24,0,0,0-4.2,6.56C638.61,403,641.72,405.22,644.43,406.4Z"/><path class="cls-1" d="M746.16,380c-4.4-.47-9.63,5.56-11.23,9.17-.14.31-1.75,5.44-1.67,5.44h.09c-.83.95-1.71,2-2.65,3.11-1.73,2.11-3.65,4.52-5.57,7.28a93,93,0,0,0-5.77,9.19,68.49,68.49,0,0,0-4.93,11.09.57.57,0,0,1,0,.14c0-1.29,0-4.92-.07-5.2-.5-3.92-3.79-11.19-8.14-12a5.23,5.23,0,0,0-6,4.92c-.25,3.11,2,6.23,4.2,8.2,2.49,2.21,9.38,4.36,9.92,4.53a95,95,0,0,0-2.91,12c-.42,2.37-.77,4.76-1.09,7.17,0-1.12,0-2.12-.06-2.26-.51-3.92-3.79-11.19-8.14-12a5.24,5.24,0,0,0-6,4.93c-.26,3.11,2,6.23,4.2,8.19s8.07,3.95,9.62,4.44c-.11.93-.24,1.85-.35,2.77-.53,4.44-1,8.88-1.67,13.21-.22,1.53-.5,3-.77,4.52,0-1,0-1.83,0-2-.51-3.92-3.79-11.19-8.14-12a5.24,5.24,0,0,0-6,4.93c-.26,3.11,2,6.23,4.2,8.19s7.5,3.75,9.34,4.35c-.32,1.53-.64,3.05-1,4.52-.29,1-.49,2-.83,2.95s-.63,1.95-.94,2.91c-.66,1.82-1.34,3.71-2,5.48-.47,1.23-.95,2.4-1.42,3.57.24-1.52.65-4.5.65-4.75a20.39,20.39,0,0,0-2.72-9.89A6.47,6.47,0,0,0,698,476a5.23,5.23,0,0,0-6.4-4.44c-4.28,1.14-7,8.64-7.19,12.59,0,.23.14,2.77.26,4.37-.21-.93-.41-1.83-.64-2.79-.45-1.89-1-3.76-1.49-5.78-.29-1-.59-1.94-.88-2.93s-.69-2-1-3c-.84-2.31-1.81-4.61-2.84-6.91,1.66-.4,7.51-1.89,9.86-3.69s4.83-4.74,4.81-7.86a5.24,5.24,0,0,0-5.66-5.36c-4.4.48-8.21,7.48-9,11.35,0,.24-.31,3.08-.43,4.65-.63-1.38-1.25-2.76-1.93-4.13-2-4-4.08-7.9-6.17-11.85-.64-1.21-1.26-2.42-1.89-3.63.59-.13,7.59-1.76,10.22-3.78,2.34-1.8,4.83-4.73,4.8-7.86a5.23,5.23,0,0,0-5.65-5.36c-4.4.48-8.22,7.49-9,11.36-.06.29-.43,4.38-.48,5.42-1.38-2.67-2.74-5.34-4-8a93.4,93.4,0,0,1-4.32-11.15c.28-.06,7.59-1.72,10.29-3.79,2.34-1.8,4.82-4.74,4.8-7.86a5.23,5.23,0,0,0-5.65-5.36c-4.4.48-8.22,7.48-9,11.35-.06.31-.46,4.71-.47,5.51-.07-.22-.16-.44-.23-.67a67.57,67.57,0,0,1-2.24-11.77c-.24-2.2-.36-4.31-.42-6.37,1.39-.17,7.76-1,10.39-2.61s5.31-4.18,5.64-7.29a5.25,5.25,0,0,0-5-5.95c-4.42,0-9,6.54-10.2,10.3-.07.2-.51,2.36-.81,3.93,0-.93-.05-1.89-.05-2.78,0-3.35.22-6.41.43-9.12.13-1.54.28-2.94.43-4.23,1.29-.89,6.4-4.5,8-7.08s2.79-6.15,1.64-9.06a5.24,5.24,0,0,0-7.21-3c-3.93,2-5,9.94-4.31,13.84.06.34,1.54,5.5,1.61,5.46l.08-.06c-.18,1.25-.35,2.59-.51,4.06-.26,2.71-.54,5.78-.62,9.14a91.73,91.73,0,0,0,.26,10.85,67.42,67.42,0,0,0,2,12s0,.09,0,.14c-.7-1.1-2.74-4.09-2.93-4.3-2.58-3-9.33-7.24-13.41-5.51a5.24,5.24,0,0,0-2.32,7.44c1.51,2.73,5.11,4.09,8,4.51,3.29.48,10.22-1.53,10.77-1.69a94,94,0,0,0,4.21,11.63c.95,2.21,2,4.4,3,6.59-.63-.93-1.2-1.75-1.3-1.86-2.58-3-9.33-7.24-13.41-5.51a5.24,5.24,0,0,0-2.32,7.44c1.51,2.74,5.11,4.09,8,4.51s8.91-1.16,10.47-1.6c.42.83.82,1.67,1.24,2.5,2,4,4,8,5.89,11.94.66,1.4,1.25,2.8,1.85,4.2-.56-.83-1-1.51-1.12-1.61-2.59-3-9.34-7.24-13.41-5.51a5.24,5.24,0,0,0-2.32,7.44c1.5,2.73,5.11,4.09,8,4.51s8.32-1,10.19-1.53c.57,1.45,1.14,2.91,1.63,4.34.32,1,.68,1.91.94,2.91s.55,2,.82,3c.46,1.89.94,3.84,1.33,5.69.29,1.29.54,2.52.79,3.76-.64-1.39-1.94-4.1-2.08-4.32-2.1-3.34-8.13-8.57-12.42-7.48a5.24,5.24,0,0,0-3.42,7c1.08,2.94,4.43,4.82,7.25,5.68,3.11.95,10,.09,10.85,0,.41,2.06.79,4.06,1.12,6,1.16,6.57,1.87,12.08,2.32,15.94.08.69.14,1.3.21,1.88H673l4.28,83.54a12,12,0,0,0,11.93,11.33h0a11.93,11.93,0,0,0,11.92-11.33l4.29-83.54H693l.28-.57c1.7-3.55,4.06-8.64,6.61-14.88.81-2,1.63-4.09,2.46-6.27.83.17,7.64,1.56,10.82.84,2.88-.65,6.36-2.28,7.65-5.13a5.23,5.23,0,0,0-2.89-7.23c-4.19-1.41-10.59,3.35-12.94,6.53-.14.19-1.41,2.39-2.19,3.79.33-.89.66-1.75,1-2.68.67-1.82,1.28-3.66,2-5.64.29-1,.58-1.94.87-2.93s.52-2,.79-3.06c.57-2.4,1-4.85,1.44-7.34,1.6.58,7.31,2.57,10.27,2.36s6.63-1.29,8.34-3.9a5.24,5.24,0,0,0-1.76-7.59c-3.93-2-11,1.71-13.78,4.49-.18.18-2,2.4-2.92,3.64.24-1.49.48-3,.67-4.5.54-4.39,1-8.84,1.39-13.29.13-1.36.28-2.72.42-4.07.57.21,7.3,2.72,10.61,2.48,2.95-.2,6.64-1.28,8.34-3.9a5.23,5.23,0,0,0-1.76-7.59c-3.93-2-11,1.71-13.78,4.5-.21.21-2.77,3.41-3.38,4.26.31-3,.65-6,1.11-8.88a93.42,93.42,0,0,1,2.55-11.69c.27.1,7.28,2.75,10.67,2.51,2.95-.21,6.64-1.29,8.34-3.9a5.23,5.23,0,0,0-1.75-7.59c-3.94-2-11,1.71-13.79,4.49-.22.22-3,3.67-3.43,4.33.07-.22.11-.46.18-.68a66.85,66.85,0,0,1,4.63-11c1-2,2.08-3.8,3.16-5.55,1.26.63,7,3.43,10.1,3.55s6.74-.55,8.72-3a5.24,5.24,0,0,0-.91-7.74c-3.69-2.45-11.1.49-14.19,3-.17.13-1.73,1.68-2.85,2.83.5-.79,1-1.61,1.5-2.35,1.85-2.78,3.72-5.22,5.39-7.37,1-1.21,1.85-2.29,2.69-3.29,1.56,0,7.82-.22,10.56-1.5s5.72-3.6,6.37-6.65A5.24,5.24,0,0,0,746.16,380ZM697.45,498.15c-2.66,6.12-5.1,11.12-6.86,14.58-.35.7-.67,1.32-1,1.89h-.29l-.3-2.25c-.54-3.9-1.38-9.45-2.69-16.06-.41-2.08-.89-4.31-1.41-6.59a55.76,55.76,0,0,0,6.05-2.84c2.27,2.45,8.07,5.32,8.82,5.68C699,494.51,698.22,496.39,697.45,498.15Z"/><path class="cls-1" d="M723,408.11c.07,0,1.41-5.17,1.46-5.5.54-3.92-.7-11.8-4.69-13.72a5.23,5.23,0,0,0-7.12,3.15c-1.07,2.94.28,6.54,1.89,9C716.4,404,723,408.1,723,408.11Z"/><ellipse class="cls-5" cx="404.71" cy="257.73" rx="4.07" ry="9.27"/><path class="cls-10" d="M405.05,267.32c-1.18,0-2.3-1-3.17-2.77a19,19,0,0,1-.52-13.33c.74-1.9,1.82-3,3-3s2.36.94,3.25,2.77a19.05,19.05,0,0,1,.53,13.33c-.75,1.9-1.82,3-3,3Zm-.58-18.5h-.06c-.94,0-1.84,1-2.48,2.62a18.36,18.36,0,0,0,.5,12.84c.77,1.58,1.75,2.46,2.68,2.42s1.85-1,2.48-2.62a16.3,16.3,0,0,0,.91-6.47h0a16.49,16.49,0,0,0-1.41-6.37C406.34,249.7,405.39,248.82,404.47,248.82Z"/></svg>