 <!DOCTYPE svg PUBLIC "-//W3C//DTD SVG 1.1//EN" "http://www.w3.org/Graphics/SVG/1.1/DTD/svg11.dtd">
<svg xmlns="http://www.w3.org/2000/svg" width="865.76" height="682.89" viewBox="0 0 865.76 682.89">
<defs>
<style xmlns="http://www.w3.org/1999/xhtml">*, ::after, ::before { box-sizing: border-box; }
img, svg { vertical-align: middle; }
</style>
<style xmlns="http://www.w3.org/1999/xhtml">*, body, html { -webkit-font-smoothing: antialiased; }
img, svg { max-width: 100%; }
</style>
</defs>
<path d="M813.55,142.2s-38.17-88.12-170-109.45a359,359,0,0,0-41-4.18,448.18,448.18,0,0,0-58,1.26q-11.87,1-24.37,2.62s-26.68,5-57.76,14c-22.29,6.43-46.83,15-65.4,25.16,0,0-34.25,14.55-67.61,10-21.72-2.94-43.69-3.66-65.45-1-27,3.34-62.55,10-98.78,23.14C43.17,148.12-20.63,280.66,19.2,403.06c.91,2.77,1.87,5.55,2.88,8.32,3.28,9,7,18.08,11.36,27.19C69.73,515.21,145.17,591,301.87,567.26c0,0,68.57-5.93,114.51.65,0,0,278.65,45.6,401.51-117.73C817.89,450.18,911.84,330,813.55,142.2Z" fill="#0071f2" data-primary="true"/>
<path d="M817.89,450.18c-.73,1-1.47,1.93-2.2,2.88q-6.45,8.32-13.43,15.91c-31.86,34.73-71.44,58.34-113,74.22Q679.19,547,669,550.28c-99.18,31.76-204.26,23.5-239.94,19.33-8.16-1-12.69-1.7-12.69-1.7-2.45-.35-5-.67-7.55-1-45.53-5-107,.31-107,.31-51,7.71-93.41,4.88-128.64-5.07a220.25,220.25,0,0,1-23.13-7.94C104.2,535.54,72.31,503.79,50.16,469q-5-7.87-9.36-15.91-3.93-7.21-7.36-14.49c-4.32-9.1-8.08-18.22-11.37-27.18-1-2.78-1.95-5.56-2.87-8.33a239,239,0,0,1,5.05-162.47q4.09-10.34,9.13-20.24A238.5,238.5,0,0,1,150.1,109.82q7.35-3.25,15-6c2.71-1,5.4-1.93,8.1-2.84,33.38-11.3,65.67-17.21,90.68-20.3,21.76-2.69,43.72-2,65.45,1,33.37,4.51,67.61-10,67.61-10,3.73-2.06,7.71-4,11.86-6,6.41-3,13.24-5.74,20.24-8.34,11-4.09,22.42-7.72,33.31-10.87,31.06-9,57.75-14,57.75-14q12.51-1.62,24.37-2.61a448.14,448.14,0,0,1,58-1.26,360.85,360.85,0,0,1,41,4.18Q656.9,34.91,669,38q10.59,2.63,20.24,5.8C784.44,75,813.55,142.2,813.55,142.2a417.83,417.83,0,0,1,31.76,78.15q3,10.32,5.19,20.24C879.84,370.94,817.89,450.18,817.89,450.18Z" fill="#fff" opacity="0.7" style="isolation:isolate"/>
<g opacity="0.7" style="isolation:isolate">
<path d="M850.5,240.59H24.25q4.09-10.34,9.13-20.24H845.31Q848.28,230.67,850.5,240.59Z" fill="#fff"/>
<path d="M815.69,453.06q-6.45,8.32-13.43,15.91H50.16q-5-7.87-9.36-15.91Z" fill="#fff"/>
<path d="M173.23,100.94V562.18a218,218,0,0,1-23.13-7.93V109.82q7.35-3.25,15-6C167.84,102.8,170.53,101.85,173.23,100.94Z" fill="#fff"/>
<path d="M429.07,57.28V569.61c-8.16-1-12.69-1.7-12.69-1.7-2.45-.35-5-.67-7.55-1V65.62C415.24,62.67,422.07,59.88,429.07,57.28Z" fill="#fff"/>
<path d="M689.25,43.76V543.19Q679.19,547,669,550.28V38Q679.6,40.59,689.25,43.76Z" fill="#fff"/>
</g>
<path d="M544.81,29.15,475.69,220.93H429.37V143.8l33.31-98.07c31.07-9,57.76-14,57.76-14Q532.95,30.15,544.81,29.15Z" fill="#fff" opacity="0.5" style="isolation:isolate"/>
<path d="M643.53,32.75c-25.18,67.66-69.8,187.6-69.5,187.6H532.72L602.55,28.57A359,359,0,0,1,643.53,32.75Z" fill="#fff" opacity="0.5" style="isolation:isolate"/>
<path d="M108.67,240.59l-75.23,198c-4.32-9.11-8.08-18.23-11.36-27.19-1-2.77-2-5.55-2.88-8.32L80.65,240.59Z" fill="#fff" opacity="0.5" style="isolation:isolate"/>
<polygon points="129.9 240.59 52.63 453.07 67.91 453.07 144.34 240.59 129.9 240.59" fill="#fff" opacity="0.5" style="isolation:isolate"/>
<circle cx="200.26" cy="263.74" r="183.83" fill="#2f2e41" data-secondary="true"/>
<g opacity="0.3">
<path d="M179.37,83a1.31,1.31,0,0,0-.28,0,8.27,8.27,0,0,0-1.22.13l-1.4.51s-.15,0-.12.11.4.38,2.21-.12C179.52,83.35,179.51,83.12,179.37,83Z" fill="#fff"/>
<path d="M176.52,81.57a4,4,0,0,0,.82-.22h-.11a8,8,0,0,0-1,.1c-.11,0-.27.11-.25.15A1.27,1.27,0,0,0,176.52,81.57Z" fill="#fff"/>
<path d="M182.27,80.89a3.62,3.62,0,0,0,.93,0,7,7,0,0,0,1.21-.14s.82-.13,1-.17,0,0-.16,0a45.31,45.31,0,0,0-5.71.45H181A6.12,6.12,0,0,1,182.27,80.89Z" fill="#fff"/>
<path d="M179,81.49h0a5.51,5.51,0,0,1,1.21-.11,4.48,4.48,0,0,0,1.19-.1h-.06a20.4,20.4,0,0,0-6.31.79,25.86,25.86,0,0,0,3.93-.35A.45.45,0,0,1,179,81.49Z" fill="#fff"/>
<path d="M181.93,82.23l.21-.07.36-.19.67-.26c.13,0,.14,0,.14-.08s0,0-.08,0a6.38,6.38,0,0,0-2,.43h0c.08,0,.08,0-.29.33A7.85,7.85,0,0,0,181.93,82.23Z" fill="#fff"/>
<path d="M173.08,84.93a.61.61,0,0,0-.19,0,2.44,2.44,0,0,0-.54,0,9.13,9.13,0,0,0-1.85.47h0a8.8,8.8,0,0,0,2.23-.22C173,85.09,173.26,85,173.08,84.93Z" fill="#fff"/>
<path d="M173.33,88.26c0-.07-.1-.14-.49-.21h-.22l-2-.28a12.1,12.1,0,0,0-4.18.56h0s.44.09.57.3.1.41,0,.47a16.07,16.07,0,0,1-2.71.85H164c0-.51.67-.47.83-.87a5.11,5.11,0,0,0-2.43.57s-.08.1-.07.14v1.15a1.7,1.7,0,0,1,0,.45c-.09.26-.34.44-.4.74v.15c.29.64,5.21-.32,6.71-1.06.34-.15,1.55-1.39,1.07-1.47a8.18,8.18,0,0,0-1.57-.13c1.17-.31,2.4-.38,3.58-.68C172.26,88.74,172.8,88.51,173.33,88.26Z" fill="#fff"/>
<path d="M161.67,84c2.05-.17,4-.9,6-1.15a12.65,12.65,0,0,0-2.26.56l7.15-1.29a1.62,1.62,0,0,0,.61-.24.49.49,0,0,0-.24,0,119.75,119.75,0,0,0-13.81,2.53c.93.21,1.75-.32,2.64-.43Z" fill="#fff"/>
<path d="M157.27,96.54h-.09a1.33,1.33,0,0,0-.48.1,26.48,26.48,0,0,1-2.87,1.16c-1.7.36-2.22.47-2.36.65h0a2.32,2.32,0,0,0,.58.13c.58.06.64.09.72.2s0,.48.21.64a2.58,2.58,0,0,0,.86.21,7,7,0,0,0,3.94-.25c.39-.22.16-1.7.16-1.71A2.12,2.12,0,0,0,157.27,96.54Z" fill="#fff"/>
<path d="M164.25,87.53a2.36,2.36,0,0,0-.45-.08,5.47,5.47,0,0,0-2.79.47h0a.61.61,0,0,1,.39.13c.12.12,0,.11-.22.33s-.47.49-.18.49a10.68,10.68,0,0,0,2.35-.73C164.26,87.84,164.5,87.64,164.25,87.53Z" fill="#fff"/>
<path d="M290.53,126c-.62-1.89-2.09-3.38-2.66-5.31a19.06,19.06,0,0,1,0-3.7c-.14-1.39.24-1.68,1.19-2.14,1.29-.65.78-1.27-.8-3.14-5.14-6.1-5.15-6.21-5.4-7.27l.19-.22h.38c-1.24-2.51-5.57-2.4-5.28-6.23l-.53-.55.32-.49h.3c-.81-.42-3.21-1.39-3.23-1.39a21.11,21.11,0,0,0-4.18-1.1c-1.51-.25-2.38-1.6-3.74-2.13-1.88-.74-6.1-2.23-7.79-2.79-3.17-.92-3.17-.92-3.6-.81h0a29.3,29.3,0,0,0-5.15-1.25h0a14.34,14.34,0,0,1,2.46,1.2c-.18,0-.18,0-2.35-.85a21.82,21.82,0,0,0-2.34-.73,52.85,52.85,0,0,0-14.83-1.32c.23.24.23.24,1.39.64-1.24.75-3.72.57-5,.47a67.09,67.09,0,0,0-7.23-.11c-2.49,1.69,1.5,3.92,1.56,3.93,10.85,2.94,10.94,3.09,11.46,4,0,0,3,7.27.39,9.68-1.06,1-1.07,1-1.1,1.19-.11.69.64,1,.67,1.62,0,1-.63,1.77-.45,2.79,1.51.16,3.14-.9,4.54.43,2.4,2.25.28,4.08.25,4.09-1.64,1-3.74.17-5.33,1.39a7.23,7.23,0,0,0-2.31,4.32c0,.73,3.31,17.62,6.81,20.35,9.23,5.37,9.52,5.21,10.4,4.72,1.46-.81,6.42-9.22,6.48-9.3.72-1.24.51-2.9,1.72-3.92.64-.53.69-.53,3.43-.41,8.63.39,8.63.39,9.34-1s1.16-2.26,2.79-2.48c4-.53,8,.6,12,0a35.51,35.51,0,0,0,4.93-.61S291,127.32,290.53,126Z" fill="#fff"/>
<path d="M188.58,107.22c.78-.93.78-1.49,0-1.63,0,0-2.48-.19-3.26.66-.43.5,0,2.32.26,2.7C186.21,109.86,188.49,107.25,188.58,107.22Z" fill="#fff"/>
<path d="M215.75,81H214c1.75.2,7.48.6,8.36.66a93.37,93.37,0,0,1-10.17-.53,2.53,2.53,0,0,0-1.39.09,3.37,3.37,0,0,1-1.4,1.4c-1.39-1-6.28-.1-6.49,0,.31.28.76.36,1,.69l-.11.16a9.41,9.41,0,0,0,2.7.12c-3.55.59-3.76.07-3.9-.26-2.28-.74-2.71.07-2.91.47-1.59.39-3.29-.11-4.82.61v.2a11.9,11.9,0,0,0,3.12.61c1.87.28,3.83-.42,5.57.67-.26.29-.26.29-.76.46,1.18.7,5.94.15,5.93-1l-.42-.26a15.83,15.83,0,0,1,4.4-1c3.94.4,5.7-.52,5.84-.81a1,1,0,0,0-.17-.12c3.68.29,5.35.43,6.64.11a2.13,2.13,0,0,0-.89-.22l8.89.33c-2.06-.42-2.17-.45-2.94-.66,2.06.17,4.09.56,6.15.74-1.82-.62-5-1.39-5-1.39s-7.83-1.39-9.63-1.28a.93.93,0,0,0,.21.33,2.72,2.72,0,0,1-1.39-.39c-.5-.25-7.33-.93-8.24-.37C212.7,80.67,212.77,80.72,215.75,81Z" fill="#fff"/>
<path d="M181.88,83.3a7.31,7.31,0,0,1-.62.48,5.32,5.32,0,0,1-1.39.53l.49-.54a1.07,1.07,0,0,0,.19-.28,2,2,0,0,0-1.6.24h.21a.09.09,0,0,1,0,.07,16.31,16.31,0,0,1-3,.31c.11.11.29,0,.4.13-.18.19-.18.19-.2.23s.14.09,2.79.15a11.27,11.27,0,0,0-3.69,1h0s3.1,0,3.52-.11a15.24,15.24,0,0,0,2.31-.87.3.3,0,0,1-.09.24h0a33.27,33.27,0,0,1,3.35-1.32c.52-.2.56-.21.66-.3a.4.4,0,0,0-.28-.08s-2.69-.14-3-.08Z" fill="#fff"/>
<path d="M201.58,112c1.17.31,2.57,4.31,2.58,4.36.32,1,.65,2,1.25,2.08,1.66.26,6.08-4.88,6.12-4.93a1.88,1.88,0,0,0,.32-.59l-10.48-6.58a16.06,16.06,0,0,1,4-.52c1.39-.11,2.07-.17,2.14-.5.2-.85-2.47-6-4.3-7-.82-.45-1.82-.5-2.51-1.2s-.12-2.16-1.31-2.68a19.28,19.28,0,0,0-5.77-.37,8.66,8.66,0,0,1-2.3-.08,9.75,9.75,0,0,1,.76-3.29,11.51,11.51,0,0,0-3.71-1.06c-3.71-.4-16.94,4.58-15.48,6.56s8.47,2.94,9.5,2.79c.07-.59.11-1,3.08-.3,2.52.59,3.08.13,3.47-.18a23,23,0,0,1,1.56,2.44c.53,1.18.44,2.52.9,3.72.57,1.53,2.87,2.18,2.15,4.36,0,0-2.22,4.7-9.66,4.36-2.22-.12-4.38-1-6.65-.65a1.9,1.9,0,0,0-1.4,1.87c.27.46,1.4,1,5.37,1.07,3,0,3,0,7.1,3.83-.54.28-.54.28-2.79.32.73,1.31,8.36,5.92,10.37,5.57,0-.27,0-.27-.34-.62a37.65,37.65,0,0,1-2.64-4.88,10.1,10.1,0,0,1,4.76,3.67c.23.32.42.55.58.57,1,0,3.76-2.89,3.29-3.92-1-2.21-4.07-3-4.07-6C197.52,111.88,201.56,112,201.58,112Z" fill="#fff"/>
<path d="M170.07,82.71a2.86,2.86,0,0,0,1.39-.11,1.74,1.74,0,0,0,.39-.11h0A8.35,8.35,0,0,0,170.07,82.71Z" fill="#fff"/>
<path d="M229.45,114l1.85.26a1.22,1.22,0,0,0,.77-.33.53.53,0,0,0,0-.49c0-.32-.34-.51-.45-.8a.58.58,0,0,1,0-.41m0-.07a1.35,1.35,0,0,0-.8-.37c-.84-.12-3.53.4-2.57,1.57a1.81,1.81,0,0,0,1.2.64Z" fill="#fff"/>
<path d="M198.84,93.28h0A8.36,8.36,0,0,0,194.66,91c-1.66-.3-1.54.93-1.28,1.39C194.31,93.76,198.78,93.28,198.84,93.28Z" fill="#fff"/>
<path d="M189.48,80.83a12.61,12.61,0,0,0-1.73.14H188a4.94,4.94,0,0,1,1.61.35c-.17.26-.55.11-.71.38,0,.16,1.56.09,1.67.08a8,8,0,0,0,2.64-1.14c-.18-.14-.4,0-.6-.1.3-.28.71-.1,1-.31h-.14a28.41,28.41,0,0,0-3.91.24c.26.2.63.07.9.2C190.5,80.78,190.3,80.82,189.48,80.83Z" fill="#fff"/>
<path d="M180.33,85.75c-.42.11-.56.15-.15.65a2.77,2.77,0,0,0,2.78.09c.7-.27,2.2-1,1.72-1.24a.45.45,0,0,0-.23,0A24.93,24.93,0,0,0,180.33,85.75Z" fill="#fff"/>
<path d="M198.14,82.85h-2.57c-.78,0-1.79-.17-2.69-.19a4.66,4.66,0,0,0-1.18,0,24.53,24.53,0,0,0,4.09.65,5.15,5.15,0,0,0,2.1-.26Z" fill="#fff"/>
<path d="M191.85,82h0c.28,0,3.05-.12,3.86-.2.36,0,.44-.07.5-.19s-.21-.17-.16-.31.09-.13.07-.21h0A.16.16,0,0,0,196,81a.49.49,0,0,0-.33-.09,2.36,2.36,0,0,0-.45.08c-.67.18-1.23.67-1.95.68S192.14,81.7,191.85,82Z" fill="#fff"/>
<path d="M198.76,80.36a9.09,9.09,0,0,0,2.07-.31h-2.7c-.59,0-.54.35-.54.35A7.89,7.89,0,0,0,198.76,80.36Z" fill="#fff"/>
<path d="M202.73,80.86c.82,0,1.07,0,1.28.24v.08a5.47,5.47,0,0,1-1.4,0,20.47,20.47,0,0,0-2.93,0c-.55.13-.77.64-.62.79s0,0,1.4.13c.54,0,1,.33,1.61.33,1.39,0,2.7-.44,4.07-.55.85-.07,1.7.12,2.55,0h.18l-.52-.37v-.06h.45c1.17-.12,1.2-.16,1.25-.26s-.24-.07-.31-.19c.24-.15.65-.08.7-.49.31-.18.68-.15,1-.35l-.23-.08a59.88,59.88,0,0,0-7,.11,2,2,0,0,0,.72.14,5.23,5.23,0,0,1-1.85,0,4.48,4.48,0,0,0-2.42.36A9.36,9.36,0,0,0,202.73,80.86Z" fill="#fff"/>
<path d="M184.59,87.34c.11,0,13,3.12,17.4,1,1.19-.57-1-1.46-1-1.47a50.51,50.51,0,0,0-8.69-.41c-1.18,0-1.66-1.18-1.39-1.39a1.54,1.54,0,0,1,.74,0c2.21.14,1.39-.85,1.22-.93a8.41,8.41,0,0,0-1.58-.18c-.62-.13-1.1-.55-1.72-.7a9.39,9.39,0,0,0-1.2-.2,4,4,0,0,0-1.76.94,2.11,2.11,0,0,0,.83.1c.61,0,1.48,0,1.6.16s-1.19,1.23-1.26,1.27a21.7,21.7,0,0,0-2.51.7C183.81,87.14,184.24,87.22,184.59,87.34Z" fill="#fff"/>
<path d="M163.86,83.76h0c-.46.07-4.28.79-4.52.94C159.52,84.76,159.69,84.82,163.86,83.76Z" fill="#fff"/>
<path d="M141.31,90.8v.1a.49.49,0,0,0,.24,0c1.26-.33,2.43-.9,3.69-1.25,2.27-.63,4.61-1,6.86-1.67.53-.17.53-.17,1.39-1v-.12a6.89,6.89,0,0,0-2,.29c.6-.24.6-.24.79-.53h-.25c-2.57.15-2.57.15-15.32,4.82a7.44,7.44,0,0,0-3.23,2l.09.07C136.36,93.1,138.75,91.65,141.31,90.8Z" fill="#fff"/>
<path d="M158.48,86.29a6.73,6.73,0,0,0,2.1-.21c3.67-.64,5.46-.76,5.48-.76,1.11,0,2.24,0,3.35-.1.89-.13,4.42-1.11,4.45-1.11.68-.2.73-.26.83-.34a2,2,0,0,0-.93-.07c-1,.18-2,.6-3.07.8,1.4-.69,3-1.11,4.42-1.83H175s-4.17.59-4.5,1-1,1.07-3.92.75v-.09l.29-.15h.1c.5-.26,1.84,0,1.53-.82-.08,0-8.55,1-9,1.92a39.11,39.11,0,0,0,4.18-.67,5.79,5.79,0,0,1-1.89.64c.08,0,.11,0,1.11-.12a10.55,10.55,0,0,1,1.77-.13,48.11,48.11,0,0,1-5.72.85C158.33,85.86,158.22,86.17,158.48,86.29Z" fill="#fff"/>
<path d="M132,97.15c.49.31,1.05,0,1.55.2v.11c-.45.54-1.17.7-1.67,1.16a30.73,30.73,0,0,0,9.75-1.49,7.14,7.14,0,0,1,2.17-.59l.08.11c-.39.35-.39.35-.44.43a10.32,10.32,0,0,0,1.88,1.4c1.93,0,1.93,0,4.29-1.28h.11c-.17-.1-.17-.1-2.08.21a4.34,4.34,0,0,1,3.67-.74c.4.16.5.18.69.11s1.17-.49,1.28-1.27c-.73-.83-.75-2-.07-2.39s6-3.67,6-4.07a5.58,5.58,0,0,0-.47-.38.61.61,0,0,1,0-.19h0c-2.25.85-4.18,2.48-6.59,2.92.1-.89,1.06-.86,1.52-1.39l-.13-.15a18.7,18.7,0,0,1-2.69.26c.38-.29.87-.37,1.22-.72a.2.2,0,0,1,0-.11c-1.26,0-2.41.53-3.64.55a27.46,27.46,0,0,1,3.3-1.28c-.71-.17-11.63,2.47-11.78,3.61l.28.31c-.28.22-.29.23-1.58.5-2.14.46-2.29.64-2.36.89a.51.51,0,0,0,.3.15c1.05.15,2.09-.22,3.15-.1.75.1,1.39.64,2.09.74a12.53,12.53,0,0,1-4.18.41C132.45,94.76,131.28,96.67,132,97.15Z" fill="#fff"/>
<path d="M168.4,122.64c.29-.35-.12-.46-.45-.53a4.39,4.39,0,0,0-1.94.08,1.49,1.49,0,0,0-.71,1.55C165.65,124.34,168,123.11,168.4,122.64Z" fill="#fff"/>
<path d="M168.65,115.83a.76.76,0,0,0,.4-.15,1.09,1.09,0,0,0,.1-1.06c-.2-.39-.53-.68-.71-1.07a17.68,17.68,0,0,0-.73-2.12c0-.1-.15-.21-.22-.31-.45-.54-1.16-.72-1.59-1.26s-.12-.84-.4-1.19a.25.25,0,0,0-.17,0,18.17,18.17,0,0,0-3.28,2c-.34.23-.77.57-1.09.82l-3,2.34c1.08.48,1.08.48,1,1.08s-.14.77,0,.78a4.38,4.38,0,0,0,1.39-.41,8.72,8.72,0,0,1,4.88-.74C166.38,114.79,167.32,115.83,168.65,115.83Z" fill="#fff"/>
<path d="M163.42,119.59a12.34,12.34,0,0,0-3.74,0c-.62.21-1.06,1.24-.85,1.53.39.56,4.18-.19,5-.86C164.15,120,164.3,119.74,163.42,119.59Z" fill="#fff"/>
<path d="M97.77,258.2c-1.08,0-1.07,1.74-.55,2.15s2.64,1.61,3,.57C100.36,260.29,99.11,258.44,97.77,258.2Z" fill="#fff"/>
<path d="M303.9,148.21A.49.49,0,0,0,304,148a3.59,3.59,0,0,0-1-1.86l-.35-.26c-.95-.66-2.16-.8-3-1.58-.62-.54-.9-1.46-1.79-1.72-1.1-.11-2.19,0-3.28-.14a26.63,26.63,0,0,0-3.13-.54c-.68,0-.52.9-1.09,1s-1-.64-1.58-.51l-.31.07c-.5.79-.08,2.06-1.28,2.49a14.36,14.36,0,0,1-1.94-3.62c-.28-1.85-3.42-4.05-4.68-3.61,0,.88,1,1.05,1.26,1.78-.69,1.05-2,.39-2.79,1,.24.34,1.39.57,2.05.66,1.15.2,4.18,2.58,1.7,3.49.46,1.29,1.85.82,2.68,1.39s.76,1,.46,1.82c.16.27.32.42,2.32.89a15.79,15.79,0,0,1,2.14.6c.89.38,1.6,1.09,2.51,1.4a2.39,2.39,0,0,0,.37.15,17.71,17.71,0,0,0,3.54.53c2.51.25,7-1.07,7-1.87,0-.53-.23-1-.2-1.52A1.4,1.4,0,0,1,303.9,148.21Z" fill="#fff"/>
<path d="M102.34,255.18c.54,1.67,6.69,4.35,7.06,3.66.2-.39-4.62-12.53-4.69-12.63A10.23,10.23,0,0,0,97.19,242a12.65,12.65,0,0,0-5.38,1.13c.23.43,2.31.84,4.28.48,2.78-.52,4.11.79,4.18,1.25-.21.19-.66.4-1.26-.28h-.09c-.31,1.16,1.39,2.28,2.53,3,2.09,1.39,2.06,1.92,2,3.52a4.91,4.91,0,0,0,.25,2.08,2.39,2.39,0,0,1,.25,1.18C103.71,255.25,102.84,254.9,102.34,255.18Z" fill="#fff"/>
<path d="M109.67,266.46c.53.59-.42,1.62.48,2,1.55.72,2.13-1.52,3.57-1.17a3.38,3.38,0,0,1,.75.34A63,63,0,0,0,121,270.6c.21,0,.36,0,.45-.14.29-.71-.1-1.52.36-2.19,1.39-2.1-10-7.25-10.79-7.39a.53.53,0,0,0-.35,0c-.07.18-.07.18,0,.4a3.54,3.54,0,0,1-.17,3.93c-.29.11-1.17-.36-2.4-1-2.24-1.23-2.49-1.23-2.64-1.24s0,.12,0,.17C106.73,264.51,108.5,265.11,109.67,266.46Z" fill="#fff"/>
<path d="M181.7,164.91c-1.15,0,.76,2,1.15,2.34,2.54,2.49,4.18,1.32,4.18,1.31C187.67,167.92,182.87,165.13,181.7,164.91Z" fill="#fff"/>
<path d="M78.26,125.63l.1-.09h0Z" fill="#fff"/>
<path d="M54.5,151.69c-15,18.26-25.26,44.57-25.26,44.57v5.08c.42.24.42.24,2.55,18.38L30,219.15c.23,2.23,3.88,13.21,3.91,13.29.92-.67,1.87-1.39.34-6.8-.7-2.48-1.49-5.26-.35-17,2.48,3.61,2.27,5.33,2,7.51a14.78,14.78,0,0,0-.11,4.55c.6,2.66,1.58,5.2,2.3,7.83.9,3.41,3.58,6.07,4.09,9.64.42,2.88-1.39,5.91.64,8.67a6.67,6.67,0,0,0,1.12,1.07A24.8,24.8,0,0,0,46,249.76c2.45,1.65,5.07,3,7.53,4.64s6.05,1.1,8.22,3.59c5,5.73,5,5.73,7.07,6.73l1,.52c9.29,4.8,9.08,18.31,19.91,21.68,7.55-6.27,7.13,4.29,6.62,9.12-.17,1.52-.17,1.52-4.92,6.46,0,.09-6.36,9.75-6,12.13.07.39.15.91.25,1.29,1.67,6.44,11.07,25.73,11.14,25.89,2.45,4.27,7,6.62,9.75,10.59,2.11,3,2.79,7.75,2,13.32,0,.25-3.21,26.95,1.64,43.85,6.17,21.42,18.62,23.68,18.75,23.68-9.31-9.82-9.31-9.82-6.55-14.26-1-2.23-1-2.23-1.09-11.48.52,0,.52,0,2.64.84,0-.24,0-.24-1.27-4.72,2.62-1.08,2.62-1.08,3-2.54l.54-.19c3.17,2.41,5.42-.13,5-1.79l-.53-1.82c8.09,2.6,18.32-15.58,18.41-15.78,2-2.06,5.57-2.46,7-2.55,3.26-.18,4.47-3.51,7.13-4.62a2.88,2.88,0,0,1,2.66.08c1.11.57,1.19.61,1.74-.44,1.18-2.32,1.82-4.85,2.78-7.23.55-1.39.23-3,1.6-4,1.59-1.17,2.18-1.6,1.8-2.88a2.47,2.47,0,0,1-.1-.81c7.57-.08,12.54-6.52,12.54-6.57a1,1,0,0,0,.08-.28c.14-.85-.31-1.67-.18-2.54.2-1.28,2.4-2.37,1.14-3.67-.89-.94-2.24-.51-3.24-1.12-3.23-2-4.46-5.83-7.44-8-4.46-3.3-9.29-6-13.93-9-2.56-2.12-1.63-5.57-2.78-8.19-2.38-3.09-3.54-7.17-6.12-10.14-3.38-3.88-8.85-4.9-12.15-8.9-2.59-3.17-3.62-7.35-6.58-10.3a6.76,6.76,0,0,0-1.61-1.2c-16.25-8.62-29.1-15.42-35.4-2.35-3.82-5.41-18.92-4.28-14.74-12.31A15.55,15.55,0,0,0,85,265c-3.27-3.41-8-2.78-12-4.41,2.79-3.93,2.79-3.93,2.62-6.3a24.55,24.55,0,0,0,5.08-7c-.51-.93-5.3-8.68-12,5.92-2.26-1-4.86,1.75-7-.68-4.93-5.71-5.46-10.95-5.34-13.57.16-3.24,3.43-4.66,4.33-7.45.59-1.78-1.49-3.48-.16-5.28,1.72-2.34,8.35-5.57,9.75-6,2.56-.85,9.74,3.68,9.83,3.72l.9-.33c-.36-.87-1.17-1.4-1.65-2.19l.48-.79c1.88-.35,14.72,2.93,14.78,3,4.33,4.72-1.56,11.07,2.52,15.85,8.36-4.26.57-13.33,3.9-19.39s10.63-5.46,15.83-8.35h-.09c-.1-.24-.23-.58-.34-.81.13-.22.28-.53.39-.77h.85l.43-.92-.66-.55L123,196.91c-.53,1.84-2.47,7.33-2.47,7.33.7-.17.7-.17,4-8a10.64,10.64,0,0,1,.53,3c1.75-1.49,2.25-4.08,4.52-5.14q4.53-.81,9.11-1.17c2.88-6.06,2.88-6.06,7.56-8.12.59.24.59.24,12.91-2.09l-.6.6a5.76,5.76,0,0,0,1.72,1l-.32.88c-7.4,2.13-7.4,2.13-7.91,3.33,4,1.49,18.87-1.4,18.6-7.69-2.09.53-2.9,2.6-4.45,3.77-1.19-.82-2.16-1.5-3-2.09a3.26,3.26,0,0,0,2-.6h0a.86.86,0,0,0-.35-.09,5,5,0,0,1-2.78-1.26,1.38,1.38,0,0,1-.32-1.81c.11-.25,0-.29,0-.32h0a3.18,3.18,0,0,0-.94,2.27c-1.28-1.26-1.28-2.14-1.22-4.18-1.26-1-1.31-1.19-1.66-2.17,2.37.18,4.08.31,5.31-1.71-.73-1.48-.73-1.48-19.5,2.78,14.51-7.32,14.51-7.32,26.59-6.79,1.88,2.56,15,1,17.78-1.55-.08-1.53-.08-1.53,1.39-3.23l-.14-.9-2.56-1.56-.79-.28a11.5,11.5,0,0,0-5.85.32v-.85c1.39-1,1.81-1,5.57-1.09h0a1.47,1.47,0,0,0,.65-.18c.28-.33-1.52-3.45-5.05-3.74-.8-.07-.8-.07-1.14-.34,0-.71.75-1.21.51-2-.33-1-1.61-1.25-1.94-2.28-.12-.45.16-.68.88-1.18,1.06-.76,1.06-.76.48-4.08-1.47-8.36-1.47-8.36-4.68-5.41-.51.46,0,1.39-.64,1.71s-1.61-.5-2.4,0c-1.82,1.24-1.82,1.24-2.2,1.23-2.37-.1-3.25-2.35-5-3.43-.12-.69,1.95-4.24,3.4-4.76-1-.75-2.3-.61-3.24-1.39-.23-.18-.31-.41-.45-1.1,0-.24-.15-.8-2.54-2.62a2.31,2.31,0,0,0-1.14-.56c-2.69-.21-5.12-1.67-7.87-1.52-.37,2.43-3.9,3.5-2.78,6.55-.75,1-2.34.85-2.87,2.13s.6,2.91.14,4.39c0,.07-2,6-5.64,5.57-.79-.08-2.68-.14-2.79,1.22a4.46,4.46,0,0,1-1.22.49c-2.09,3.09-1.39,8.14-6.17,9.46-.57-2.29-2.54-3.58-3.8-5.38a6,6,0,0,0,1.74-4.87l1.22-.45c0-.15.16-.43.17-.6a8.09,8.09,0,0,0-1-.4c-1.06-2.1-3.48-1.39-5-2.45s-1.85-3.18-3.33-4.36a7.7,7.7,0,0,0-.89-.6c-1.39-.79-2.92,0-4.39-.12-.33-.55-.33-.55.33-4.25.2-1.3.2-1.3-2.58-2.52.65-4,12.09-7.5,17-9,0-1.4-1.5-1.27-2-2.12,8,1.31,8,1.31,13.92-1.76-3.09-.51-3.73-.62-5.57-2.78,3.15,0,6.16,3,9.43.47a2.15,2.15,0,0,0-.72-.58s2-1.2,3.15.23c5.5,0,5.5,0,7.18-.72a4.49,4.49,0,0,0,1.12-.65c.83-.7.3-2,1.1-2.68s1.72-.22,2.5-.62c.46-.3.7-.8,1.09-1.17,0,0-2.67-5.7-6.14-.24-3,.57-7,5.86-9.07,2,.92-1.72,5-1.6,3.93-4-2.22,0-3.69,1.74-5.57,2.52,0-1.12,2.91-3,3-3a13.72,13.72,0,0,0-1.82-.76c4.75-3.82,4.75-3.82,4.95-4.42l-.33-.49c2.67-2.07,2.67-2.07,12.44-4a3.63,3.63,0,0,0-1.51-.42c-7-.75-20,8.35-20.14,8.35s0,.37.07.53c.69.24,1.4.32,2.12.53v.46a7.4,7.4,0,0,0-2.78.66l-.13.33h0l.39.24c-2.21,1.89-5.57,1.64-7.56,3.86-.67-1.47-.67-1.47,2-2.89-1-.69-1-.69-5.73.92-.25.09-1.76.43-6.24-1.39-.14-.53.11-1.09,0-1.62-4-.34-5.85,1.4-9.54,4.91,0-1.23,1.24-1.79,1.47-2.86-2.1-.39-4.29.67-6.35-.42,1.2-.55,2.79-.39,3.61-1.65l-.26-.41c-.57.1-.67.11-2-.54a5.15,5.15,0,0,0-.38-.91c-1.07-.14-2,.52-2.92.78a6.22,6.22,0,0,1,.87-.66,9,9,0,0,0-1.86.73,10.65,10.65,0,0,1,2.78-2l-3.24,1.23s-17.44,11-24.46,17.24a224.87,224.87,0,0,0-27.84,28.8Z" fill="#fff"/>
<path d="M124.9,272.81c-1.17.31-.37,2,.71,2.55a8.75,8.75,0,0,0,3.74.75c.11-.11,0-.5-1.72-1.79S125.38,272.85,124.9,272.81Z" fill="#fff"/>
<path d="M322.11,197.64a13.63,13.63,0,0,1,1.76-.42c.71-.1,1.4.4,2.13-.09.39-.27.59-1.17.58-2.64a6.12,6.12,0,0,0-.3-1.8,1.5,1.5,0,0,1,.44-1.85,2.41,2.41,0,0,0,.73-1.49,2.76,2.76,0,0,0-.61-1.81,7.09,7.09,0,0,0-.57-.66c-.52-.5-1.13-.89-1.64-1.39a2,2,0,0,1-.52-.68.11.11,0,0,0-.1-.1c-.09,0-4.51-.43-2.49,1.84a1.16,1.16,0,0,0,.54.39,1.32,1.32,0,0,1-.44.08,7.51,7.51,0,0,0-3,.76,1.69,1.69,0,0,0-1,1.31,1.7,1.7,0,0,0,.55,1.25,9.55,9.55,0,0,0,1.49.85l-.11.12a19.28,19.28,0,0,0-2.49,3.4c-.52.93-.61,1.39-.43,1.95C317,197.55,319.75,198.19,322.11,197.64Z" fill="#fff"/>
<path d="M344.1,257.24a.6.6,0,0,0,.47-.08s1-.57,1.07-.61c.17-.28-.26-.71-1.15-1.15s-2.62-.79-2.26.16A4.29,4.29,0,0,0,344.1,257.24Z" fill="#fff"/>
<path d="M331.42,194.56c-.18,0-.19.07-.21.26l1.17.52A3.29,3.29,0,0,0,331.42,194.56Z" fill="#fff"/>
<path d="M376.13,222.23c2.07,2.63,4.63,10.06,5.47,13-1-4.62-3.29-15.56-4.47-20.15-5.57-18.26-5.64-18.62-9.75-28l-4.54-9.61h0c-.18-.33-.35-.66-.54-1a41.43,41.43,0,0,0,2.07,4.79c-.41-.5-.72-1.07-1.1-1.59.31,1.79,1.49,3.15,2.24,4.73l-.33.09c-3.51-5.75-6-12-9.58-17.73,1.93,2.41,3.09,5.39,5.36,7.58-.24-1.39-5.49-10.56-9.4-15.32a26.42,26.42,0,0,1-3.33-4.39,6.91,6.91,0,0,1,.57.51,10.43,10.43,0,0,0-1.22-1.66l-.34.11a17.72,17.72,0,0,1-2.6-3.13c.18.16.43.36.61.5-.07-1.1-3.72-4.63-4-4.83a3.8,3.8,0,0,0,.46,1.67c-1.39-1.06-1.55-2.93-2.85-4,0,.79.68,1.39.72,2.16-1,1-1,1-1.13,1.77-.25,1.14,1.09,8.55,1.1,8.62,1.21,4.94.61,6.31.54,6.45-1.82,3.56-1.82,3.56-4.4,4.3-.93.28-1,.56-1,1.67,0,.15,1,14.94,6.9,14.37,1.88-.18,2-3.16,2.09-4.59.3.44,6.21,12.67,7,16.11.33,1.63.64,3.18,2,3.68a10.76,10.76,0,0,0,1.55-5.88c-.7-4.46-.09-4.72,1.27-5.31.34-.87.36-1.25-1.66-3.92-1.39-1.84-1.39-1.84-2.48-6.72-.4-1.85,1.84-3.21.95-5.15C350,166.23,350,166.23,350,166a3.2,3.2,0,0,1,0-.54l.28-.23c1.19.94,4.66,5.58,4.66,6.56l-.38-.09c.76,9.06.76,9.06,3,13.32,1.95,3.71,6.49,4.85,8.47,8.54a6.78,6.78,0,0,1-1.2-1l-.35.07a10.1,10.1,0,0,0,.28,1.21,35.34,35.34,0,0,0-4.55-3.23c1,3.31,3,6.25,3.48,9.75-1.87-.74-1-3.54-3.12-4.1l-.32.25s.82,5,1,5.42,1,3,.6,3.87c-1.13-.51-1.13-.51-1.4-.53-.29.31-.48.67-.76,1a1.17,1.17,0,0,0,.11.33h0c-5.21-2.25-5.21-2.25-5.43-1.75l-.91.19a14.35,14.35,0,0,0-3.51-2.78l2.43,1.39a5.58,5.58,0,0,0-3.3-2.38c-.71-.22-.9-.27-2.08-3.25-.88-2.18-1.74-5.23-.92-7.29.34-.85.32-4.95-.61-5.39-.11,0-2.88-1.05-2.88.48a67.53,67.53,0,0,0,2.86,11.91,6.47,6.47,0,0,1,.62,1.81c-.18.1-.23.11-1,0l-1.87-.32c-1.46-2.05-3.49-3.65-4.61-5.94a17.14,17.14,0,0,0-1.66-3.58,9.75,9.75,0,0,0-3.9-3h0c1.4-.58,4.56-4.87,1.66-6a9.18,9.18,0,0,0-1.56-.41c-1.93-.42-2.28-.49-2.13-1,.32-1,2.61-2.21,1.28-2.78,0,0-3.66-1.22-4.65-.12a.79.79,0,0,0-.11.45c-.24,1.2.24,2.4,0,3.59s-1.21,1.62-1.17,2.7c.25.21.88.37,2.51-.15.58-.19,1.1-.36,1.39-.07,1.06,1.19-1,2.06-.88,3.25a4.34,4.34,0,0,0,2.38,3.9c1.94,1.31,2.19,1.47,2.48,1.88,0,.36-.37.64-.3,1,.22,1.22,1,2.27,1.11,3.51-.11,1.19-1.24.08-2-.73-.35-.35-.35-.35-1.52-.86,0,1.56,1.33,2.78,1.1,4.39-.11.86-1,1-2.27,1.17-.33,0-.84.09-.8.47s.3.92,2.92,1.75c1.09.35,3.36,1.08,3.2,1.83a5.52,5.52,0,0,0-1.94-.17.66.66,0,0,0,0,.28,1.55,1.55,0,0,0-1,.15c-.72.31-1.08,1.08-1.76,1.4s-1.8.59-2.65,1v.22c.25.16.32.2,2.92.77a5.3,5.3,0,0,1-.78,1.11c-2.68-1.1-3-1.57-3.88-2.85a18.49,18.49,0,0,0,.49,2l-.59.79a14.72,14.72,0,0,1-2.1,0c-1-1.31-1-1.31-3.14-2.1l-.68.69L321.7,210l-.92.26c11.53,8,5,20.17,4.9,20.27-5.8-2.52-10.91-6.33-16.61-9a9.26,9.26,0,0,0,.58,2c-.06.16-5,16.24-3.14,17.56a56.19,56.19,0,0,1-2.54,5.11c4.25,1.13,5.14,1.4,6.77,2.39a23.19,23.19,0,0,0-.28,3.12l10.82.18c2.79.61,4.66-2.55,4-5.34,3.78-5.83,3.86-5.83,8.36-6,1.85-5.12,1.85-5.12,2.41-5.32,2.4-.89,3,2.08,4.69,2.69,2.55-2.24,4.5-3.59,6.21-.61a214.35,214.35,0,0,1,7.33,21.22,3.66,3.66,0,0,0-.42,2.13c.18.45.91.52.82,1.17s-.48,1.06-.53,1.66a.78.78,0,0,0,.38.75.52.52,0,0,0,.21.07c-.4,1.8-1.67,1.55-6.45.57a31.63,31.63,0,0,0,2.88,6.52c1-1.39.59-3.2,1.4-4.65l.8.41c1.09-.82,1.83-2,2.87-2.78v-.15a2,2,0,0,0,1.2-1.12,2.82,2.82,0,0,0,.15-.57c.13-.64.1-1.31.23-2v-.14c.15.54.35,1.18.51,1.67a4.64,4.64,0,0,0-.26-2.58c.1-.33.19-.65.26-1,.21-1.09-.11-1.39-.47-1.52a3.36,3.36,0,0,0-.71-.08l-1.25-3.41.46-.73a1.61,1.61,0,0,0,.08.38s.83,2.2.92,2.28c.39,0,1-2.69,1.15-4.11a17.15,17.15,0,0,0,.13-2l2.23,5.81v12.53l.79,10.88a13.28,13.28,0,0,0,.77-1.78,37.29,37.29,0,0,0,1-7c1-7.49,1-7.49,1.92-7.77,1.15.71,3.23,3.2,3.06,5.43A11.41,11.41,0,0,0,369.8,266l.95.27c3.09-6.08.47-13.19,3.51-19.29a2.69,2.69,0,0,1,1.62.66l-.66.66a7.39,7.39,0,0,0,1.46,2.48,5.15,5.15,0,0,1-1,2.85,36.14,36.14,0,0,1,.83,3.85c3.7-.7.22-5.45,2-7.72,1.46.18,1.55.71,1.58,1.91l-.76.67c.21.93.21.93,0,3.93l-.76.55c.29,6.26,3.81,12.27,1.32,18.71l-.92.15c-2-2.7.18-8.54-4.52-8.91a3.12,3.12,0,0,1-1.2,1.39c-.46-.35-1.07-.79-1.56-1.09a3.33,3.33,0,0,0,.32,1.73c-1.28.5-2.44-.47-3.69-.32a11.5,11.5,0,0,0-.81,1.92l.74.53c-.73,3.41-2.06,9.75.78,14.57l.83-.41.28-.89c.94,1.55.71,3.54,1.91,5a7.37,7.37,0,0,0,1-1.62,4.92,4.92,0,0,0,1.11,1.49c-3.68,12.54-4.18,14.53-6.75,17.4-1.73-.77-1.9-1.26-1.86-3.21a2.67,2.67,0,0,0-1.72.12c-5.75-2.51-2.2-10.91-8.36-13.18-1.86,1.64-1.79,4.35-3.33,6.17h-1c-.94-1.39-10.16-18.47-10.57-20.42-.12-.61.6-1.39,1.09-1.75,1.14-.92,1.14-.92,3.15-8.36a26.92,26.92,0,0,0-2.11-2.55c-1.5.49-1.5.49-6.06-2.39A9.14,9.14,0,0,0,335,262c-5.57-4.78-13.23.45-18.85-4l-.94-.4c-1.93-.28-2.59-.37-3.73-3.42-.26-.37-.28-.37-.29-.37a6.86,6.86,0,0,0-1.05.44c-1.72,1.05-1.54,3.46-3.24,4.53-2.12,1.39-4.86.32-7,1.85-.62.45-.8,1.58-1.09,2.29-3.13,7.63-3.13,7.63-5.57,7.91a24.58,24.58,0,0,0-7,2.11c-1.83,1.47-15.63,13.33-15.64,13.35-1.74,3.85-.3,8.13-1.59,12-1.09,3.29-6.3,3.2-6.14,7.49.21,6.45,1.39,12.77,2.11,19.15.3,2.69,5.78,13.45,7.4,13.93,8,2,16.53,1.7,24.19,5.35a1.66,1.66,0,0,1,.6.66c1,1.72-.77,3.51.21,5.23s2.95,1.71,4.31,2.78c0,3.44,0,3.44-2.38,6-6.42,7-6.42,7-6.71,9.61-.46,4-1.09,9.54-9.75,19.08-4,4.4-9.55,6.71-14.09,10.38-4.18,3.41-6.39,8.59-10.45,12.14-15.78,13.93-16.15,14.07-18.27,15.13a11.53,11.53,0,0,0-4.18,3.21c4.43,3.29,11.67,1.39,14.05.73l9.61-2.79L272,422c3-1.52,5.36-4.06,8.48-5.41,3.57-1.54,7.58-1.49,11.14-3.09,8.48-3.84,18.61-13.83,19.75-15.11C316,393.27,327.61,387,331,385.26c5.44-3,14.71-12.54,17.57-16.53-.87-.69-.87-.69-2.78-.92-.21-.69-.21-.69,3.12-7.54,1.24-2.53,1.54-5.35,2.42-8,2.27-6.86,6-13.18,7.79-20.24l5.75-22.19c.19.82.19.82-.45,4.09a3.64,3.64,0,0,0,1.59-1.39c-1.29,17.81-11.71,32.48-16.91,48.93,2.08-.21,2.08-.21,2.79.25,8.35-8.53,8.35-8.53,9-9.75l-.49.92c.29-.5.68-1.17,1-1.69l.29-.55,1.84-3.58c.82-1.65,1.84-3.71,4.29-9.42l-.33.88c2-5,4.56-11.14,6.24-16.06,1.39-5,3.53-11.71,4.76-16.81.29-1.54.57-3,.83-4.32.19-4.31.3-5,2.79-19.62a.74.74,0,0,0,0,.21c.95-20.79.95-20.79,1.17-21.74v.11c0-6.58.75-8.85.11-15.67l-2.78-14.06A25.63,25.63,0,0,0,376.13,222.23Zm-35-23c.08,0,.11,0,.81.43l-.89-.34h0a.31.31,0,0,1,.08-.07ZM358.23,249a.75.75,0,0,1-.07.12,11.55,11.55,0,0,0-.56,1.93,1.38,1.38,0,0,1-.91,1,.61.61,0,0,0-.46.5v.08c-1.79-1.68-3.21-3.17-4.81-16.71a3.5,3.5,0,0,1,1.7-.64l5.24,13.63a.43.43,0,0,0-.13.14Z" fill="#fff"/>
</g>
<path d="M348.94,288.2a25.57,25.57,0,1,0-48.51,9h0l.05.12a51.92,51.92,0,0,0,3.07,4.83L316.74,323a4.61,4.61,0,0,0,6.36,1.43,4.41,4.41,0,0,0,1-.84l16.12-18.09a54.21,54.21,0,0,0,4.11-4.6l.07,0h0A25.21,25.21,0,0,0,348.94,288.2Zm-26.39,9a11.25,11.25,0,1,1,12.14-10.29,11.25,11.25,0,0,1-12.14,10.29Z" fill="#0071f2" data-primary="true"/>
<path d="M154.4,310.49a16.37,16.37,0,1,0-31.07,5.75h0l0,.07a33.39,33.39,0,0,0,2,3.09l8.45,13.34a3,3,0,0,0,4.07.92,2.73,2.73,0,0,0,.63-.54l10.33-11.58a36.69,36.69,0,0,0,2.63-3l0,0h0A16,16,0,0,0,154.4,310.49Zm-16.9,5.76a7.2,7.2,0,1,1,7.77-6.59,7.2,7.2,0,0,1-7.77,6.59Z" fill="#0071f2" data-primary="true"/>
<path d="M117.42,172.65a14.33,14.33,0,1,0-26.68,7.23h0c.54.93,1.24,1.59,1.94,2.56l8.35,11a2.59,2.59,0,0,0,3.6.58,2.66,2.66,0,0,0,.58-.58l8.16-10.78a31.56,31.56,0,0,0,2.08-2.79h0A14.26,14.26,0,0,0,117.42,172.65Zm-14.33,6.24a6.31,6.31,0,1,1,6.31-6.31h0a6.3,6.3,0,0,1-6.31,6.31Z" fill="#0071f2" data-primary="true"/>
<path d="M783.21,547.22V649a5.71,5.71,0,0,1-5.71,5.71H98A5.71,5.71,0,0,1,92.3,649V547.22Z" fill="#9ea0a3"/>
<path d="M783.21,547.22v33.55C470.61,560.92,170,618.93,92.3,635.48V547.22Z" fill="#fff" opacity="0.2"/>
<rect x="52.39" y="492.57" width="772" height="66.09" rx="33.05" fill="#e1e1e2"/>
<path d="M257.39,285.44s1.92-7.92,8.53-6.9c0,0,3.05.25,1.78,9.66a53.48,53.48,0,0,0,4.06,21.35s15.26,30.25-2.54,37.62l-9.15,7.12L249.4,343.86l-5.09-36.09Z" fill="#f7a48b"/>
<path d="M411.19,274.6l-6.35,16.77s5.84-1.27,8.26-1.14a45.54,45.54,0,0,1,14-10A54.11,54.11,0,0,1,411.19,274.6Z" fill="#2f2e41" data-secondary="true"/>
<path d="M413.1,290.23s-57.45.51-94.31,75l-15.5,58.72,5.33,70.16h302s26.18-7.88,10.42-48.81c0,0-29.48-89-58.72-111.59,0,0-21.35-29.49-73.21-41.69Z" fill="#0071f2" data-primary="true"/>
<path d="M426.83,271.42s-.39,42.58,6.86,60.5L470,280.06s-4.58-14.74-2.8-29Z" fill="#f9b499"/>
<path d="M426.83,271.42s.14,10.31,1,22.06c0,0,36.3-8.74,39.15-36.24Z" fill="#f7a48b"/>
<path d="M427.13,280.19s-18.87,5.58-18.71,24.18a27.66,27.66,0,0,0,8.32,19.31c7.09,7,20.75,15.43,43.39,10.53,0,0,44.73-7.12,29-42.2A26.94,26.94,0,0,0,470,280.06l-36.35,51.86S426.93,312.85,427.13,280.19Z" fill="#0071f2" data-primary="true"/>
<path d="M427.13,280.19s-18.87,5.58-18.71,24.18a27.66,27.66,0,0,0,8.32,19.31c7.09,7,20.75,15.43,43.39,10.53,0,0,44.73-7.12,29-42.2A26.94,26.94,0,0,0,470,280.06l-36.35,51.86S426.93,312.85,427.13,280.19Z" opacity="0.2"/>
<path d="M563.84,437.92S619,441.22,616.71,475c0,0,.76,44.49-61.77,25.67Z" fill="#f9b499"/>
<rect x="321.08" y="500.96" width="238.95" height="10.93" rx="5.47" fill="#2f2e41" data-secondary="true"/>
<rect x="321.08" y="500.96" width="238.95" height="10.93" rx="5.47" opacity="0.2"/>
<path d="M269.73,348.06l45.49,98.23a19.5,19.5,0,0,1,1.3,3.79c2.24,9.79,9.55,50.27-22.39,52.28,0,0-20.72,4.31-33-30a96,96,0,0,1-4.65-19.05c-2.52-18.06-9.93-73.3-10.35-102.17,0,0-21.61-34.06-21.61-46.52,0-10.47,4-51.28,5.21-64a3.69,3.69,0,0,1,4.2-3.27h0a3.69,3.69,0,0,1,3.13,3.54l1.19,47.5s23.89-8.89,24.91,4.32c0,0,8.14,5.85,3.31,12.71,0,0,4.06,3.31,2,9.92,0,0,3.3,13-16,10.42,0,0,16.52,7.37,10.67,22.37Z" fill="#f9b499"/>
<path d="M244.06,296.31a1,1,0,0,1-.9-.56,1,1,0,0,1,.46-1.34c14.52-7.06,19.26-3.71,19.76-3.3a1,1,0,0,1-1.26,1.56c-.11-.08-4.38-2.91-17.63,3.54A1,1,0,0,1,244.06,296.31Z" fill="#f7a48b"/>
<path d="M246.35,308a1,1,0,0,1-.92-.6,1,1,0,0,1,.51-1.32c14-6.24,20.24-2.64,20.5-2.48a1,1,0,0,1-1,1.71c-.11-.06-5.77-3.13-18.66,2.6A1,1,0,0,1,246.35,308Z" fill="#f7a48b"/>
<path d="M249.14,317.67a1,1,0,0,1-.42-1.91c14.13-6.54,19.63-2.34,19.86-2.16a1,1,0,0,1-1.24,1.57c-.1-.08-5-3.51-17.78,2.4A.92.92,0,0,1,249.14,317.67Z" fill="#f7a48b"/>
<path d="M250,500.06a8.28,8.28,0,0,1-2.08,1.17A8.42,8.42,0,0,1,237,496.42l-48.78-126a8.41,8.41,0,0,1,2.75-9.74,8.46,8.46,0,0,1,5.1-1.72,8.43,8.43,0,0,1,7.85,5.38l48.78,126A8.4,8.4,0,0,1,250,500.06Z" fill="#0071f2" data-primary="true"/>
<path d="M250,500.06a8.43,8.43,0,0,1-8.8-5.32l-49.9-128.88a8.37,8.37,0,0,1-.3-5.17,8.46,8.46,0,0,1,5.1-1.72,8.43,8.43,0,0,1,7.85,5.38l48.78,126A8.4,8.4,0,0,1,250,500.06Z" fill="#fff" opacity="0.2"/>
<line x1="202.37" y1="408.43" x2="225.75" y2="469.44" fill="#fff"/>
<path d="M225.75,470.2a.78.78,0,0,1-.71-.49l-23.38-61a.76.76,0,0,1,1.42-.54l23.39,61a.76.76,0,0,1-.44,1A.87.87,0,0,1,225.75,470.2Z" fill="#fff"/>
<path d="M264.14,511H191a3.65,3.65,0,0,1-3.51-4.61l21.47-78.17a.89.89,0,1,1,1.71.47l-21.46,78.17a1.85,1.85,0,0,0,1.79,2.36h73.16a.89.89,0,0,1,0,1.78Z" fill="#fff"/>
<path d="M627.39,438.05v57.51a15.82,15.82,0,0,0,15.82,15.82h31.36a15.82,15.82,0,0,0,15.82-15.6l.8-57.73Z" fill="#2f2e41" data-secondary="true"/>
<path d="M690.3,449.4s19.19,3.52,17.92,17c0,0-.84,24.37-17.7,24.9v-6.55s11.83-.72,11.13-18.12a9.52,9.52,0,0,0-6.06-8.55,13.31,13.31,0,0,0-5.29-.56Z" fill="#2f2e41" data-secondary="true"/>
<rect x="399.3" y="159.73" width="79.8" height="122.2" rx="39.9" transform="translate(123.75 -156.2) rotate(23.39)" fill="#f9b499"/>
<path d="M573.24,332.93l-10.93.77C530.67,300,489.1,292,489.1,292A27.84,27.84,0,0,0,470,280.06c-3.81-14-3.1-22.82-3.1-22.82l7.84-18c-1.87-10.85-14.91-18.14-14.91-18.14a51.53,51.53,0,0,1-5.13-2.7A52.3,52.3,0,0,1,436,199.23c-18.31-3.31-11.7-30.25-11.7-30.25-8.89,5.84-13.29,16.55-13.29,16.55l-6.08,14.26c-28.27-26.89-9.1-50.39-9.1-50.39,28.47-27.45,42.71-.25,42.71-.25l14,.76c76.77-9.15,80.07,63.55,80.07,63.55l7.37,49.32C547.82,321.75,573.24,332.93,573.24,332.93Z" fill="#2f2e41" data-secondary="true"/>
<path d="M404.91,199.79S393,144.57,431.66,152.45L424.28,169s-8,4.64-13.29,16.55Z" opacity="0.2"/>
<path d="M454.74,218.39A52.3,52.3,0,0,1,436,199.23s-3.31-14.24,3.3-22.88C439.28,176.35,433.07,203.12,454.74,218.39Z" opacity="0.2"/>
<path d="M471,231.13s1.11-28.6-10.58-55.54c0,0,12.2,16,15,52.61,0,0,1.09-22.76-8-52,0,0,16.86,21,14.07,53.58,0,0-5.34,1.92-8,5.28A11.67,11.67,0,0,0,471,231.13Z" opacity="0.2"/>
<path d="M480.35,166.65s18.16,14,20.19,66.89c0,0-.15,52.81,8.26,64.7A147.71,147.71,0,0,0,489.1,292s-6.61-10.17-19.06-11.95c0,0-3.41-12.6-3.1-22.82l17.29-40S494.74,197.88,480.35,166.65Z" opacity="0.2"/>
<path d="M481.48,229.73a89.55,89.55,0,0,0-1.53-25,58.66,58.66,0,0,0-3.62-11.48c-20.48-47.61-40.61-42.34-40.61-42.34s-.51-4.83,10.17-2.29c0,0,41.69-1.78,44,50.33,0,0,.25,18.56-6.1,30.25Z" fill="#0071f2" data-primary="true"/>
<ellipse cx="480.23" cy="244.84" rx="17.18" ry="11.54" transform="translate(4.51 498.33) rotate(-55.07)" fill="#ffb190"/>
<circle cx="470.29" cy="258.71" r="6.35" fill="#0071f2" data-primary="true"/>
<rect x="317.27" y="354.8" width="248.86" height="146.42" rx="10.84" fill="#2f2e41" data-secondary="true"/>
<polygon points="517.16 354.8 317.27 474.82 317.27 450.03 477.93 354.8 517.16 354.8" fill="#fff" opacity="0.2"/>
<polygon points="566.13 368.8 566.13 393.12 380.33 501.21 335.78 501.21 566.13 368.8" fill="#fff" opacity="0.2"/>
<ellipse cx="659.29" cy="438.05" rx="31.9" ry="5.72" fill="#2f2e41" data-secondary="true"/>
<ellipse cx="659.29" cy="438.05" rx="31.9" ry="5.72" opacity="0.2"/>
<polygon points="731.49 465.27 723.54 507.85 728.77 507.85 736.52 465.27 731.49 465.27" fill="#2e3135"/>
<polygon points="785.84 466.13 793.78 508.71 788.55 508.71 780.8 466.13 785.84 466.13" fill="#2e3135"/>
<path d="M757.26,446.24s-1.94-18.21-4.65-26c0,0-4.07-10.27-4.46-20.54l-2.52-49,13.56,28.87s7.56,16.47,6.4,42c0,0-1.16,19-5,24.61Z" fill="#0071f2" data-primary="true"/>
<path d="M817.36,399.56c-5.81,5.58-33,31.23-55.61,44.33a59.77,59.77,0,0,0,2.87-12.74l11-10s11.91-13.51,28.79-17.52a18,18,0,0,0,2-.62L817,399A.32.32,0,0,1,817.36,399.56Z" fill="#0071f2" data-primary="true"/>
<path d="M817.36,399.56c-5.81,5.58-33,31.23-55.61,44.33a59.77,59.77,0,0,0,2.87-12.74l11-10s11.91-13.51,28.79-17.52a18,18,0,0,0,2-.62L817,399A.32.32,0,0,1,817.36,399.56Z" fill="#231f20" opacity="0.2"/>
<path d="M757.26,446.24H753s-8.83-14.23-16.58-22a53.09,53.09,0,0,1-4.68-5.27c-.58-.76-1.24-1.62-1.94-2.57A181.71,181.71,0,0,1,718.12,399l-19-32.6,24.41,18.8s18.6,14.92,28.29,41.46A79,79,0,0,1,757.26,446.24Z" fill="#0071f2" data-primary="true"/>
<path d="M753,446.24h-1.55l-7.3-5.17a27.08,27.08,0,0,0-3.46-2.11c-13.41-6.71-36.89-29-43.1-35a.54.54,0,0,1,.53-.9c13.75,4.23,31.68,13.38,31.68,13.38.7.95,1.36,1.81,1.94,2.57a53.09,53.09,0,0,0,4.68,5.27C744.16,432,753,446.24,753,446.24Z" fill="#0071f2" data-primary="true"/>
<path d="M753,446.24h-1.55l-7.3-5.17a27.08,27.08,0,0,0-3.46-2.11c-13.41-6.71-36.89-29-43.1-35a.54.54,0,0,1,.53-.9c13.75,4.23,31.68,13.38,31.68,13.38.7.95,1.36,1.81,1.94,2.57a53.09,53.09,0,0,0,4.68,5.27C744.16,432,753,446.24,753,446.24Z" fill="#231f20" opacity="0.2"/>
<polygon points="780.31 489.45 737.49 489.45 729.79 446.24 785.35 446.24 780.31 489.45" fill="#a05d3a"/>
<polygon points="780.31 489.45 737.49 489.45 729.79 446.24 785.35 446.24 780.31 489.45" fill="#3f4347"/>
<rect x="727.22" y="462.71" width="60.06" height="5.13" fill="#2e3135"/>
</svg>