<svg xmlns="http://www.w3.org/2000/svg" width="865.76" height="682.89" viewBox="0 0 865.76 682.89"><path d="M639.41,594.06l-403,1S145.89,564.77,106,453a300.75,300.75,0,0,1-2.29-195.25c.68-2.08,1.39-4.16,2.12-6.22l.09-.25q1.11-3.12,2.28-6.21c0-.11.08-.22.13-.33s.1-.28.16-.42a300.47,300.47,0,0,1,30-58.42c.17-.25.33-.5.5-.74q2.25-3.39,4.6-6.72a299.73,299.73,0,0,1,51.46-56.13C247.79,77.76,326,41.92,441.53,39.14h0s4.29-.12,11.91.21h.25c35.82,1.57,143.6,13,226.47,91.1q3.08,2.89,6.09,5.91a296.37,296.37,0,0,1,34.94,42c1.52,2.21,3,4.44,4.48,6.72.17.24.33.49.48.74A325.14,325.14,0,0,1,755.71,244a2.44,2.44,0,0,1,.1.24l.29.75c.8,2.05,1.57,4.12,2.34,6.21l.09.25q1.13,3.07,2.2,6.22a394.35,394.35,0,0,1,11.19,39S817.66,469,639.41,594.06Z" fill="#0071f2"/><path d="M639.41,594.06l-403,1S145.89,564.77,106,453a300.75,300.75,0,0,1-2.29-195.25c.68-2.08,1.39-4.16,2.12-6.22l.09-.25q1.11-3.12,2.28-6.21c0-.11.08-.22.13-.33s.1-.28.16-.42a300.47,300.47,0,0,1,30-58.42c.17-.25.33-.5.5-.74q2.25-3.39,4.6-6.72a299.73,299.73,0,0,1,51.46-56.13C247.79,77.76,326,41.92,441.53,39.14h0s4.29-.12,11.91.21h.25c35.82,1.57,143.6,13,226.47,91.1q3.08,2.89,6.09,5.91a296.37,296.37,0,0,1,34.94,42c1.52,2.21,3,4.44,4.48,6.72.17.24.33.49.48.74A325.14,325.14,0,0,1,755.71,244a2.44,2.44,0,0,1,.1.24l.29.75c.8,2.05,1.57,4.12,2.34,6.21l.09.25q1.13,3.07,2.2,6.22a394.35,394.35,0,0,1,11.19,39S817.66,469,639.41,594.06Z" fill="#fff" opacity="0.7"/><path d="M758.44,251.24H106q1.11-3.12,2.28-6.21H756.1C756.9,247.08,757.67,249.15,758.44,251.24Z" fill="#0071f2"/><path d="M758.44,251.24H106q1.11-3.12,2.28-6.21H756.1C756.9,247.08,757.67,249.15,758.44,251.24Z" fill="#fff" opacity="0.35"/><path d="M760.73,257.71h-657c.68-2.08,1.39-4.16,2.12-6.22H758.53Q759.66,254.57,760.73,257.71Z" fill="#0071f2"/><path d="M760.73,257.71h-657c.68-2.08,1.39-4.16,2.12-6.22H758.53Q759.66,254.57,760.73,257.71Z" fill="#fff" opacity="0.4"/><path d="M441.28,178.4v6.72H139.06q2.25-3.39,4.6-6.72Z" fill="#fff"/><path d="M725.69,185.12H454.46V178.4H721.21C722.73,180.61,724.22,182.84,725.69,185.12Z" fill="#fff"/><path d="M441.28,185.86v58.42H108.53a300.47,300.47,0,0,1,30-58.42Z" fill="#2e3135"/><path d="M441.53,39.14V244h-.25l-123,.25-209.9.42c0-.14.1-.28.16-.42a300.47,300.47,0,0,1,30-58.42c.17-.25.33-.5.5-.74q2.25-3.39,4.6-6.72a299.73,299.73,0,0,1,51.46-56.13C247.79,77.76,326,41.92,441.53,39.14Z" fill="#fff" opacity="0.26"/><path d="M755.81,244.28H453.46V185.86H726.17A325.14,325.14,0,0,1,755.71,244,2.44,2.44,0,0,1,755.81,244.28Z" fill="#2e3135"/><polygon points="357.51 453.35 392.06 625.88 396.54 625.88 370.68 452.36 357.51 453.35" fill="#2e3135"/><polygon points="357.51 453.35 361.34 472.71 373.63 469.85 370.68 452.36 357.51 453.35" opacity="0.2"/><ellipse cx="313.13" cy="435.58" rx="83.9" ry="25.98" fill="#3f4347"/><path d="M248.37,623.89c0,2.48-4.47.74-4.47.74-4.23,1.49-7.71,8-7.71,8-7.95,10.44-41.51,1.24-41.51,1.24-18.65-4.72-21.38-10.19-21.38-10.19-3.73-8,6.67-7.4,6.67-7.4a1.13,1.13,0,0,0-.83,1.69c1.59,2.7,7.1,8.47,26,12.17,0,0,21.88,8.76,28.62-1a9.75,9.75,0,0,1,2.17-2.27c3.58-2.66,12.46-10.05,12.46-17.6l.25-12.92c-.8-.08-1.57-.12-2.27-.13.32-1,.53-1.62.53-1.62l4.73-2.23,2,4.92C253.83,605.65,248.37,623.89,248.37,623.89Z" fill="#e6e6e6"/><path d="M335.13,442.91c-5.52,5.39-15.48,20.5-23.65,33.55-7.28,11.64-13.14,21.64-13.14,21.64l-41.52,97.6a2.68,2.68,0,0,1-3.23,1.54,26.15,26.15,0,0,0-5-.94,27,27,0,0,0-7.21.24,47.59,47.59,0,0,1-9.66.83c-8.5-.2-13.5-3.27-16.42-6.53a17.25,17.25,0,0,1-2.86-4.39,7.62,7.62,0,0,1-.08-6.1l22.81-54.16,23.86-67.12A212.72,212.72,0,0,0,242,443.16a25.59,25.59,0,0,0-3.65-2.54c-45.77-26.23-59.81-42.21-59.81-42.21-10.19-14.17,4.22-32.07,4.22-32.07,7.46-9.2,87.13-1.9,87.13-1.9Z" fill="#2f2e41"/><path d="M311.48,476.46c-7.28,11.64-13.14,21.64-13.14,21.64l-41.52,97.6a2.68,2.68,0,0,1-3.23,1.54,27.66,27.66,0,0,0-12.18-.7,47.59,47.59,0,0,1-9.66.83l-.53-.33c16.16.5,34.55-48.23,34.55-48.23,7.46-20.63,22.38-40,22.38-40,9.69-13.68,13.17-29.59,13.17-29.59Z" opacity="0.2"/><path d="M248.62,596.3l-.22,11.8,0,1.12c0,7.55-8.88,14.94-12.46,17.6a9.75,9.75,0,0,0-2.17,2.27c-6.74,9.77-28.62,1-28.62,1-18.88-3.7-24.39-9.47-26-12.17a1.13,1.13,0,0,1,.83-1.69l10.58-1.39a27.6,27.6,0,0,0,4.72-1.06,26.57,26.57,0,0,0,14.21-10.7,52.19,52.19,0,0,0,5.85-12.25c2.92,3.26,7.92,6.33,16.42,6.53a47.59,47.59,0,0,0,9.66-.83,25.4,25.4,0,0,1,4.94-.37C247.05,596.18,247.82,596.22,248.62,596.3Z" fill="#0071f2"/><path d="M248.4,608.1l0,1.12c0,7.55-8.88,14.94-12.46,17.6a9.75,9.75,0,0,0-2.17,2.27c-6.74,9.77-28.62,1-28.62,1-18.88-3.7-24.39-9.47-26-12.17a1.13,1.13,0,0,1,.83-1.69l10.58-1.39a27.6,27.6,0,0,0,4.72-1.06c1.15.24,9.79,1.86,15.81-2.08,0,0,0,15.58,17.4,13C228.48,624.72,240.06,621.67,248.4,608.1Z" opacity="0.2"/><path d="M232.21,469.76a201.11,201.11,0,0,1,35.55-13.43s27.1-9.19,46.49,1.74c0,0,5.72,2.24,5.72,11.69Z" fill="#0071f2"/><path d="M230,474.73s-3.23-10.44,28.34-8.2c0,0,19.39,5,36.54-.25,0,0,24.36-5,25.61,6,0,0,3,10.69-23.37,8.7a58.5,58.5,0,0,0-15,2.08,39.66,39.66,0,0,1-7.88,1.23C262.1,484.91,231,485.54,230,474.73Z" fill="#e6e6e6"/><path d="M253.83,453.82l5.23,5.25s31.82-13.67,55.19-1a9.52,9.52,0,0,1,5,6.38s9.32-14.54,15.34-21l-5.54-.85-11.31,14-19.8-17.42s-12.84-1.22-20.88-2.84l13.83,9.57S268,444.84,253.83,453.82Z" opacity="0.2"/><path d="M361.24,201.77c0,15.67-8,28.84-18.72,32.53a18.93,18.93,0,0,1-6.14,1c-8.46,0-15.93-5.69-20.42-14.4a42,42,0,0,1-4.44-19.16c0-18.53,11.13-33.56,24.86-33.56S361.24,183.24,361.24,201.77Z" fill="#f9b499"/><path d="M327.18,152.05c20.38-1.74,31.82,14.17,31.82,14.17,8.45,8,7.46,21.63,7.46,21.63,4.22,7.71-5.46,9.07-5.46,9.07-.23-2.11-.85-5.22-.85-5.22-10,1.37-16.07-3.6-16.07-3.6a12.6,12.6,0,0,0,0,6.46c-9.2-1-15.16-12.18-15.16-12.18a13.75,13.75,0,0,1-6.71,11.93c-1.25.5-1.74-3.23-1.74-3.23-1.74,10.2-8,12.46-8,12.46l-10.12,3.91s-6.24-2.2-5.24-10.4c0,0-5.24,1.39-6.74-7a20.23,20.23,0,0,1,10.54-21.45A35.35,35.35,0,0,1,314,165S316.49,152.05,327.18,152.05Z" fill="#2f2e41"/><path d="M309,184.87a20.13,20.13,0,0,1-2.24,9.44s-3.73,6.47-.25,6.47c0,0,2.74.5,11.19-8.7,0,0,10.12-5.05,11-8.12l.16-1.58.9,1.37a45.81,45.81,0,0,0,16-4.6s-8.2-1.49-9.69-5c0,0,10.83,4.26,17.84,3.25,0,0-2.93,3.21-6.66,2.47,0,0,9.2,10.93,19.15,7.95,0,0-6.72-19.39-28.34-20.38,0,0-1.25-3.73,4.72-4,0,0-8-4.72-20.88,8.7,0,0-19.89-.25-27.6,19.64C294.36,191.83,301.57,184.12,309,184.87Z" opacity="0.2"/><path d="M331.9,257.21h-6.46l-8.95-7.71c-5.22-4.47-5.35-9.07-5.35-9.07a12.25,12.25,0,0,1,4.35-10.32l.47-9.18c4.49,8.71,12,14.4,20.42,14.4a18.93,18.93,0,0,0,6.14-1l.07,5C348.56,244.53,331.9,257.21,331.9,257.21Z" fill="#f9b499"/><path d="M316,220.93l-.27,6s10,20.19,28.13,15.91a3.78,3.78,0,0,0-1.23-3.53l-.07-5S326.38,240.59,316,220.93Z" fill="#f7a48b"/><path d="M306.6,359.19c-14.12,1.29-36.73,5.25-36.73,5.25l-.37-35.64c-6.86,13.9-14.19,21.05-18.08,24.14a17.77,17.77,0,0,1-5.51,3c-8.27,2.73-14.11,1.06-18.11-1.8a17.87,17.87,0,0,1-7.38-13.59,19.12,19.12,0,0,1,.22-4.06,65.91,65.91,0,0,1,2.43-9.48c8.59-26,33.26-61.84,33.26-61.84,8.2-23.86,45.87-27.27,45.87-27.27-3.84,4.79-.38,30.75-.38,30.75Z" fill="#0071f2"/><path d="M288.88,240.42l-8.69,42.89,11.69,1.49-6.71,4.73,12,70.81,9.47-1.15-4.78-90.55s-3.46-25.46.38-30.75A86.57,86.57,0,0,0,288.88,240.42Z" fill="#0071f2"/><path d="M288.88,240.42l-8.69,42.89,11.69,1.49-6.71,4.73,12,70.81,9.47-1.15-4.78-90.55s-3.46-25.46.38-30.75A86.57,86.57,0,0,0,288.88,240.42Z" fill="#fff" opacity="0.4"/><path d="M432,351.09s-39.38.68-96,5l-1.35.1,10.75-92,5.08-25.72h0a98.23,98.23,0,0,1,13,4.39c13.42,5.52,33,16.68,37.8,36Z" fill="#0071f2"/><path d="M363.22,289l-8.7-1.74,8,7.46-19.59,60.81-7,.54-1.35.1,10.75-92,5.08-25.72h0a98.23,98.23,0,0,1,13,4.39Z" fill="#0071f2"/><path d="M363.22,289l-8.7-1.74,8,7.46-19.59,60.81-7,.54-1.35.1,10.75-92,5.08-25.72h0a98.23,98.23,0,0,1,13,4.39Z" fill="#fff" opacity="0.4"/><ellipse cx="268.53" cy="305.88" rx="7.2" ry="12.73" transform="translate(-130.64 385.49) rotate(-60)" fill="#2f2e41"/><path d="M257.57,304.69c-32.18,24.83-37.07,35.72-37.07,35.72l-.08.13a19.12,19.12,0,0,1,.22-4.06,65.91,65.91,0,0,1,2.43-9.48,74.13,74.13,0,0,1,9.89-8.89l24.54-18.6A5.74,5.74,0,0,0,257.57,304.69Z" opacity="0.2"/><path d="M269.5,328.8l5.22-8.7s-.27,31.23,5.71,42.71l-10.56,1.63Z" opacity="0.2"/><path d="M299.63,288.06l-2.95.16a1,1,0,0,1-1.07-.72l-3-9.73a1,1,0,0,1,1-1.35l4.45.18.88,6-1.3-10.33-6.71.22a1.89,1.89,0,0,0-1.72,2.5l5.62,16.68a2.19,2.19,0,0,0,2.16,1.49l3.28-.09Z" fill="#c2c4c6"/><polygon points="299.74 288.06 298.94 282.63 299.63 288.06 299.74 288.06" fill="#c2c4c6"/><ellipse cx="309.78" cy="211.47" rx="8.7" ry="8.2" fill="#f9b499"/><path d="M345.82,232.85s7.46,2.48,5.47,18.64l-1.74,18.65s-7.7-11.19-17.65-12.93c0,0,16.66-12.93,10.69-17.9l-.07-5A32.22,32.22,0,0,0,345.82,232.85Z" fill="#2f2e41"/><path d="M315.49,230.11l.2-3.18s-9.2,3.84-13.49,11a12,12,0,0,0-1.7,5.9,148.7,148.7,0,0,0,1.32,24.85s10.69-10.69,23.62-11.43l-8.95-7.71S305.55,240.8,315.49,230.11Z" fill="#2f2e41"/><path d="M259.36,307.76s9.9-10,13.13-18.48c0,0,4.47-15.66,14.17-15.66,0,0,10.69-.75,9.94,4.22,0,0,.25,1.25-1.49,1.25,0,0,.75.74.75,3,0,0,3.48,3.23,1,9.69,0,0-2.24,8-8.45,6.22,0,0,.74,12.18-10.2,13.17l-4,3.59S267.36,315.55,259.36,307.76Z" fill="#f9b499"/><path d="M292.87,288.28a10.92,10.92,0,0,0-1.34,2.85,36.29,36.29,0,0,0-1.18,5.57c-.06.42-.12.85-.21,1.28-.51-3.1.05-7.69,2.73-9.7Z" fill="#f7a48b"/><path d="M293.12,283.06a2.85,2.85,0,0,1,3.94,1.31,6.66,6.66,0,0,1,.57,4.32c-.18-.71-.31-1.4-.5-2.07-.53-2.1-1.57-3.84-4-3.56Z" fill="#f7a48b"/><path d="M295.11,279.09c-1.07-.34-2.23-.72-3.31-.95-.38-.1-.76-.17-1.17-.3a3.25,3.25,0,0,1,1.22-.29,3.71,3.71,0,0,1,3.26,1.54Z" fill="#f7a48b"/><path d="M259.36,307.76l1.69-1.74a33.35,33.35,0,0,0,17.15,5.13l-4,3.59S267.36,315.55,259.36,307.76Z" fill="#f7a48b"/><path d="M325.69,267.65l0,.14c-.18.57-1.5,1.08-3.59,1.49a63.38,63.38,0,0,1-11.17.86c-8,0-14.47-1.06-14.78-2.39l0-.1c0-1.37,6.63-2.49,14.8-2.49S325.69,266.28,325.69,267.65Z" fill="#e1e1e2"/><path d="M325.66,267.79l-5.14,30a3.87,3.87,0,0,1-3.81,3.21H304a3.85,3.85,0,0,1-3.41-2,3.61,3.61,0,0,1-.42-1.3l-4-29.86c.31,1.33,6.81,2.39,14.78,2.39a63.38,63.38,0,0,0,11.17-.86C324.16,268.87,325.48,268.36,325.66,267.79Z" fill="#c2c4c6"/><path d="M325.66,267.79l-5.14,30a3.87,3.87,0,0,1-3.81,3.21H304a3.85,3.85,0,0,1-3.41-2c2.71-1.69,10.6-7.37,16.68-19.33l4.84-10.3C324.16,268.87,325.48,268.36,325.66,267.79Z" opacity="0.2"/><path d="M453.71,39.36V251.24H441.53V39.14h0s4.29-.12,11.91.21Z" fill="#0071f2"/><path d="M453.71,39.36V251.24H441.53V39.14h0s4.29-.12,11.91.21Z" fill="#fff" opacity="0.35"/><path d="M755.71,244l-69.44.17-6.09,0-22.41.05-204.06.5h-.25V39.35h.25c35.82,1.57,143.6,13,226.47,91.1q3.08,2.89,6.09,5.91a296.37,296.37,0,0,1,34.94,42c1.52,2.21,3,4.44,4.48,6.72.17.24.33.49.48.74A325.14,325.14,0,0,1,755.71,244Z" fill="#fff" opacity="0.26"/><polygon points="219.78 419.54 308.53 643.77 313.01 641.54 226.75 421.53 219.78 419.54" fill="#c2c4c6"/><polygon points="310.02 430.48 226.25 643.53 221.77 641.29 303.06 432.47 310.02 430.48" fill="#c2c4c6"/><polygon points="715.24 423.27 628.97 643.03 624.5 640.79 708.27 425.26 715.24 423.27" fill="#c2c4c6"/><path d="M687.14,446.14a71.86,71.86,0,0,0-22.62,3.48l23.62,166.31-4,.5L652.34,451.61c-35.8,11.19-75.57,4-75.57,4L546.94,616.68h-6l23.62-165.07c-27.1-4-26.6-28.34-26.6-28.34A389.78,389.78,0,0,0,532.33,383c-6.56-35.12-16-67.85-16-67.85a428.7,428.7,0,0,1-20.06-63.72c-.89-3.92-1.32-6.13-1.32-6.13-.5-7,18.89-4,18.89-4,22.9.85,48.16-5.22,61.7-9.11A106.42,106.42,0,0,1,608,228.05c53.27,1.6,42.81,37.11,42.81,37.11l-6,95,60.66,63.64C705.54,439.93,687.14,446.14,687.14,446.14Z" fill="#3f4347"/><path d="M532.63,383.18l-.3-.2c-6.56-35.12-16-67.85-16-67.85a428.7,428.7,0,0,1-20.06-63.72L522.08,291S547.17,318,532.63,383.18Z" opacity="0.2"/><path d="M749.44,394.68a8.89,8.89,0,0,1-2.14,5.49c-17.08,21.71-134.19,38.51-276.11,38.51-143.62,0-261.83-17.2-276.68-39.29a8.39,8.39,0,0,1-1.57-4.71c0-24.3,124.58-44,278.25-44S749.44,370.38,749.44,394.68Z" fill="#e1e1e2"/><path d="M472,280.54a23,23,0,0,1-3.14,9.23,53,53,0,0,0-4,23.87c4,21.88-21.63,44-21.63,44-25.6-2.24-80.79,8.45-80.79,8.45-18.15,5.22-29.34-12.67-29.34-12.67,0-4,15.42-51.22,15.42-51.22,17.53,1.91,40.9-2.61,50.86-4.83a51.45,51.45,0,0,0,8.14-2.52C427.08,287,448,284.55,448,284.55c12.65-1.65,19.76-4,22.62-5.08A1,1,0,0,1,472,280.54Z" fill="#fff"/><path d="M462.66,357.64l-12.43,15.41c-22.37-6.71-87.5-.24-87.5-.24-16.66,3.23-19.89,2.48-19.89,2.48-17.15-2.73-9.7-21.87-9.7-21.87s11.19,17.89,29.34,12.67c0,0,55.19-10.69,80.79-8.45Z" fill="#e6e6e6"/><path d="M365,313.39s1,9.45-1.49,16.66l-8.2,12.18,36.29-3.48s.25-8.7,2.49-13.43c0,0,3.23-9.69,2.24-16.9C396.29,308.42,375.41,311.4,365,313.39Z" fill="#ccc"/><path d="M409,306.43c12.95-5.3,27.19-8.17,40.77-11.43-10.35,8-27.84,11.8-40.77,11.43Z" fill="#ccc"/><path d="M408.22,317.12c13.07-4.48,26.58-6.45,40.27-8-11.05,6.56-27.55,9.11-40.27,8Z" fill="#ccc"/><path d="M405.24,329.05c13.16-4.45,27.53-6,41.26-7.7-10.56,6.65-28.93,8.93-41.26,7.7Z" fill="#ccc"/><path d="M401.76,344.22s-3.09,10.9-11.49,17.38c0,0,31.37-4.56,41.19-4.26l7.59-14.12S435.32,344.47,401.76,344.22Z" fill="#ccc"/><path d="M468,333.94s-1.16,5.34-4.34,7.89c-1.91,1.53-4.54,2.06-8.09-.18a13.9,13.9,0,0,1-3.72-9.7,6.43,6.43,0,0,1-3.58-1.42c-.69-.75-.93-1.86.1-3.55,0,0-9.45-.49-4.48-5.47,0,0-4.72-6.71,12.93-9.19,0,0,6.22.46,7.71-.82.4-.34.46-.8,0-1.42,0,0-1.24-2.24-6.21-1.74,0,0-4.72,1-6.34-2.61,0,0-1.24-3.23,6.46-3.73,0,0,10.57-1.62,11.81,3.11C470.24,305.11,477,322,468,333.94Z" fill="#f9b499"/><path d="M464.54,311.5h0c.4-.34.46-.8,0-1.42,0,0-1.24-2.24-6.21-1.74,0,0-4.72,1-6.34-2.61,0,0,11.56-2.12,13.55.87C465.52,306.6,468.54,310.94,464.54,311.5Z" fill="#f7a48b"/><path d="M443.89,321.51c6.83-1.24,13.72-2.16,20.63-2.73-6.82,1.25-13.71,2.16-20.63,2.73Z" fill="#f7a48b"/><path d="M448.37,327a53.56,53.56,0,0,1,10.44-.25,52.81,52.81,0,0,1-10.44.25Z" fill="#f7a48b"/><path d="M463.66,341.83c-1.91,1.53-4.54,2.06-8.09-.18a13.9,13.9,0,0,1-3.72-9.7,6.43,6.43,0,0,1-3.58-1.42h0a18.34,18.34,0,0,0,5.55.69S455.51,342.37,463.66,341.83Z" fill="#f7a48b"/><polygon points="628.72 436.45 710.26 642.78 714.74 640.54 635.68 438.44 628.72 436.45" fill="#c2c4c6"/><path d="M748.87,404.87c0,24.3-124.57,44-278.25,44s-278.25-19.71-278.25-44a8.88,8.88,0,0,1,2.14-5.48c14.85,22.09,133.06,39.29,276.68,39.29,141.92,0,259-16.8,276.11-38.51A8.36,8.36,0,0,1,748.87,404.87Z" fill="#9ea0a3"/><path d="M686.27,136.37V246.64h-6.09V130.46Q683.26,133.35,686.27,136.37Z" fill="#0071f2"/><path d="M686.27,136.37V246.64h-6.09V130.46Q683.26,133.35,686.27,136.37Z" fill="#fff" opacity="0.35"/><path d="M304.79,256s3.12-1,1.42-4.91a4.08,4.08,0,0,1,0-4s-3.37,1-1.42,4.48A4,4,0,0,1,304.79,256Z" fill="#e6e6e6"/><path d="M309.06,256.3s3.13-1,1.42-4.91a4.11,4.11,0,0,1,0-4s-3.36.95-1.42,4.48A4,4,0,0,1,309.06,256.3Z" fill="#e6e6e6"/><path d="M313.3,256s3.13-1,1.42-4.91a4.11,4.11,0,0,1,0-4s-3.36,1-1.42,4.48A4,4,0,0,1,313.3,256Z" fill="#e6e6e6"/></svg>