 <!DOCTYPE svg PUBLIC "-//W3C//DTD SVG 1.1//EN" "http://www.w3.org/Graphics/SVG/1.1/DTD/svg11.dtd">
<svg id="a482aa53-4217-4811-b6b7-b99ad4ea7baf" data-name="Layer 1" xmlns="http://www.w3.org/2000/svg" width="865.76" height="682.89" viewBox="0 0 865.76 682.89">
<defs>
<style xmlns="http://www.w3.org/1999/xhtml">*, ::after, ::before { box-sizing: border-box; }
img, svg { vertical-align: middle; }
</style>
<style xmlns="http://www.w3.org/1999/xhtml">*, body, html { -webkit-font-smoothing: antialiased; }
img, svg { max-width: 100%; }
</style>
</defs>
<g id="b9103a3e-749a-43a4-9f96-ffe8227c7ae3" data-name="freepik--background-simple--inject-559">
<path d="M739.3,341.6c-7.31,62-35.61,134.06-92.13,167.15-85.4,50-78.27,127-244.94,160.43a342.86,342.86,0,0,1-73.91,6.93,286.1,286.1,0,0,1-36.28-3c-106-15.39-177.23-89-203.39-177.92C54.24,378.3,123,301.77,168.52,255.65S247.44,65.85,411,31.67a331.55,331.55,0,0,1,76-7.21C545.19,26,608.68,45,652.62,84.89q4.93,4.47,9.62,9.31C723.35,156.88,749.28,257.11,739.3,341.6Z" fill="#0071f2" data-primary="true"/>
<path d="M739.3,341.6c-7.31,62-35.61,134.06-92.13,167.15-85.4,50-78.27,127-244.94,160.43a342.86,342.86,0,0,1-73.91,6.93,286.1,286.1,0,0,1-36.28-3c-106-15.39-177.23-89-203.39-177.92C54.24,378.3,123,301.77,168.52,255.65S247.44,65.85,411,31.67a331.55,331.55,0,0,1,76-7.21C545.19,26,608.68,45,652.62,84.89q4.93,4.47,9.62,9.31C723.35,156.88,749.28,257.11,739.3,341.6Z" fill="#fff" opacity="0.7" style="isolation:isolate"/>
</g>
<g id="f9a2b315-2019-4838-a638-3c129424783e" data-name="freepik--lamp-2--inject-559">
<path d="M487.48,124.13a58.65,58.65,0,0,0-114.18,0Z" fill="#2f2e41" data-secondary="true"/>
<path d="M377.47,112.29a58.24,58.24,0,0,0-4.17,11.91H487.48a57.64,57.64,0,0,0-4.17-11.91Z" opacity="0.2"/>
<path d="M430.37,80.41a1.49,1.49,0,0,1-1.49-1.49V8.24a1.49,1.49,0,0,1,3,0V78.92A1.49,1.49,0,0,1,430.37,80.41Z" fill="#2f2e41" data-secondary="true"/>
</g>
<rect x="88.89" y="143.66" width="13.18" height="60.91" fill="#8c8c8c"/>
<rect x="88.89" y="146.16" width="13.18" height="6.91" fill="#fff"/>
<rect x="88.89" y="193.89" width="13.18" height="6.91" fill="#fff"/>
<rect x="103.32" y="143.66" width="13.18" height="60.91" fill="#e6e7e8"/>
<rect x="103.32" y="146.16" width="13.18" height="6.91" fill="#fff"/>
<rect x="103.32" y="193.89" width="13.18" height="6.91" fill="#fff"/>
<rect x="117.77" y="143.66" width="13.18" height="60.91" fill="#0071f2" data-primary="true"/>
<rect x="117.77" y="146.16" width="13.18" height="6.91" fill="#fff"/>
<rect x="117.77" y="193.89" width="13.18" height="6.91" fill="#fff"/>
<rect x="132.21" y="143.66" width="13.18" height="60.91" fill="#bcbec0"/>
<rect x="132.21" y="146.16" width="13.18" height="6.91" fill="#fff"/>
<rect x="132.21" y="193.89" width="13.18" height="6.91" fill="#fff"/>
<rect x="146.66" y="143.66" width="13.18" height="60.91" fill="#d1d3d4"/>
<rect x="146.66" y="146.16" width="13.18" height="6.91" fill="#fff"/>
<rect x="146.66" y="193.89" width="13.18" height="6.91" fill="#fff"/>
<rect x="161.09" y="143.66" width="13.18" height="60.91" fill="#8c8c8c"/>
<rect x="161.09" y="146.16" width="13.18" height="6.91" fill="#fff"/>
<rect x="161.09" y="193.89" width="13.18" height="6.91" fill="#fff"/>
<rect x="181.16" y="142.85" width="13.15" height="60.74" transform="translate(-39.89 57.3) rotate(-15.71)" fill="#0071f2" data-primary="true"/>
<rect x="175.13" y="146.45" width="13.18" height="6.91" transform="translate(-33.88 54.99) rotate(-15.76)" fill="#fff"/>
<rect x="188.08" y="192.37" width="13.18" height="6.91" transform="translate(-45.87 60.24) rotate(-15.76)" fill="#fff"/>
<rect x="79.76" y="204.06" width="144.58" height="6.63" fill="#2f2e41" data-secondary="true"/>
<rect x="197.05" y="215.42" width="13.21" height="61.01" transform="translate(-54.93 58.61) rotate(-14.45)" fill="#e6e7e8"/>
<rect x="190.22" y="220.11" width="13.18" height="6.91" transform="translate(-50.35 57.35) rotate(-14.72)" fill="#fff"/>
<rect x="202.35" y="266.25" width="13.18" height="6.91" transform="matrix(0.97, -0.25, 0.25, 0.97, -61.67, 61.94)" fill="#fff"/>
<rect x="175.36" y="217.47" width="13.18" height="60.91" fill="#8c8c8c"/>
<rect x="175.35" y="219.98" width="13.18" height="6.91" fill="#fff"/>
<rect x="175.35" y="267.71" width="13.18" height="6.91" fill="#fff"/>
<rect x="160.91" y="217.47" width="13.18" height="60.91" fill="#e6e7e8"/>
<rect x="160.91" y="219.98" width="13.18" height="6.91" fill="#fff"/>
<rect x="160.91" y="267.71" width="13.18" height="6.91" fill="#fff"/>
<rect x="146.46" y="217.47" width="13.18" height="60.91" fill="#bcbec0"/>
<rect x="146.48" y="219.98" width="13.18" height="6.91" fill="#fff"/>
<rect x="146.48" y="267.71" width="13.18" height="6.91" fill="#fff"/>
<rect x="132.03" y="217.47" width="13.18" height="60.91" fill="#0071f2" data-primary="true"/>
<rect x="132.03" y="219.98" width="13.18" height="6.91" fill="#fff"/>
<rect x="132.03" y="267.71" width="13.18" height="6.91" fill="#fff"/>
<rect x="117.58" y="217.47" width="13.18" height="60.91" fill="#8c8c8c"/>
<rect x="117.59" y="219.98" width="13.18" height="6.91" fill="#fff"/>
<rect x="117.59" y="267.71" width="13.18" height="6.91" fill="#fff"/>
<rect x="73.05" y="240.7" width="60.91" height="13.18" transform="translate(-162.6 279.74) rotate(-74.24)" fill="#e6e7e8"/>
<rect x="106.7" y="217.13" width="6.91" height="13.18" transform="translate(-135.07 268.97) rotate(-74.24)" fill="#fff"/>
<rect x="93.74" y="263.05" width="6.91" height="13.18" transform="translate(-188.71 289.94) rotate(-74.24)" fill="#fff"/>
<rect x="79.76" y="277.89" width="144.58" height="6.63" fill="#2f2e41" data-secondary="true"/>
<rect x="87.43" y="291.31" width="13.18" height="60.91" fill="#0071f2" data-primary="true"/>
<rect x="87.43" y="293.83" width="13.18" height="6.91" fill="#fff"/>
<rect x="87.43" y="341.54" width="13.18" height="6.91" fill="#fff"/>
<rect x="101.86" y="291.31" width="13.18" height="60.91" fill="#8c8c8c"/>
<rect x="101.86" y="293.83" width="13.18" height="6.91" fill="#fff"/>
<rect x="101.86" y="341.54" width="13.18" height="6.91" fill="#fff"/>
<rect x="116.3" y="291.31" width="13.18" height="60.91" fill="#e6e7e8"/>
<rect x="116.3" y="293.83" width="13.18" height="6.91" fill="#fff"/>
<rect x="116.3" y="341.54" width="13.18" height="6.91" fill="#fff"/>
<rect x="131.06" y="291.05" width="13.18" height="60.91" transform="translate(-11.69 5.26) rotate(-2.1)" fill="#8c8c8c"/>
<rect x="130.18" y="293.57" width="13.18" height="6.91" transform="translate(-10.79 5.21) rotate(-2.1)" fill="#fff"/>
<rect x="131.91" y="341.27" width="13.18" height="6.91" transform="translate(-12.54 5.31) rotate(-2.1)" fill="#fff"/>
<rect x="124.37" y="314.88" width="60.91" height="13.18" transform="translate(-174.26 459.37) rotate(-87.02)" fill="#0071f2" data-primary="true"/>
<rect x="152.65" y="290.42" width="6.91" height="13.18" transform="translate(-148.62 437.47) rotate(-87.02)" fill="#fff"/>
<rect x="150.18" y="338.09" width="6.91" height="13.18" transform="matrix(0.05, -1, 1, 0.05, -198.57, 480.19)" fill="#fff"/>
<rect x="163.55" y="291.31" width="13.18" height="60.91" fill="#8c8c8c"/>
<rect x="163.55" y="293.83" width="13.18" height="6.91" fill="#fff"/>
<rect x="163.55" y="341.54" width="13.18" height="6.91" fill="#fff"/>
<rect x="184.23" y="290.66" width="13.18" height="60.91" transform="translate(-80.04 63.9) rotate(-15.76)" fill="#0071f2" data-primary="true"/>
<rect x="177.57" y="294.1" width="13.18" height="6.91" transform="translate(-73.89 61.21) rotate(-15.76)" fill="#fff"/>
<rect x="190.52" y="340.02" width="13.18" height="6.91" transform="translate(-85.88 66.45) rotate(-15.76)" fill="#fff"/>
<rect x="79.76" y="351.71" width="144.58" height="6.63" fill="#2f2e41" data-secondary="true"/>
<rect x="88.89" y="365.13" width="13.18" height="60.91" fill="#8c8c8c"/>
<rect x="88.89" y="367.65" width="13.18" height="6.91" fill="#fff"/>
<rect x="88.89" y="415.36" width="13.18" height="6.91" fill="#fff"/>
<rect x="103.32" y="365.13" width="13.18" height="60.91" fill="#d1d3d4"/>
<rect x="103.32" y="367.65" width="13.18" height="6.91" fill="#fff"/>
<rect x="103.32" y="415.36" width="13.18" height="6.91" fill="#fff"/>
<rect x="117.77" y="365.13" width="13.18" height="60.91" fill="#fff"/>
<rect x="117.77" y="367.65" width="13.18" height="6.91" fill="#fff"/>
<rect x="117.77" y="415.36" width="13.18" height="6.91" fill="#fff"/>
<rect x="132.21" y="365.13" width="13.18" height="60.91" fill="#8c8c8c"/>
<rect x="132.21" y="367.65" width="13.18" height="6.91" fill="#fff"/>
<rect x="132.21" y="415.36" width="13.18" height="6.91" fill="#fff"/>
<rect x="146.66" y="365.13" width="13.18" height="60.91" fill="#0071f2" data-primary="true"/>
<rect x="146.66" y="367.65" width="13.18" height="6.91" fill="#fff"/>
<rect x="146.66" y="415.36" width="13.18" height="6.91" fill="#fff"/>
<rect x="161.09" y="365.13" width="13.18" height="60.91" fill="#bcbec0"/>
<rect x="161.09" y="367.65" width="13.18" height="6.91" fill="#fff"/>
<rect x="161.09" y="415.36" width="13.18" height="6.91" fill="#fff"/>
<rect x="79.76" y="425.54" width="144.58" height="6.63" fill="#2f2e41" data-secondary="true"/>
<rect x="650.97" y="143.66" width="13.18" height="60.91" fill="#8c8c8c"/>
<rect x="650.97" y="146.16" width="13.18" height="6.91" fill="#fff"/>
<rect x="650.97" y="193.89" width="13.18" height="6.91" fill="#fff"/>
<rect x="665.41" y="143.66" width="13.18" height="60.91" fill="#e6e7e8"/>
<rect x="665.41" y="146.16" width="13.18" height="6.91" fill="#fff"/>
<rect x="665.41" y="193.89" width="13.18" height="6.91" fill="#fff"/>
<rect x="679.86" y="143.66" width="13.18" height="60.91" fill="#0071f2" data-primary="true"/>
<rect x="679.86" y="146.16" width="13.18" height="6.91" fill="#fff"/>
<rect x="679.86" y="193.89" width="13.18" height="6.91" fill="#fff"/>
<rect x="694.29" y="143.66" width="13.18" height="60.91" fill="#bcbec0"/>
<rect x="694.29" y="146.16" width="13.18" height="6.91" fill="#fff"/>
<rect x="694.29" y="193.89" width="13.18" height="6.91" fill="#fff"/>
<rect x="708.74" y="143.66" width="13.18" height="60.91" fill="#d1d3d4"/>
<rect x="708.74" y="146.16" width="13.18" height="6.91" fill="#fff"/>
<rect x="708.74" y="193.89" width="13.18" height="6.91" fill="#fff"/>
<rect x="723.18" y="143.66" width="13.18" height="60.91" fill="#8c8c8c"/>
<rect x="723.18" y="146.16" width="13.18" height="6.91" fill="#fff"/>
<rect x="723.18" y="193.89" width="13.18" height="6.91" fill="#fff"/>
<rect x="743.25" y="142.85" width="13.15" height="60.74" transform="translate(-18.89 209.48) rotate(-15.71)" fill="#0071f2" data-primary="true"/>
<rect x="737.21" y="146.45" width="13.18" height="6.91" transform="translate(-12.75 207.66) rotate(-15.76)" fill="#fff"/>
<rect x="750.17" y="192.37" width="13.18" height="6.91" transform="translate(-24.74 212.9) rotate(-15.76)" fill="#fff"/>
<rect x="641.84" y="204.06" width="144.58" height="6.63" fill="#2f2e41" data-secondary="true"/>
<rect x="759.13" y="215.42" width="13.21" height="61.01" transform="translate(-37.15 198.89) rotate(-14.45)" fill="#e6e7e8"/>
<rect x="752.3" y="220.11" width="13.18" height="6.91" transform="translate(-31.9 200.17) rotate(-14.72)" fill="#fff"/>
<rect x="764.44" y="266.25" width="13.18" height="6.91" transform="matrix(0.97, -0.25, 0.25, 0.97, -43.22, 204.77)" fill="#fff"/>
<rect x="737.45" y="217.47" width="13.18" height="60.91" fill="#8c8c8c"/>
<rect x="737.43" y="219.98" width="13.18" height="6.91" fill="#fff"/>
<rect x="737.43" y="267.71" width="13.18" height="6.91" fill="#fff"/>
<rect x="723" y="217.47" width="13.18" height="60.91" fill="#e6e7e8"/>
<rect x="723" y="219.98" width="13.18" height="6.91" fill="#fff"/>
<rect x="723" y="267.71" width="13.18" height="6.91" fill="#fff"/>
<rect x="708.55" y="217.47" width="13.18" height="60.91" fill="#bcbec0"/>
<rect x="708.56" y="219.98" width="13.18" height="6.91" fill="#fff"/>
<rect x="708.56" y="267.71" width="13.18" height="6.91" fill="#fff"/>
<rect x="694.11" y="217.47" width="13.18" height="60.91" fill="#0071f2" data-primary="true"/>
<rect x="694.11" y="219.98" width="13.18" height="6.91" fill="#fff"/>
<rect x="694.11" y="267.71" width="13.18" height="6.91" fill="#fff"/>
<rect x="679.66" y="217.47" width="13.18" height="60.91" fill="#8c8c8c"/>
<rect x="679.68" y="219.98" width="13.18" height="6.91" fill="#fff"/>
<rect x="679.68" y="267.71" width="13.18" height="6.91" fill="#fff"/>
<rect x="635.13" y="240.7" width="60.91" height="13.18" transform="translate(246.81 820.69) rotate(-74.24)" fill="#e6e7e8"/>
<rect x="668.78" y="217.13" width="6.91" height="13.18" transform="translate(274.34 809.92) rotate(-74.24)" fill="#fff"/>
<rect x="655.82" y="263.05" width="6.91" height="13.18" transform="translate(220.71 830.9) rotate(-74.24)" fill="#fff"/>
<rect x="641.84" y="277.89" width="144.58" height="6.63" fill="#2f2e41" data-secondary="true"/>
<rect x="649.51" y="291.31" width="13.18" height="60.91" fill="#0071f2" data-primary="true"/>
<rect x="649.51" y="293.83" width="13.18" height="6.91" fill="#fff"/>
<rect x="649.51" y="341.54" width="13.18" height="6.91" fill="#fff"/>
<rect x="663.95" y="291.31" width="13.18" height="60.91" fill="#8c8c8c"/>
<rect x="663.95" y="293.83" width="13.18" height="6.91" fill="#fff"/>
<rect x="663.95" y="341.54" width="13.18" height="6.91" fill="#fff"/>
<rect x="678.38" y="291.31" width="13.18" height="60.91" fill="#e6e7e8"/>
<rect x="678.38" y="293.83" width="13.18" height="6.91" fill="#fff"/>
<rect x="678.38" y="341.54" width="13.18" height="6.91" fill="#fff"/>
<rect x="693.14" y="291.05" width="13.18" height="60.91" transform="translate(-11.31 25.86) rotate(-2.1)" fill="#8c8c8c"/>
<rect x="692.26" y="293.57" width="13.18" height="6.91" transform="translate(-10.41 25.81) rotate(-2.1)" fill="#fff"/>
<rect x="693.99" y="341.27" width="13.18" height="6.91" transform="translate(-12.16 25.9) rotate(-2.1)" fill="#fff"/>
<rect x="686.45" y="314.88" width="60.91" height="13.18" transform="translate(358.6 1020.7) rotate(-87.02)" fill="#0071f2" data-primary="true"/>
<rect x="714.74" y="290.42" width="6.91" height="13.18" transform="matrix(0.05, -1, 1, 0.05, 384.24, 998.8)" fill="#fff"/>
<rect x="712.27" y="338.09" width="6.91" height="13.18" transform="matrix(0.05, -1, 1, 0.05, 334.3, 1041.52)" fill="#fff"/>
<rect x="725.63" y="291.31" width="13.18" height="60.91" fill="#8c8c8c"/>
<rect x="725.63" y="293.83" width="13.18" height="6.91" fill="#fff"/>
<rect x="725.63" y="341.54" width="13.18" height="6.91" fill="#fff"/>
<rect x="746.31" y="290.66" width="13.18" height="60.91" transform="translate(-58.91 216.57) rotate(-15.76)" fill="#0071f2" data-primary="true"/>
<rect x="739.65" y="294.1" width="13.18" height="6.91" transform="translate(-52.76 213.87) rotate(-15.76)" fill="#fff"/>
<rect x="752.61" y="340.02" width="13.18" height="6.91" transform="translate(-64.75 219.12) rotate(-15.76)" fill="#fff"/>
<rect x="641.84" y="351.71" width="144.58" height="6.63" fill="#2f2e41" data-secondary="true"/>
<rect x="650.97" y="365.13" width="13.18" height="60.91" fill="#8c8c8c"/>
<rect x="650.97" y="367.65" width="13.18" height="6.91" fill="#fff"/>
<rect x="650.97" y="415.36" width="13.18" height="6.91" fill="#fff"/>
<rect x="665.41" y="365.13" width="13.18" height="60.91" fill="#d1d3d4"/>
<rect x="665.41" y="367.65" width="13.18" height="6.91" fill="#fff"/>
<rect x="665.41" y="415.36" width="13.18" height="6.91" fill="#fff"/>
<rect x="679.86" y="365.13" width="13.18" height="60.91" fill="#fff"/>
<rect x="679.86" y="367.65" width="13.18" height="6.91" fill="#fff"/>
<rect x="679.86" y="415.36" width="13.18" height="6.91" fill="#fff"/>
<rect x="694.29" y="365.13" width="13.18" height="60.91" fill="#8c8c8c"/>
<rect x="694.29" y="367.65" width="13.18" height="6.91" fill="#fff"/>
<rect x="694.29" y="415.36" width="13.18" height="6.91" fill="#fff"/>
<rect x="708.74" y="365.13" width="13.18" height="60.91" fill="#8c8c8c"/>
<rect x="708.74" y="367.65" width="13.18" height="6.91" fill="#fff"/>
<rect x="708.74" y="415.36" width="13.18" height="6.91" fill="#fff"/>
<rect x="723.18" y="365.13" width="13.18" height="60.91" fill="#bcbec0"/>
<rect x="723.18" y="367.65" width="13.18" height="6.91" fill="#fff"/>
<rect x="723.18" y="415.36" width="13.18" height="6.91" fill="#fff"/>
<rect x="641.84" y="425.54" width="144.58" height="6.63" fill="#2f2e41" data-secondary="true"/>
<rect x="561.43" y="178.14" width="67" height="77.12" fill="#2f2e41" data-secondary="true"/>
<rect x="566.13" y="183.56" width="57.57" height="66.26" fill="#fff"/>
<rect x="578.04" y="197.25" width="33.77" height="38.86" fill="#2f2e41" data-secondary="true"/>
<rect x="561.43" y="288.12" width="67" height="77.12" fill="#2f2e41" data-secondary="true"/>
<rect x="566.13" y="293.54" width="57.57" height="66.26" fill="#fff"/>
<rect x="578.04" y="307.23" width="33.77" height="38.86" fill="#2f2e41" data-secondary="true"/>
<rect x="232.76" y="224.92" width="67" height="77.12" fill="#2f2e41" data-secondary="true"/>
<rect x="237.46" y="230.34" width="57.57" height="66.26" fill="#fff"/>
<rect x="249.37" y="244.03" width="33.77" height="38.86" fill="#2f2e41" data-secondary="true"/>
<rect x="243.73" y="163.19" width="45.03" height="51.82" fill="#2f2e41" data-secondary="true"/>
<rect x="246.91" y="166.82" width="38.7" height="44.54" fill="#fff"/>
<rect x="254.89" y="176.03" width="22.7" height="26.13" fill="#2f2e41" data-secondary="true"/>
<rect x="243.73" y="317.91" width="45.03" height="51.82" fill="#2f2e41" data-secondary="true"/>
<rect x="246.91" y="321.56" width="38.7" height="44.54" fill="#fff"/>
<rect x="254.89" y="330.77" width="22.7" height="26.13" fill="#2f2e41" data-secondary="true"/>
<rect x="312.91" y="156.18" width="234.97" height="245.8" fill="#fff"/>
<rect x="317.78" y="161.29" width="225.22" height="235.58" fill="#0071f2" opacity="0.17" data-primary="true"/>
<path d="M486.07,222.2a.71.71,0,0,1-.52-.22.75.75,0,0,1,0-1.06l48.33-48.31a.75.75,0,1,1,1.06,1.06L486.6,222A.74.74,0,0,1,486.07,222.2Z" fill="#0071f2" opacity="0.17" data-primary="true"/>
<path d="M483.47,246.63a.67.67,0,0,1-.52-.22.74.74,0,0,1,0-1h0l28.07-28a.74.74,0,0,1,1.05,0h0a.77.77,0,0,1,0,1.06l-28.08,28A.75.75,0,0,1,483.47,246.63Z" fill="#0071f2" opacity="0.17" data-primary="true"/>
<path d="M326,364.63a.76.76,0,0,1-.54-1.28L380,308.77a.75.75,0,0,1,1.06,0,.74.74,0,0,1,0,1.05h0L326.5,364.4A.71.71,0,0,1,326,364.63Z" fill="#0071f2" opacity="0.17" data-primary="true"/>
<path d="M366.52,309.53a.72.72,0,0,1-.53-.23.73.73,0,0,1,0-1l13-13a.74.74,0,0,1,1.05,1.05h0l-13,13A.8.8,0,0,1,366.52,309.53Z" fill="#0071f2" opacity="0.17" data-primary="true"/>
<path d="M501.66,367.76a.75.75,0,0,1-.52-1.27l13-13a.75.75,0,1,1,1.06,1.06h0l-13,13A.78.78,0,0,1,501.66,367.76Z" fill="#263238"/>
<rect x="425.11" y="161.29" width="10.56" height="235.58" fill="#fff"/>
<rect x="296.14" y="145.79" width="268.5" height="10.03" fill="#0071f2" data-primary="true"/>
<path d="M534.05,674h0a3.11,3.11,0,0,1-3.11-3L524.86,530.5h6.93l5.37,140.24A3.11,3.11,0,0,1,534.05,674Z" fill="#d1d3d4"/>
<path d="M564.07,530.5l39,140.93a3.44,3.44,0,0,0,3.32,2.53h0a3.44,3.44,0,0,0,3.33-4.35L570.36,525.14Z" fill="#d1d3d4"/>
<path d="M451.55,674h0a3.49,3.49,0,0,1-3.49-3.33l-5.83-138.31h7l5.79,138A3.49,3.49,0,0,1,451.55,674Z" fill="#d1d3d4"/>
<path d="M514.18,396.89s10.33-20,27-22.05A14.76,14.76,0,0,1,553.34,379c4.61,4.53,10.8,13.84,13.4,32.22,0,0,3.83,39.94,1,62.87h-21s-25.24-.53-28.8,46.13v12.15H439.57l37.9-46.52,31.61-10.27,2.42-63.87Z" fill="#a7a9ac"/>
<path d="M395.41,479.37s23.37,6.77,47.41,51.13c0,0,6.68-7.18,23.61-5,0,0,69.22,17.14,68.36-42.43,0,0-2.44-16.53-8.72-23.91l-45.3,1.64H470.05l-5.74,4.72S414.07,470.08,395.41,479.37Z" fill="#2f2e41" data-secondary="true"/>
<rect x="469.97" y="333.01" width="13.96" height="19.89" fill="#f9b499"/>
<path d="M470,348.39v-4.22l12.08-4.47S478,347.36,470,348.39Z" fill="#f7a48b"/>
<ellipse cx="469.97" cy="319.3" rx="21.13" ry="24.88" fill="#f9b499"/>
<ellipse cx="490.67" cy="324.53" rx="9.06" ry="6.02" transform="translate(-15.17 624.87) rotate(-64.18)" fill="#f9b499"/>
<path d="M466.72,466.8c-6.57-.33-6.57-22-6.57-22L439,439.39l-9.68-21.82h0c-7-1.13-15.38.83-15.38.83l-11.5-1.53A1.45,1.45,0,0,1,401.2,415l1.77-5.24,7.91-23.47,1.16-3.45a1.49,1.49,0,0,1,1.8-1l22.66,4.91h0l3.12.68c15.43-28.23,29.14-31.84,29.14-31.84-2.54,6-13.22,29.54-13.22,29.54-4.37,12.63,1.64,26.09,1.64,26.09l11,40S473.28,467.13,466.72,466.8Z" fill="#0071f2" data-primary="true"/>
<path d="M430.12,416.58l-.86,1c-7-1.13-15.38.83-15.38.83l-11.5-1.53A1.45,1.45,0,0,1,401.2,415l1.77-5.24C405.82,411.47,412.91,414.34,430.12,416.58Z" opacity="0.2"/>
<path d="M441.21,414.06s5.82-5.19,2.05-12.08c0,0-3.89-4.43-.39-13.45,0,0,9.61-19.76,24.44-30.06,0,0-15.56,17.74-20.16,29.24a16.38,16.38,0,0,0-1.08,7.68c.42,4.31,1.67,12.87,5.25,17.08Z" opacity="0.2"/>
<path d="M468.78,355.54V350.9a.9.9,0,0,1,.83-.89l14.31-1.12h5.8a1,1,0,0,1,.94.95v6.23s-10.87-3.33-19.4,13c0,0-12.83,19.89-6.69,41.31,0,0,5.73,25.54,12.15,33.92,0,0,3.71,4.13,4,16.47H470.05a52.36,52.36,0,0,0-1.86-9.56l-11-40s-6.49-14.84-1.64-26.09Z" fill="#0071f2" data-primary="true"/>
<path d="M468.78,355.54V350.9a.9.9,0,0,1,.83-.89l14.31-1.12h5.8a1,1,0,0,1,.94.95v6.23s-10.87-3.33-19.4,13c0,0-12.83,19.89-6.69,41.31,0,0,5.73,25.54,12.15,33.92,0,0,3.71,4.13,4,16.47H470.05a52.36,52.36,0,0,0-1.86-9.56l-11-40s-6.49-14.84-1.64-26.09Z" fill="#fff" opacity="0.4"/>
<path d="M512.32,344.34s-6.72-10.71-7.67-32c0,0-.76-17.91-11.62-17.72,0,0-13.71-13.88-31.28-6.81,0,0-12,2.79-16.07,22.93,0,0-9.65,40.29-1.93,49.72,0,0,1.07-20.36,3-25.93l-1.5,28.71,3.4,3.29.88-14.64.65,15.85H453s.62-.7,1.65-1.77c-.33-4.16-1.06-15.45.13-21.76,0,0,.38,12.27,1.26,20.34,3.38-3.36,8.72-7.74,12.78-9v-4.4S468.63,350,470,350v-5.81s-18.53.26-21.1-23.35a28.85,28.85,0,0,1,2.19-12.64h11.69l3.71-4.41-1,3.43,7.29,1.57s5.18-5.47,6.43-8.14c0,0,.42,9.86,3.71,12.57l8,8s1.45-2.68,3.8-3.3a1.68,1.68,0,0,1,1.94,1c.69,1.57,1.32,4.9-1.71,10.18,0,0-2.76,4.61-7.29,3.95a27.51,27.51,0,0,1-2,2.92,24.77,24.77,0,0,1-1.87,2.2v10.93h5.79a1,1,0,0,1,.95.94v6.24s5.83,2.39,11.11,10.25a35.42,35.42,0,0,0,7-4.91c-1.89-2.83-4.69-7.66-5.43-12.44A58.9,58.9,0,0,0,510,360.22c.46-.47.91-1,1.35-1.49-4-6.7-7.2-18.78-7.2-18.78,1.17,4.48,5.93,12.75,8.52,17.07h0a7.82,7.82,0,0,0,1.52-4.49A18.84,18.84,0,0,0,512.32,344.34Z" fill="#2f2e41" data-secondary="true"/>
<path d="M408.27,478.59a63.93,63.93,0,0,1,6.9,4c2.2,1.49,4.36,3.05,6.44,4.72a97.82,97.82,0,0,1,11.59,11A96.8,96.8,0,0,1,442.82,511c1.48,2.21,2.72,4.57,4,6.9.66,1.15,1.17,2.39,1.74,3.59l1.64,3.63a132.57,132.57,0,0,0-8-13.7,107,107,0,0,0-9.72-12.5,105.77,105.77,0,0,0-11.34-11.06A94.15,94.15,0,0,0,408.27,478.59Z" opacity="0.2"/>
<path d="M439.57,518.32c5.21-2.61,11.16-3.38,17-3.43,1.45,0,2.91,0,4.36.17l2.18.2,2.17.3c1.44.17,2.86.5,4.3.76s2.82.49,4.25.66a96.48,96.48,0,0,0,17.25.63c1.44-.08,2.88-.15,4.31-.3s2.87-.31,4.3-.5,2.85-.46,4.28-.68,2.83-.59,4.25-.87c-1.39.38-2.78.8-4.19,1.13s-2.83.68-4.26.9-2.87.49-4.31.65-2.89.31-4.34.44a91.41,91.41,0,0,1-17.42-.4c-1.44-.19-2.89-.42-4.32-.73s-2.81-.61-4.24-.79a68.61,68.61,0,0,0-8.58-.81,50.58,50.58,0,0,0-8.61.47A31.7,31.7,0,0,0,439.57,518.32Z" opacity="0.2"/>
<path d="M466.45,468.56a27.72,27.72,0,0,1,8.07,3.06,40.62,40.62,0,0,1,7.11,5,45.46,45.46,0,0,1,5.9,6.35l.66.85.61.9,1.22,1.79c.74,1.23,1.43,2.49,2.11,3.76-.87-1.15-1.64-2.36-2.52-3.49l-1.31-1.68-.66-.85-.71-.8c-.47-.53-.94-1.06-1.4-1.6s-1-1-1.48-1.54c-1-1-2.05-2-3.08-2.94a54.61,54.61,0,0,0-6.84-5.05c-.59-.39-1.21-.75-1.83-1.08s-1.26-.67-1.9-1A31.92,31.92,0,0,0,466.45,468.56Z" opacity="0.2"/>
<path d="M498.55,476a20.19,20.19,0,0,0-3.11-2.43,30.44,30.44,0,0,0-3.39-2,48.41,48.41,0,0,0-7.27-3L482.9,468l-1.9-.49c-1.27-.37-2.57-.55-3.85-.86s-2.6-.43-3.9-.65-2.63-.32-3.95-.53c1.33,0,2.66,0,4,0s2.66.21,4,.38a46.71,46.71,0,0,1,7.82,1.74,36.38,36.38,0,0,1,7.33,3.25A21.74,21.74,0,0,1,498.55,476Z" opacity="0.2"/>
<path d="M517.37,464.44a8.41,8.41,0,0,1,2.23,2.1,19.63,19.63,0,0,1,1.69,2.57,38.9,38.9,0,0,1,2.48,5.61c.31,1,.64,1.94.91,2.92s.55,2,.75,3,.43,2,.59,3,.31,2,.42,3c-.62-1.94-1.18-3.89-1.77-5.82s-1.19-3.85-1.84-5.75-1.39-3.76-2.23-5.58a25.73,25.73,0,0,0-1.4-2.65A9.82,9.82,0,0,0,517.37,464.44Z" opacity="0.2"/>
<path d="M488.83,663.1l-2.75.44-9.77-25.47-2.63-.55-1,21.52c-.33,13.61-27.66,11.52-27.66,11.52-6.92-1.09,9.15-14.25,9.15-14.25h0a54.81,54.81,0,0,1,11.26-2.2s-.73-15.9,4.05-23.14c0,0-9.39-12-5.93-19.27,16-4.65,18.34,11.45,18.34,11.45Z" fill="#0071f2" data-primary="true"/>
<path d="M425.07,621.89c2.57,5.79-1.24,11.14-1.24,11.14-7.78,10.37-8.89,15.93-8.89,15.93H402c5.82-4.08,9.26-24.46,9.26-24.46.37-8.89-7-27.41-7-27.41l-21.49-72c-10-37.87,12.7-45.77,12.7-45.77,7.41,1.9,19.17,12.87,19.17,12.87l11.51,99.56-.81,13.81,3,2.14C423.68,613.2,425.07,621.89,425.07,621.89Z" fill="#f7a48b"/>
<path d="M439.73,662.91h-2.25L430.72,636c-4.24,1.76-8.18,8.24-10,11.55a7,7,0,0,0-.79,3.89c.82,11.43-9.11,11.19-9.11,11.19h-21C385.49,659,402,649,402,649h13s1.11-5.56,8.89-15.93c0,0,3.81-5.35,1.24-11.14,0,0-1.39-8.69,3.21-14.14l6.24,4.88c7.22,5.49,5.14,11.78,3.88,14.27a5.26,5.26,0,0,0-.54,2.71Z" fill="#0071f2" data-primary="true"/>
<path d="M547,375.27s17.37-6.21,23.66,11c0,0,8.28,12.63,8.57,46.63,0,0,.85,63.15-8,99.43H518V503.47s.08-29.15,28.8-29.43h21s1.9-32.87-1-62.87C566.74,411.17,563.62,380.8,547,375.27Z" fill="#bcbec0"/>
<path d="M518,532.32h8.45V498.61s1.92-19.72,20.35-24.57c0,0-26.59-2.29-28.8,29.43Z" fill="#d1d3d4"/>
<path d="M534.8,607.75s4.07-7.7,10.59-8.2h28.34a13.15,13.15,0,0,1,8.39,2.91,16.64,16.64,0,0,1,4.85,6.72s1.1,3.29,3.53,3c0,0,2.72-.86.72-5.14a24.64,24.64,0,0,0-6.35-9,13.19,13.19,0,0,0-8.5-3H543.73a7.47,7.47,0,0,0-2.3.36,14.93,14.93,0,0,0-7,4.78Z" fill="#a7a9ac"/>
<path d="M451.87,595h68s4.93.52,7.9,3.41l.4,9.3s-1.64-6.19-13.62-7.29H452.17Z" fill="#a7a9ac"/>
<path d="M436.5,386.7l-25.62-.44,1.16-3.45a1.49,1.49,0,0,1,1.8-1Z" opacity="0.2"/>
<path d="M401.56,430.49a4.35,4.35,0,0,1-1.87-.05,1.63,1.63,0,0,1-.57-2.77c2.24-2,8.43-7.22,14.76-9.28,0,0,9.9-2.23,15.38-.83L434.37,429s-9.31,4.52-13,4.87H408s-1.58,0-1.23-1.23c0,0-3.49,2.36-4.8.35A2.79,2.79,0,0,1,401.56,430.49Z" fill="#f9b499"/>
<path d="M402.79,429.62a17,17,0,0,1,2.35-2.51,27.77,27.77,0,0,1,2.73-2.09,19.06,19.06,0,0,1,6.27-2.77c-1,.63-1.94,1.18-2.89,1.79s-1.9,1.19-2.83,1.82C406.54,427.08,404.71,428.37,402.79,429.62Z" fill="#f7a48b"/>
<path d="M408.46,432.06a30.65,30.65,0,0,1,4.72-4.11,27.18,27.18,0,0,1,5.41-3.14,44.07,44.07,0,0,1-4.83,3.95A39.23,39.23,0,0,1,408.46,432.06Z" fill="#f7a48b"/>
<path d="M415.63,433.9a11.06,11.06,0,0,1,1.82-1.8,16.91,16.91,0,0,1,2.09-1.45,11.57,11.57,0,0,1,4.82-1.64c-.74.45-1.46.85-2.18,1.26L420,431.52C418.61,432.34,417.19,433.18,415.63,433.9Z" fill="#f7a48b"/>
<path d="M408.77,392.52s-10-5.68-18.19-5.82a11.57,11.57,0,0,0-1.76.12c-3.31.46-13.75,2.32-9.57,7.27,0,0-1.3,2.6,2.22,2.47,0,0-2,3.64,1.82,3.77,0,0-1.69,2.47,2.08,2.34,0,0,8.44-1.81,12.2-1.19A1.63,1.63,0,0,1,399,403c0,.68-.38,1.45-1.87,1.8,0,0-8.2-1-6.12,2.27a12.29,12.29,0,0,0,7.59,1.69,7.82,7.82,0,0,0,3.9-1.9,1.81,1.81,0,0,1,1.58-.29Z" fill="#f9b499"/>
<path d="M379.25,394.09a12.06,12.06,0,0,1,3.28-2.92,13.83,13.83,0,0,1,4.11-1.69,15.26,15.26,0,0,1,4.41-.34c1.45.07,2.89.2,4.34.39-1.45.2-2.89.33-4.34.39a20.71,20.71,0,0,0-4.18.54,18.17,18.17,0,0,0-4,1.39A21.7,21.7,0,0,0,379.25,394.09Z" fill="#f7a48b"/>
<path d="M381.47,396.56a8.2,8.2,0,0,1,2.53-2.07,14.11,14.11,0,0,1,3-1.25,16.93,16.93,0,0,1,3.23-.56,13.68,13.68,0,0,1,3.26.11c-1.07.25-2.11.43-3.15.66s-2.06.45-3.06.75-2,.61-3,1A20.89,20.89,0,0,0,381.47,396.56Z" fill="#f7a48b"/>
<path d="M383.29,400.33a5.11,5.11,0,0,1,1.84-1.94,10,10,0,0,1,2.41-1.19,13.52,13.52,0,0,1,2.59-.6,11.75,11.75,0,0,1,2.65,0c-.83.32-1.66.56-2.49.8s-1.63.5-2.43.79a24.79,24.79,0,0,0-2.35.91A11.75,11.75,0,0,0,383.29,400.33Z" fill="#f7a48b"/>
<path d="M383.28,438.67H305.6l-2.4-10.23h0l-10.43-44.38a2.68,2.68,0,0,1,2.61-3.29h73.07a1.74,1.74,0,0,1,1.69,1.34Z" fill="#2f2e41" data-secondary="true"/>
<path d="M303.2,428.44h0l-10.43-44.38a2.68,2.68,0,0,1,2.61-3.29H333S338.51,413.37,303.2,428.44Z" fill="#fff" opacity="0.2"/>
<circle cx="336.5" cy="411.97" r="6.42" opacity="0.2"/>
<path d="M368.44,380.77h5.27a1.67,1.67,0,0,1,1.62,1.28L388,433.9h31.48a8.62,8.62,0,0,1,6.76,3.28l1.17,1.49H383.28l-13.15-56.56S370,381.08,368.44,380.77Z" fill="#2f2e41" data-secondary="true"/>
<path d="M368.44,380.77h5.27a1.67,1.67,0,0,1,1.62,1.28L388,433.9h31.48a8.62,8.62,0,0,1,6.76,3.28l1.17,1.49H383.28l-13.15-56.56S370,381.08,368.44,380.77Z" opacity="0.2"/>
<g opacity="0.2">
<rect x="307.23" y="434.27" width="68.08" height="1"/>
</g>
<path d="M479.93,468.53c.71-3.4,2.26-14-2.91-23.13a77.72,77.72,0,0,1-5-10.2c-4.27-10.92-12.52-32.64-7.59-48.94,0,0,6.84-32.39,25.33-30.51a4.9,4.9,0,0,1,1.93.64c3.29,1.88,13.83,9.44,20,31.81a206,206,0,0,1,8.86,48.9s.33,6.56,4.27,11.32c0,0,7.06,6.89-.82,12.64,0,0-16.6,11.17-43.19,8.64A1,1,0,0,1,479.93,468.53Z" fill="#0071f2" data-primary="true"/>
<path d="M485.1,438.74h3.61v4.76s33.66-32.74,14.44-63.67C503.15,379.83,516.77,419.21,485.1,438.74Z" opacity="0.2"/>
<path d="M436.93,434.77l-7.67-17.21s-2.62-2.12,6.34-2.61l33.09-5.22-32.2,9A2.09,2.09,0,0,0,435,421Z" fill="#0071f2" data-primary="true"/>
<path d="M436.93,434.77l-7.67-17.21s-2.62-2.12,6.34-2.61l33.09-5.22-32.2,9A2.09,2.09,0,0,0,435,421Z" fill="#fff" opacity="0.2"/>
<path d="M463.65,406.86s.36,2.35.79,4.37c0,0,8,1.42,10-10.56,0,0,3.45-16.57,7.88-25.44,0,0,2.3-6.72,5.25-9.18,0,0-4.39-1.32-9.91,14.27C477.65,380.32,470.91,407.26,463.65,406.86Z" fill="#0071f2" data-primary="true"/>
<path d="M463.65,406.86s.36,2.35.79,4.37c0,0,8,1.42,10-10.56,0,0,3.45-16.57,7.88-25.44,0,0,2.3-6.72,5.25-9.18,0,0-4.39-1.32-9.91,14.27C477.65,380.32,470.91,407.26,463.65,406.86Z" opacity="0.2"/>
<path d="M465.45,654.1a54.81,54.81,0,0,0-11.26,2.2h0V643.14c-1-14.33-22.39-42.32-22.39-42.32-24.54-37.05-34.09-73.27-34.09-73.27-8.07-25.36,16.88-35.31,16.88-35.31,15.08,13.43,28.23,38.26,28.23,38.26,3.79,9.86,6.1,49.57,6.1,49.57,1.65,17.62,14.66,31.62,14.66,31.62-3.46,7.24,5.93,19.27,5.93,19.27C464.72,638.2,465.45,654.1,465.45,654.1Z" fill="#f9b499"/>
<polygon points="233.35 447.73 251.01 447.73 222.47 673.96 216.59 673.96 233.35 447.73" fill="#bcbec0"/>
<polygon points="444.79 447.68 473.5 673.96 479.29 673.96 461.07 447.68 444.79 447.68" fill="#bcbec0"/>
<path d="M474.93,398.42s-.79,14-11.28,12.72l-27.16,7.58s-1.78.38-1.44,2.8l1.88,13.25,2.05,4.62,38.19-.72,2.71-25.8Z" fill="#0071f2" data-primary="true"/>
<rect x="207.07" y="438.67" width="280.49" height="12.68" fill="#a7a9ac"/>
</svg>